<?xml version="1.0" encoding="utf-8" standalone="no"?>
<!DOCTYPE svg PUBLIC "-//W3C//DTD SVG 1.1//EN"
  "http://www.w3.org/Graphics/SVG/1.1/DTD/svg11.dtd">
<svg xmlns:xlink="http://www.w3.org/1999/xlink" width="966.383375pt" height="370.437062pt" viewBox="0 0 966.383375 370.437062" xmlns="http://www.w3.org/2000/svg" version="1.1">
 <metadata>
  <rdf:RDF xmlns:dc="http://purl.org/dc/elements/1.1/" xmlns:cc="http://creativecommons.org/ns#" xmlns:rdf="http://www.w3.org/1999/02/22-rdf-syntax-ns#">
   <cc:Work>
    <dc:type rdf:resource="http://purl.org/dc/dcmitype/StillImage"/>
    <dc:date>2026-06-15T18:49:13.102122</dc:date>
    <dc:format>image/svg+xml</dc:format>
    <dc:creator>
     <cc:Agent>
      <dc:title>Matplotlib v3.10.9, https://matplotlib.org/</dc:title>
     </cc:Agent>
    </dc:creator>
   </cc:Work>
  </rdf:RDF>
 </metadata>
 <defs>
  <style type="text/css">*{stroke-linejoin: round; stroke-linecap: butt}</style>
 </defs>
 <g id="figure_1">
  <g id="patch_1">
   <path d="M 0 370.437062
L 966.383375 370.437062
L 966.383375 0
L 0 0
z
" style="fill: #fcfcfd"/>
  </g>
  <g id="axes_1">
   <g id="patch_2">
    <path d="M 50.039375 343.538
L 455.907232 343.538
L 455.907232 81.718
L 50.039375 81.718
z
" style="fill: #ffffff"/>
   </g>
   <g id="matplotlib.axis_1">
    <g id="xtick_1">
     <g id="text_1">
      <!-- HotpotQA -->
      <g style="fill: #1f2430" transform="translate(93.172126 361.045656) scale(0.11 -0.11)">
       <defs>
        <path id="ArialUnicodeMS-48" d="M 4109 0
L 3500 0
L 3500 2156
L 1119 2156
L 1119 0
L 513 0
L 513 4581
L 1119 4581
L 1119 2700
L 3500 2700
L 3500 4581
L 4109 4581
L 4109 0
z
" transform="scale(0.015625)"/>
        <path id="ArialUnicodeMS-6f" d="M 1778 3391
Q 2450 3391 2892 2953
Q 3334 2516 3334 1709
Q 3334 731 2856 326
Q 2378 -78 1778 -78
Q 1150 -78 687 337
Q 225 753 225 1656
Q 225 2531 672 2961
Q 1119 3391 1778 3391
z
M 1778 384
Q 2259 384 2509 740
Q 2759 1097 2759 1678
Q 2759 2300 2476 2615
Q 2194 2931 1778 2931
Q 1350 2931 1075 2611
Q 800 2291 800 1656
Q 800 1025 1079 704
Q 1359 384 1778 384
z
" transform="scale(0.015625)"/>
        <path id="ArialUnicodeMS-74" d="M 1722 6
Q 1472 -44 1300 -44
Q 931 -44 762 86
Q 594 216 556 416
Q 519 616 519 972
L 519 2881
L 109 2881
L 109 3316
L 519 3316
L 519 4141
L 1081 4481
L 1081 3316
L 1644 3316
L 1644 2881
L 1081 2881
L 1081 941
Q 1081 691 1132 586
Q 1184 481 1394 481
Q 1516 481 1644 506
L 1722 6
z
" transform="scale(0.015625)"/>
        <path id="ArialUnicodeMS-70" d="M 959 2888
Q 1275 3391 1906 3391
Q 2559 3391 2937 2917
Q 3316 2444 3316 1684
Q 3316 875 2897 398
Q 2478 -78 1869 -78
Q 1334 -78 1013 347
L 997 347
L 997 -1275
L 434 -1275
L 434 3316
L 947 3316
L 947 2888
L 959 2888
z
M 1831 384
Q 2225 384 2483 711
Q 2741 1038 2741 1684
Q 2741 2294 2492 2622
Q 2244 2950 1856 2950
Q 1456 2950 1198 2584
Q 941 2219 941 1638
Q 941 1022 1187 703
Q 1434 384 1831 384
z
" transform="scale(0.015625)"/>
        <path id="ArialUnicodeMS-51" d="M 4769 63
L 4588 -359
Q 4056 -156 3609 206
Q 3091 -78 2484 -78
Q 1525 -78 912 586
Q 300 1250 300 2291
Q 300 3322 894 3990
Q 1488 4659 2497 4659
Q 3456 4659 4070 4006
Q 4684 3353 4684 2297
Q 4684 1166 3994 494
Q 4381 216 4769 63
z
M 3519 825
Q 4056 1322 4056 2291
Q 4056 3156 3623 3648
Q 3191 4141 2497 4141
Q 1803 4141 1365 3669
Q 928 3197 928 2291
Q 928 1403 1365 922
Q 1803 441 2497 441
Q 2838 441 3109 563
Q 2806 756 2509 825
L 2656 1269
Q 3216 1109 3519 825
z
" transform="scale(0.015625)"/>
        <path id="ArialUnicodeMS-41" d="M 4275 0
L 3591 0
L 3053 1394
L 1141 1394
L 634 0
L -6 0
L 1753 4581
L 2406 4581
L 4275 0
z
M 2869 1875
Q 2306 3363 2234 3564
Q 2163 3766 2075 4103
L 2059 4103
Q 1972 3641 1825 3247
L 1313 1875
L 2869 1875
z
" transform="scale(0.015625)"/>
       </defs>
       <use xlink:href="#ArialUnicodeMS-48"/>
       <use xlink:href="#ArialUnicodeMS-6f" transform="translate(72.216797 0)"/>
       <use xlink:href="#ArialUnicodeMS-74" transform="translate(127.832031 0)"/>
       <use xlink:href="#ArialUnicodeMS-70" transform="translate(155.615234 0)"/>
       <use xlink:href="#ArialUnicodeMS-6f" transform="translate(211.230469 0)"/>
       <use xlink:href="#ArialUnicodeMS-74" transform="translate(266.845703 0)"/>
       <use xlink:href="#ArialUnicodeMS-51" transform="translate(294.628906 0)"/>
       <use xlink:href="#ArialUnicodeMS-41" transform="translate(372.412109 0)"/>
      </g>
     </g>
    </g>
    <g id="xtick_2">
     <g id="text_2">
      <!-- QASPER -->
      <g style="fill: #1f2430" transform="translate(230.048616 360.911594) scale(0.11 -0.11)">
       <defs>
        <path id="ArialUnicodeMS-53" d="M 3213 3238
Q 3175 3675 2897 3895
Q 2619 4116 2100 4116
Q 1631 4116 1337 3941
Q 1044 3766 1044 3431
Q 1044 3134 1270 2989
Q 1497 2844 2138 2700
Q 2706 2575 3065 2444
Q 3425 2313 3681 2036
Q 3938 1759 3938 1294
Q 3938 703 3467 312
Q 2997 -78 2241 -78
Q 1275 -78 795 353
Q 316 784 288 1472
L 863 1522
Q 903 972 1287 720
Q 1672 469 2216 469
Q 2725 469 3039 678
Q 3353 888 3353 1247
Q 3353 1622 3025 1794
Q 2697 1966 1923 2133
Q 1150 2300 809 2603
Q 469 2906 469 3391
Q 469 3941 900 4300
Q 1331 4659 2075 4659
Q 2838 4659 3302 4301
Q 3766 3944 3794 3284
L 3213 3238
z
" transform="scale(0.015625)"/>
        <path id="ArialUnicodeMS-50" d="M 494 4581
L 2222 4581
Q 2631 4581 2926 4540
Q 3222 4500 3475 4329
Q 3728 4159 3858 3867
Q 3988 3575 3988 3256
Q 3988 2622 3580 2239
Q 3172 1856 2272 1856
L 1100 1856
L 1100 0
L 494 0
L 494 4581
z
M 1100 2400
L 2278 2400
Q 3359 2400 3359 3238
Q 3359 3513 3218 3723
Q 3078 3934 2873 3986
Q 2669 4038 2266 4038
L 1100 4038
L 1100 2400
z
" transform="scale(0.015625)"/>
        <path id="ArialUnicodeMS-45" d="M 3928 0
L 506 0
L 506 4581
L 3822 4581
L 3822 4038
L 1113 4038
L 1113 2638
L 3647 2638
L 3647 2094
L 1113 2094
L 1113 544
L 3928 544
L 3928 0
z
" transform="scale(0.015625)"/>
        <path id="ArialUnicodeMS-52" d="M 4550 0
L 3788 0
Q 3103 1081 2937 1328
Q 2772 1575 2589 1751
Q 2406 1928 2245 1975
Q 2084 2022 1819 2022
L 1119 2022
L 1119 0
L 513 0
L 513 4581
L 2541 4581
Q 2956 4581 3237 4528
Q 3519 4475 3731 4304
Q 3944 4134 4058 3875
Q 4172 3616 4172 3328
Q 4172 2809 3844 2493
Q 3516 2178 2888 2094
L 2888 2081
Q 3347 1878 3750 1247
L 4550 0
z
M 1119 2566
L 2419 2566
Q 2813 2566 3042 2633
Q 3272 2700 3409 2894
Q 3547 3088 3547 3328
Q 3547 3641 3319 3859
Q 3091 4078 2566 4078
L 1119 4078
L 1119 2566
z
" transform="scale(0.015625)"/>
       </defs>
       <use xlink:href="#ArialUnicodeMS-51"/>
       <use xlink:href="#ArialUnicodeMS-41" transform="translate(77.783203 0)"/>
       <use xlink:href="#ArialUnicodeMS-53" transform="translate(144.482422 0)"/>
       <use xlink:href="#ArialUnicodeMS-50" transform="translate(211.181641 0)"/>
       <use xlink:href="#ArialUnicodeMS-45" transform="translate(277.880859 0)"/>
       <use xlink:href="#ArialUnicodeMS-52" transform="translate(344.580078 0)"/>
      </g>
     </g>
    </g>
    <g id="xtick_3">
     <g id="text_3">
      <!-- LitSearch -->
      <g style="fill: #1f2430" transform="translate(365.390263 360.911594) scale(0.11 -0.11)">
       <defs>
        <path id="ArialUnicodeMS-4c" d="M 3347 0
L 481 0
L 481 4581
L 1088 4581
L 1088 544
L 3347 544
L 3347 0
z
" transform="scale(0.015625)"/>
        <path id="ArialUnicodeMS-69" d="M 991 0
L 428 0
L 428 3316
L 991 3316
L 991 0
z
M 991 3944
L 428 3944
L 428 4581
L 991 4581
L 991 3944
z
" transform="scale(0.015625)"/>
        <path id="ArialUnicodeMS-65" d="M 3309 1516
L 825 1516
Q 859 966 1139 675
Q 1419 384 1838 384
Q 2159 384 2378 554
Q 2597 725 2713 1069
L 3291 997
Q 3150 478 2775 200
Q 2400 -78 1838 -78
Q 1091 -78 670 380
Q 250 838 250 1631
Q 250 2416 658 2903
Q 1066 3391 1806 3391
Q 2169 3391 2505 3231
Q 2841 3072 3075 2689
Q 3309 2306 3309 1516
z
M 2731 1978
Q 2697 2484 2417 2707
Q 2138 2931 1806 2931
Q 1409 2931 1153 2665
Q 897 2400 856 1978
L 2731 1978
z
" transform="scale(0.015625)"/>
        <path id="ArialUnicodeMS-61" d="M 3303 0
L 2713 0
Q 2631 156 2597 409
Q 2031 -78 1375 -78
Q 850 -78 547 184
Q 244 447 244 878
Q 244 1291 536 1558
Q 828 1825 1550 1913
L 2075 1991
Q 2369 2038 2559 2106
Q 2559 2359 2543 2464
Q 2528 2569 2451 2681
Q 2375 2794 2206 2862
Q 2038 2931 1753 2931
Q 1391 2931 1180 2797
Q 969 2663 891 2297
L 341 2369
Q 431 2878 806 3134
Q 1181 3391 1838 3391
Q 2434 3391 2714 3214
Q 2994 3038 3058 2788
Q 3122 2538 3122 2144
L 3122 1388
Q 3122 697 3148 461
Q 3175 225 3303 0
z
M 2559 1459
L 2559 1663
Q 2119 1516 1481 1430
Q 844 1344 844 891
Q 844 663 1016 514
Q 1188 366 1509 366
Q 1925 366 2242 614
Q 2559 863 2559 1459
z
" transform="scale(0.015625)"/>
        <path id="ArialUnicodeMS-72" d="M 2216 3213
L 2022 2694
Q 1813 2816 1613 2816
Q 1297 2816 1134 2533
Q 972 2250 972 1741
L 972 0
L 409 0
L 409 3316
L 922 3316
L 922 2816
L 934 2816
Q 1203 3391 1638 3391
Q 1925 3391 2216 3213
z
" transform="scale(0.015625)"/>
        <path id="ArialUnicodeMS-63" d="M 3144 1147
Q 3034 513 2643 217
Q 2253 -78 1759 -78
Q 1038 -78 644 395
Q 250 869 250 1650
Q 250 2297 476 2686
Q 703 3075 1043 3233
Q 1384 3391 1759 3391
Q 2272 3391 2636 3125
Q 3000 2859 3084 2344
L 2541 2259
Q 2456 2594 2267 2762
Q 2078 2931 1784 2931
Q 1313 2931 1069 2597
Q 825 2263 825 1663
Q 825 1050 1064 717
Q 1303 384 1753 384
Q 2116 384 2323 592
Q 2531 800 2584 1216
L 3144 1147
z
" transform="scale(0.015625)"/>
        <path id="ArialUnicodeMS-68" d="M 3138 0
L 2572 0
L 2572 2094
Q 2572 2500 2397 2703
Q 2222 2906 1875 2906
Q 1531 2906 1261 2667
Q 991 2428 991 1813
L 991 0
L 428 0
L 428 4581
L 991 4581
L 991 2938
Q 1391 3391 1991 3391
Q 2313 3391 2606 3259
Q 2900 3128 3019 2856
Q 3138 2584 3138 2100
L 3138 0
z
" transform="scale(0.015625)"/>
       </defs>
       <use xlink:href="#ArialUnicodeMS-4c"/>
       <use xlink:href="#ArialUnicodeMS-69" transform="translate(55.615234 0)"/>
       <use xlink:href="#ArialUnicodeMS-74" transform="translate(77.832031 0)"/>
       <use xlink:href="#ArialUnicodeMS-53" transform="translate(105.615234 0)"/>
       <use xlink:href="#ArialUnicodeMS-65" transform="translate(172.314453 0)"/>
       <use xlink:href="#ArialUnicodeMS-61" transform="translate(227.929688 0)"/>
       <use xlink:href="#ArialUnicodeMS-72" transform="translate(283.544922 0)"/>
       <use xlink:href="#ArialUnicodeMS-63" transform="translate(316.845703 0)"/>
       <use xlink:href="#ArialUnicodeMS-68" transform="translate(366.845703 0)"/>
      </g>
     </g>
    </g>
   </g>
   <g id="matplotlib.axis_2">
    <g id="ytick_1">
     <g id="line2d_1">
      <path d="M 50.039375 330.268665
L 455.907232 330.268665
" clip-path="url(#p8ce1ac7146)" style="fill: none; stroke-dasharray: 2.96,1.28; stroke-dashoffset: 0; stroke: #e6e8f0; stroke-width: 0.8"/>
     </g>
     <g id="text_4">
      <!-- $\mathdefault{10^{3}}$ -->
      <g style="fill: #1f2430" transform="translate(23.599375 334.205462) scale(0.11 -0.11)">
       <defs>
        <path id="ArialUnicodeMS-31" d="M 2400 0
L 1838 0
L 1838 3584
Q 1416 3184 709 2906
L 709 3450
Q 1681 3916 2034 4603
L 2400 4603
L 2400 0
z
" transform="scale(0.015625)"/>
        <path id="ArialUnicodeMS-30" d="M 1778 4603
Q 3272 4603 3272 2259
Q 3272 1075 2886 498
Q 2500 -78 1778 -78
Q 288 -78 288 2259
Q 288 3444 673 4023
Q 1059 4603 1778 4603
z
M 1778 384
Q 2231 384 2462 823
Q 2694 1263 2694 2259
Q 2694 2953 2592 3351
Q 2491 3750 2286 3945
Q 2081 4141 1772 4141
Q 1319 4141 1091 3694
Q 863 3247 863 2259
Q 863 1575 966 1175
Q 1069 775 1272 579
Q 1475 384 1778 384
z
" transform="scale(0.015625)"/>
        <path id="ArialUnicodeMS-33" d="M 2425 2478
Q 2850 2397 3067 2067
Q 3284 1738 3284 1350
Q 3284 725 2829 323
Q 2375 -78 1741 -78
Q 1134 -78 740 275
Q 347 628 281 1209
L 844 1288
Q 928 834 1151 609
Q 1375 384 1741 384
Q 2134 384 2407 661
Q 2681 938 2681 1338
Q 2681 1722 2432 1975
Q 2184 2228 1784 2228
Q 1622 2228 1388 2169
L 1453 2663
Q 1678 2663 1809 2684
Q 1941 2706 2103 2790
Q 2266 2875 2372 3033
Q 2478 3191 2478 3425
Q 2478 3766 2251 3953
Q 2025 4141 1728 4141
Q 1388 4141 1173 3925
Q 959 3709 903 3309
L 341 3413
Q 450 4009 823 4306
Q 1197 4603 1716 4603
Q 2288 4603 2670 4258
Q 3053 3913 3053 3413
Q 3053 2772 2425 2491
L 2425 2478
z
" transform="scale(0.015625)"/>
       </defs>
       <use xlink:href="#ArialUnicodeMS-31" transform="translate(0 0.385938)"/>
       <use xlink:href="#ArialUnicodeMS-30" transform="translate(55.615234 0.385938)"/>
       <use xlink:href="#ArialUnicodeMS-33" transform="translate(112.137187 36.654688) scale(0.7)"/>
      </g>
     </g>
    </g>
    <g id="ytick_2">
     <g id="line2d_2">
      <path d="M 50.039375 239.179151
L 455.907232 239.179151
" clip-path="url(#p8ce1ac7146)" style="fill: none; stroke-dasharray: 2.96,1.28; stroke-dashoffset: 0; stroke: #e6e8f0; stroke-width: 0.8"/>
     </g>
     <g id="text_5">
      <!-- $\mathdefault{10^{4}}$ -->
      <g style="fill: #1f2430" transform="translate(23.599375 243.115947) scale(0.11 -0.11)">
       <defs>
        <path id="ArialUnicodeMS-34" d="M 3263 1094
L 2644 1094
L 2644 0
L 2081 0
L 2081 1094
L 97 1094
L 97 1613
L 2181 4581
L 2644 4581
L 2644 1613
L 3263 1613
L 3263 1094
z
M 2081 1613
L 2081 3681
L 2069 3681
L 647 1613
L 2081 1613
z
" transform="scale(0.015625)"/>
       </defs>
       <use xlink:href="#ArialUnicodeMS-31" transform="translate(0 0.626563)"/>
       <use xlink:href="#ArialUnicodeMS-30" transform="translate(55.615234 0.626563)"/>
       <use xlink:href="#ArialUnicodeMS-34" transform="translate(112.137187 36.895313) scale(0.7)"/>
      </g>
     </g>
    </g>
    <g id="ytick_3">
     <g id="line2d_3">
      <path d="M 50.039375 148.089636
L 455.907232 148.089636
" clip-path="url(#p8ce1ac7146)" style="fill: none; stroke-dasharray: 2.96,1.28; stroke-dashoffset: 0; stroke: #e6e8f0; stroke-width: 0.8"/>
     </g>
     <g id="text_6">
      <!-- $\mathdefault{10^{5}}$ -->
      <g style="fill: #1f2430" transform="translate(23.599375 152.026433) scale(0.11 -0.11)">
       <defs>
        <path id="ArialUnicodeMS-35" d="M 1013 2753
Q 1431 3041 1881 3041
Q 2453 3041 2878 2636
Q 3303 2231 3303 1556
Q 3303 875 2872 398
Q 2441 -78 1741 -78
Q 1169 -78 750 245
Q 331 569 269 1203
L 856 1247
Q 928 813 1162 598
Q 1397 384 1741 384
Q 2169 384 2434 707
Q 2700 1031 2700 1503
Q 2700 1984 2428 2262
Q 2156 2541 1728 2541
Q 1188 2541 897 2100
L 366 2163
L 813 4519
L 3084 4519
L 3084 3975
L 1259 3975
L 1013 2753
z
" transform="scale(0.015625)"/>
       </defs>
       <use xlink:href="#ArialUnicodeMS-31" transform="translate(0 0.304688)"/>
       <use xlink:href="#ArialUnicodeMS-30" transform="translate(55.615234 0.304688)"/>
       <use xlink:href="#ArialUnicodeMS-35" transform="translate(112.137187 36.573437) scale(0.7)"/>
      </g>
     </g>
    </g>
    <g id="ytick_4"/>
    <g id="ytick_5"/>
    <g id="ytick_6"/>
    <g id="ytick_7"/>
    <g id="ytick_8"/>
    <g id="ytick_9"/>
    <g id="ytick_10"/>
    <g id="ytick_11"/>
    <g id="ytick_12"/>
    <g id="ytick_13"/>
    <g id="ytick_14"/>
    <g id="ytick_15"/>
    <g id="ytick_16"/>
    <g id="ytick_17"/>
    <g id="ytick_18"/>
    <g id="ytick_19"/>
    <g id="ytick_20"/>
    <g id="ytick_21"/>
    <g id="ytick_22"/>
    <g id="ytick_23"/>
    <g id="ytick_24"/>
    <g id="ytick_25"/>
    <g id="text_7">
     <!-- 边数量（log scale） -->
     <g style="fill: #1f2430" transform="translate(17.079375 266.307375) rotate(-90) scale(0.12 -0.12)">
      <defs>
       <path id="ArialUnicodeMS-8fb9" d="M 5313 4056
Q 5284 3438 5206 2703
Q 5128 1969 5061 1462
Q 4994 956 4858 825
Q 4722 694 4592 642
Q 4463 591 4259 591
Q 4094 591 3775 616
L 3603 1166
Q 3994 1100 4188 1100
Q 4447 1100 4494 1172
Q 4541 1244 4655 2023
Q 4769 2803 4819 3591
L 3872 3591
Q 3772 2244 3420 1637
Q 3069 1031 2419 563
L 2100 941
Q 2769 1413 3061 2020
Q 3353 2628 3384 3591
L 2075 3591
L 2075 4056
L 3384 4056
L 3384 5269
L 3872 5269
L 3872 4056
L 5313 4056
z
M 1772 4134
L 1325 3822
Q 959 4506 538 4850
L 909 5147
Q 1375 4722 1772 4134
z
M 6009 341
L 5850 -147
L 3231 -147
Q 2241 -147 1434 697
L 603 -153
L 213 244
L 1234 1119
L 1234 2747
L 372 2747
L 372 3213
L 1691 3213
L 1691 1106
Q 1981 750 2398 534
Q 2816 319 3175 301
Q 3534 284 4122 284
Q 4909 284 6009 341
z
" transform="scale(0.015625)"/>
       <path id="ArialUnicodeMS-6570" d="M 6138 19
L 5806 -378
Q 5031 194 4697 716
Q 4344 144 3328 -441
L 2981 -50
Q 3966 434 4403 1153
Q 4038 1834 3866 2753
Q 3678 2356 3353 1919
L 2950 2203
Q 3838 3172 3963 5253
L 4409 5125
Q 4341 4384 4269 4006
L 5984 4006
L 5984 3547
L 5619 3541
L 5594 3341
Q 5441 2113 4978 1191
Q 5281 672 6138 19
z
M 5166 3541
L 4172 3541
Q 4297 2419 4691 1650
Q 5038 2513 5166 3541
z
M 3438 3653
L 2209 3653
L 2209 2338
L 1919 2338
Q 1900 2269 1753 1931
L 3225 1931
L 3225 1472
L 2913 1472
Q 2763 991 2503 666
Q 2947 353 3103 184
L 2747 -172
Q 2463 138 2150 313
Q 1322 -225 563 -428
L 269 6
Q 1106 163 1684 563
Q 1291 756 703 884
L 1038 1472
L 403 1472
L 403 1931
L 1259 1931
Q 1328 2056 1466 2553
L 1747 2484
L 1747 3653
L 1716 3653
Q 1413 2881 678 2456
L 378 2803
Q 938 3091 1241 3653
L 403 3653
L 403 4122
L 1747 4122
L 1747 5228
L 2209 5228
L 2209 4122
L 3438 4122
L 3438 3653
z
M 2406 1472
L 1538 1472
Q 1422 1241 1369 1153
Q 1388 1159 2069 884
Q 2219 1031 2406 1472
z
M 1625 4441
L 1288 4159
Q 1022 4547 575 4813
L 878 5075
Q 1394 4844 1625 4441
z
M 3384 4844
Q 3097 4409 2669 4172
L 2322 4481
Q 2806 4759 3047 5069
L 3384 4844
z
M 3303 2888
L 2944 2578
Q 2706 3025 2291 3297
L 2584 3566
Q 2988 3359 3303 2888
z
" transform="scale(0.015625)"/>
       <path id="ArialUnicodeMS-91cf" d="M 5056 3378
L 1313 3378
L 1313 5050
L 5056 5050
L 5056 3378
z
M 4569 4403
L 4569 4609
L 1797 4609
L 1797 4403
L 4569 4403
z
M 4569 3794
L 4569 4031
L 1797 4031
L 1797 3794
L 4569 3794
z
M 5797 2816
L 581 2816
L 581 3231
L 5797 3231
L 5797 2816
z
M 6059 -191
L 341 -191
L 341 275
L 2950 275
L 2950 459
L 897 459
L 897 878
L 2950 878
L 2950 1044
L 1125 1044
L 1125 2669
L 5269 2669
L 5269 1044
L 3438 1044
L 3438 878
L 5509 878
L 5509 459
L 3438 459
L 3438 275
L 6059 275
L 6059 -191
z
M 4781 2053
L 4781 2253
L 3438 2253
L 3438 2053
L 4781 2053
z
M 2950 2053
L 2950 2253
L 1613 2253
L 1613 2053
L 2950 2053
z
M 4781 1459
L 4781 1697
L 3438 1697
L 3438 1459
L 4781 1459
z
M 2950 1459
L 2950 1697
L 1613 1697
L 1613 1459
L 2950 1459
z
" transform="scale(0.015625)"/>
       <path id="ArialUnicodeMS-ff08" d="M 3963 -1344
L 3559 -1344
Q 3041 -681 2744 103
Q 2447 888 2447 1656
Q 2447 2528 2762 3275
Q 3078 4022 3559 4659
L 3963 4659
Q 3406 3747 3217 3059
Q 3028 2372 3028 1663
Q 3028 153 3963 -1344
z
" transform="scale(0.015625)"/>
       <path id="ArialUnicodeMS-6c" d="M 991 0
L 428 0
L 428 4581
L 991 4581
L 991 0
z
" transform="scale(0.015625)"/>
       <path id="ArialUnicodeMS-67" d="M 3144 447
Q 3144 -259 3003 -607
Q 2863 -956 2503 -1150
Q 2144 -1344 1644 -1344
Q 1081 -1344 706 -1094
Q 331 -844 331 -275
L 878 -359
Q 909 -622 1098 -753
Q 1288 -884 1638 -884
Q 2075 -884 2278 -706
Q 2481 -528 2526 -272
Q 2572 -16 2572 434
Q 2206 0 1650 0
Q 1003 0 611 478
Q 219 956 219 1684
Q 219 2416 600 2903
Q 981 3391 1656 3391
Q 2244 3391 2613 2919
L 2625 2919
L 2625 3316
L 3144 3316
L 3144 447
z
M 1703 459
Q 2063 459 2341 745
Q 2619 1031 2619 1703
Q 2619 2297 2353 2614
Q 2088 2931 1697 2931
Q 1297 2931 1045 2606
Q 794 2281 794 1716
Q 794 1063 1058 761
Q 1322 459 1703 459
z
" transform="scale(0.015625)"/>
       <path id="ArialUnicodeMS-20" transform="scale(0.015625)"/>
       <path id="ArialUnicodeMS-73" d="M 2278 2388
Q 2241 2659 2058 2795
Q 1875 2931 1550 2931
Q 1228 2931 1029 2822
Q 831 2713 831 2503
Q 831 2306 989 2222
Q 1147 2138 1613 2016
Q 2138 1881 2398 1778
Q 2659 1675 2804 1489
Q 2950 1303 2950 972
Q 2950 528 2587 225
Q 2225 -78 1619 -78
Q 988 -78 633 189
Q 278 456 197 991
L 756 1075
Q 800 728 1014 556
Q 1228 384 1613 384
Q 1981 384 2178 539
Q 2375 694 2375 916
Q 2375 1066 2284 1156
Q 2194 1247 2058 1292
Q 1922 1338 1447 1453
Q 741 1622 514 1862
Q 288 2103 288 2438
Q 288 2853 619 3122
Q 950 3391 1509 3391
Q 2103 3391 2433 3158
Q 2763 2925 2828 2463
L 2278 2388
z
" transform="scale(0.015625)"/>
       <path id="ArialUnicodeMS-ff09" d="M 2847 4659
Q 3366 3997 3662 3212
Q 3959 2428 3959 1656
Q 3959 788 3643 41
Q 3328 -706 2847 -1344
L 2444 -1344
Q 3000 -431 3189 255
Q 3378 941 3378 1650
Q 3378 3163 2444 4659
L 2847 4659
z
" transform="scale(0.015625)"/>
      </defs>
      <use xlink:href="#ArialUnicodeMS-8fb9"/>
      <use xlink:href="#ArialUnicodeMS-6570" transform="translate(100 0)"/>
      <use xlink:href="#ArialUnicodeMS-91cf" transform="translate(200 0)"/>
      <use xlink:href="#ArialUnicodeMS-ff08" transform="translate(300 0)"/>
      <use xlink:href="#ArialUnicodeMS-6c" transform="translate(400 0)"/>
      <use xlink:href="#ArialUnicodeMS-6f" transform="translate(422.216797 0)"/>
      <use xlink:href="#ArialUnicodeMS-67" transform="translate(477.832031 0)"/>
      <use xlink:href="#ArialUnicodeMS-20" transform="translate(533.447266 0)"/>
      <use xlink:href="#ArialUnicodeMS-73" transform="translate(561.230469 0)"/>
      <use xlink:href="#ArialUnicodeMS-63" transform="translate(611.230469 0)"/>
      <use xlink:href="#ArialUnicodeMS-61" transform="translate(661.230469 0)"/>
      <use xlink:href="#ArialUnicodeMS-6c" transform="translate(716.845703 0)"/>
      <use xlink:href="#ArialUnicodeMS-65" transform="translate(739.0625 0)"/>
      <use xlink:href="#ArialUnicodeMS-ff09" transform="translate(794.677734 0)"/>
     </g>
    </g>
   </g>
   <g id="patch_3">
    <path d="M 68.487914 91693.051301
L 101.044159 91693.051301
L 101.044159 152.38975
L 68.487914 152.38975
z
" clip-path="url(#p8ce1ac7146)" style="fill: #c5cad3; stroke: #7a828f; stroke-linejoin: miter"/>
   </g>
   <g id="patch_4">
    <path d="M 204.138936 91693.051301
L 236.695181 91693.051301
L 236.695181 108.358923
L 204.138936 108.358923
z
" clip-path="url(#p8ce1ac7146)" style="fill: #c5cad3; stroke: #7a828f; stroke-linejoin: miter"/>
   </g>
   <g id="patch_5">
    <path d="M 339.789958 91693.051301
L 372.346203 91693.051301
L 372.346203 93.618909
L 339.789958 93.618909
z
" clip-path="url(#p8ce1ac7146)" style="fill: #c5cad3; stroke: #7a828f; stroke-linejoin: miter"/>
   </g>
   <g id="patch_6">
    <path d="M 101.044159 91693.051301
L 133.600404 91693.051301
L 133.600404 290.975949
L 101.044159 290.975949
z
" clip-path="url(#p8ce1ac7146)" style="fill: #a3befa; stroke: #2e4780; stroke-linejoin: miter"/>
   </g>
   <g id="patch_7">
    <path d="M 236.695181 91693.051301
L 269.251426 91693.051301
L 269.251426 195.476516
L 236.695181 195.476516
z
" clip-path="url(#p8ce1ac7146)" style="fill: #a3befa; stroke: #2e4780; stroke-linejoin: miter"/>
   </g>
   <g id="patch_8">
    <path d="M 372.346203 91693.051301
L 404.902448 91693.051301
L 404.902448 228.496965
L 372.346203 228.496965
z
" clip-path="url(#p8ce1ac7146)" style="fill: #a3befa; stroke: #2e4780; stroke-linejoin: miter"/>
   </g>
   <g id="patch_9">
    <path d="M 133.600404 91693.051301
L 166.15665 91693.051301
L 166.15665 331.637091
L 133.600404 331.637091
z
" clip-path="url(#p8ce1ac7146)" style="fill: #a3d576; stroke: #386411; stroke-linejoin: miter"/>
   </g>
   <g id="patch_10">
    <path d="M 269.251426 91693.051301
L 301.807671 91693.051301
L 301.807671 301.068857
L 269.251426 301.068857
z
" clip-path="url(#p8ce1ac7146)" style="fill: #a3d576; stroke: #386411; stroke-linejoin: miter"/>
   </g>
   <g id="patch_11">
    <path d="M 404.902448 91693.051301
L 437.458693 91693.051301
L 437.458693 293.720986
L 404.902448 293.720986
z
" clip-path="url(#p8ce1ac7146)" style="fill: #a3d576; stroke: #386411; stroke-linejoin: miter"/>
   </g>
   <g id="patch_12">
    <path d="M 50.039375 343.538
L 50.039375 81.718
" style="fill: none; stroke: #d7dbe7; stroke-width: 1.25; stroke-linejoin: miter; stroke-linecap: square"/>
   </g>
   <g id="patch_13">
    <path d="M 50.039375 343.538
L 455.907232 343.538
" style="fill: none; stroke: #d7dbe7; stroke-width: 1.25; stroke-linejoin: miter; stroke-linecap: square"/>
   </g>
   <g id="text_8">
    <!-- 3.0% -->
    <g style="fill: #2e4780" transform="translate(107.065797 282.635283) scale(0.09 -0.09)">
     <defs>
      <path id="ArialUnicodeMS-2e" d="M 1209 0
L 569 0
L 569 641
L 1209 641
L 1209 0
z
" transform="scale(0.015625)"/>
      <path id="ArialUnicodeMS-25" d="M 4325 4659
L 1838 -159
L 1369 -159
L 3872 4659
L 4325 4659
z
M 1428 4653
Q 1856 4653 2137 4343
Q 2419 4034 2419 3438
Q 2419 2850 2131 2539
Q 1844 2228 1434 2228
Q 1009 2228 739 2540
Q 469 2853 469 3475
Q 469 3984 722 4318
Q 975 4653 1428 4653
z
M 1441 2619
Q 1931 2619 1931 3463
Q 1931 4269 1441 4269
Q 953 4269 953 3419
Q 953 2619 1441 2619
z
M 4250 2253
Q 4681 2253 4961 1943
Q 5241 1634 5241 1038
Q 5241 600 5087 328
Q 4934 56 4709 -58
Q 4484 -172 4256 -172
Q 3831 -172 3561 140
Q 3291 453 3291 1075
Q 3291 1584 3544 1918
Q 3797 2253 4250 2253
z
M 4263 219
Q 4756 219 4756 1063
Q 4756 1869 4263 1869
Q 3775 1869 3775 1019
Q 3775 219 4263 219
z
" transform="scale(0.015625)"/>
     </defs>
     <use xlink:href="#ArialUnicodeMS-33"/>
     <use xlink:href="#ArialUnicodeMS-2e" transform="translate(55.615234 0)"/>
     <use xlink:href="#ArialUnicodeMS-30" transform="translate(83.398438 0)"/>
     <use xlink:href="#ArialUnicodeMS-25" transform="translate(139.013672 0)"/>
    </g>
   </g>
   <g id="text_9">
    <!-- 11.1% -->
    <g style="fill: #2e4780" transform="translate(240.214397 187.13585) scale(0.09 -0.09)">
     <use xlink:href="#ArialUnicodeMS-31"/>
     <use xlink:href="#ArialUnicodeMS-31" transform="translate(55.615234 0)"/>
     <use xlink:href="#ArialUnicodeMS-2e" transform="translate(111.230469 0)"/>
     <use xlink:href="#ArialUnicodeMS-31" transform="translate(139.013672 0)"/>
     <use xlink:href="#ArialUnicodeMS-25" transform="translate(194.628906 0)"/>
    </g>
   </g>
   <g id="text_10">
    <!-- 3.3% -->
    <g style="fill: #2e4780" transform="translate(378.367841 220.156299) scale(0.09 -0.09)">
     <use xlink:href="#ArialUnicodeMS-33"/>
     <use xlink:href="#ArialUnicodeMS-2e" transform="translate(55.615234 0)"/>
     <use xlink:href="#ArialUnicodeMS-33" transform="translate(83.398438 0)"/>
     <use xlink:href="#ArialUnicodeMS-25" transform="translate(139.013672 0)"/>
    </g>
   </g>
   <g id="text_11">
    <!-- (a) 建图成本：只比较局部候选边 -->
    <g style="fill: #262626" transform="translate(50.039375 75.718) scale(0.12 -0.12)">
     <defs>
      <path id="ArialUnicodeMS-28" d="M 1900 -1344
L 1497 -1344
Q 978 -681 681 103
Q 384 888 384 1656
Q 384 2528 700 3275
Q 1016 4022 1497 4659
L 1900 4659
Q 1344 3747 1155 3059
Q 966 2372 966 1663
Q 966 153 1900 -1344
z
" transform="scale(0.015625)"/>
      <path id="ArialUnicodeMS-29" d="M 634 4659
Q 1153 3997 1450 3212
Q 1747 2428 1747 1656
Q 1747 788 1431 41
Q 1116 -706 634 -1344
L 231 -1344
Q 788 -431 977 255
Q 1166 941 1166 1650
Q 1166 3163 231 4659
L 634 4659
z
" transform="scale(0.015625)"/>
      <path id="ArialUnicodeMS-5efa" d="M 5900 972
L 4225 972
L 4225 366
L 3738 366
L 3738 972
L 2253 972
L 2253 1434
L 3738 1434
L 3738 1813
L 2534 1813
L 2534 2272
L 3738 2272
L 3738 2656
L 2656 2656
L 2656 3116
L 3738 3116
L 3738 3506
L 2234 3506
L 2234 3969
L 3738 3969
L 3738 4319
L 2656 4319
L 2656 4781
L 3738 4781
L 3738 5288
L 4225 5288
L 4225 4781
L 5478 4781
L 5478 3969
L 5900 3969
L 5900 3506
L 5478 3506
L 5478 2656
L 4225 2656
L 4225 2272
L 5556 2272
L 5556 1813
L 4225 1813
L 4225 1434
L 5900 1434
L 5900 972
z
M 4991 3969
L 4991 4319
L 4225 4319
L 4225 3969
L 4991 3969
z
M 4991 3116
L 4991 3506
L 4225 3506
L 4225 3116
L 4991 3116
z
M 6075 359
L 5850 -166
L 3309 -166
Q 2181 -166 1600 347
Q 1228 -56 538 -397
L 213 0
Q 781 225 1253 684
Q 966 994 716 1606
L 1100 1844
Q 1231 1413 1522 1063
Q 1828 1709 1900 2541
L 1306 2541
L 1159 2253
L 738 2444
L 1600 4275
L 403 4275
L 403 4756
L 2144 4756
L 2144 4313
L 1503 3009
L 2419 3009
Q 2319 1475 1875 728
Q 2397 300 3378 300
L 5247 300
L 6075 359
z
" transform="scale(0.015625)"/>
      <path id="ArialUnicodeMS-56fe" d="M 5544 -422
L 5056 -422
L 5056 19
L 1184 19
L 1184 -422
L 703 -422
L 703 5019
L 5544 5019
L 5544 -422
z
M 5056 2400
L 5056 4550
L 2625 4550
L 2625 4538
L 2906 4416
Q 2863 4322 2778 4178
L 4513 4178
L 4513 3781
Q 4203 3203 3675 2778
Q 4228 2456 5056 2400
z
M 5056 459
L 5056 2163
L 5044 2163
L 4831 1850
Q 4013 1963 3188 2463
Q 2713 2188 1516 1900
L 1281 2388
Q 2341 2584 2784 2834
Q 2544 3022 2259 3413
Q 1941 3031 1575 2869
L 1253 3297
Q 2072 3656 2419 4550
L 1191 4550
L 1191 459
L 3231 459
Q 2769 950 2125 1228
L 2400 1606
Q 3019 1372 3694 716
L 3488 459
L 5056 459
z
M 3994 1491
L 3628 1131
Q 3197 1638 2613 1906
L 2963 2241
Q 3434 2072 3994 1491
z
M 3903 3713
L 2584 3713
Q 2709 3513 3250 3053
Q 3647 3328 3903 3713
z
" transform="scale(0.015625)"/>
      <path id="ArialUnicodeMS-6210" d="M 6047 806
Q 6053 666 5929 261
Q 5806 -144 5709 -276
Q 5613 -409 5428 -409
Q 5159 -409 4751 47
Q 4344 503 4153 947
Q 3516 272 2859 -128
L 2419 213
Q 3338 709 3922 1409
Q 3591 2216 3438 3769
L 1516 3769
L 1516 2900
L 3225 2900
Q 3181 1622 3020 1140
Q 2859 659 2338 659
Q 2150 659 1819 709
L 1606 1241
Q 2009 1119 2363 1119
Q 2584 1119 2648 1505
Q 2713 1891 2725 2431
L 1509 2431
Q 1481 1084 1270 496
Q 1059 -91 728 -459
L 319 -153
Q 1000 541 1013 2009
L 1031 4238
L 3391 4238
Q 3359 4997 3359 5319
L 3841 5319
Q 3850 4619 3878 4238
L 5747 4238
L 5747 3769
L 3909 3769
Q 4025 2497 4288 1838
Q 4734 2413 5106 3431
L 5550 3284
Q 5113 2075 4500 1325
Q 4738 869 5008 498
Q 5278 128 5409 128
Q 5450 128 5509 462
Q 5569 797 5575 1081
L 6047 806
z
M 5650 4659
L 5306 4359
Q 4688 4859 4063 4928
L 4447 5275
Q 5144 5119 5650 4659
z
" transform="scale(0.015625)"/>
      <path id="ArialUnicodeMS-672c" d="M 6113 1184
L 5766 775
Q 5031 1316 4457 1961
Q 3884 2606 3444 3922
L 3444 1613
L 4678 1613
L 4678 1147
L 3444 1147
L 3444 -428
L 2956 -428
L 2956 1147
L 1728 1147
L 1728 1613
L 2950 1613
L 2950 3872
Q 2413 2063 659 744
L 263 1125
Q 1884 2178 2419 3822
L 641 3822
L 641 4288
L 2956 4288
L 2956 5294
L 3444 5294
L 3444 4288
L 5728 4288
L 5728 3822
L 4019 3822
Q 4450 2203 6113 1184
z
" transform="scale(0.015625)"/>
      <path id="ArialUnicodeMS-ff1a" d="M 3516 2675
L 2875 2675
L 2875 3316
L 3516 3316
L 3516 2675
z
M 3516 0
L 2875 0
L 2875 641
L 3516 641
L 3516 0
z
" transform="scale(0.015625)"/>
      <path id="ArialUnicodeMS-53ea" d="M 5100 2081
L 1375 2081
L 1375 4941
L 5100 4941
L 5100 2081
z
M 4588 2566
L 4588 4453
L 1869 4453
L 1869 2566
L 4588 2566
z
M 2816 1594
Q 2166 563 703 -219
L 372 213
Q 1778 919 2400 1894
L 2816 1594
z
M 5941 109
L 5563 -256
Q 4828 866 3622 1522
L 3981 1869
Q 5125 1297 5941 109
z
" transform="scale(0.015625)"/>
      <path id="ArialUnicodeMS-6bd4" d="M 6119 1100
Q 5975 -197 5300 -197
L 4103 -197
Q 3828 -197 3658 -42
Q 3488 113 3488 378
L 3488 5191
L 3994 5191
L 3994 2906
Q 4775 3172 5600 3916
L 5984 3584
Q 5013 2703 3994 2388
L 3994 506
Q 4022 269 4225 269
L 5153 269
Q 5375 269 5464 464
Q 5553 659 5625 1325
L 6119 1100
z
M 3238 306
L 653 -231
L 378 250
L 1131 391
L 1131 5166
L 1638 5166
L 1638 3450
L 3238 3450
L 3238 2981
L 1638 2981
L 1638 500
L 3238 819
L 3238 306
z
" transform="scale(0.015625)"/>
      <path id="ArialUnicodeMS-8f83" d="M 5869 4031
L 2669 4031
L 2669 4494
L 4072 4494
Q 3747 4875 3322 5050
L 3681 5344
Q 4153 5141 4556 4697
L 4341 4494
L 5869 4494
L 5869 4031
z
M 2975 1325
L 2100 1088
L 2100 -441
L 1613 -441
L 1613 984
L 603 738
L 347 1153
Q 1278 1356 1613 1453
L 1613 2144
L 609 2144
L 609 2619
Q 966 3238 1125 3950
L 397 3950
L 397 4409
L 1228 4409
Q 1288 4619 1356 5269
L 1813 5131
Q 1797 4866 1703 4409
L 2553 4409
L 2553 3950
L 1600 3950
Q 1466 3294 1131 2606
L 1613 2606
L 1613 3438
L 2100 3438
L 2100 2606
L 2675 2606
L 2675 2144
L 2100 2144
L 2100 1569
L 2975 1806
L 2975 1325
z
M 3956 3738
Q 3653 2953 2881 2456
L 2522 2841
Q 3219 3200 3572 3969
L 3956 3738
z
M 5919 2753
L 5538 2450
Q 5100 3181 4475 3659
L 4813 3916
Q 5569 3438 5919 2753
z
M 6069 -6
L 5716 -416
Q 4797 34 4197 738
Q 3469 -69 2491 -416
L 2156 13
Q 3309 391 3897 1131
Q 3434 1828 3284 2619
L 3738 2791
Q 3850 2150 4206 1588
Q 4531 2131 4666 2847
L 5106 2638
Q 5009 1978 4506 1131
Q 5034 478 6069 -6
z
" transform="scale(0.015625)"/>
      <path id="ArialUnicodeMS-5c40" d="M 5728 2503
Q 5728 1888 5609 1092
Q 5491 297 5423 117
Q 5356 -63 5206 -188
Q 5056 -313 4684 -313
Q 4372 -313 4044 -256
L 3909 263
L 4788 134
Q 4953 156 5079 836
Q 5206 1516 5253 2572
L 1663 2572
L 1606 1672
Q 1534 603 813 -416
L 434 -56
Q 781 344 970 1026
Q 1159 1709 1159 2375
L 1159 5025
L 5281 5025
L 5281 3419
L 1644 3419
L 1644 3041
L 5728 3041
L 5728 2503
z
M 4794 3884
L 4794 4556
L 1644 4556
L 1644 3884
L 4794 3884
z
M 4525 331
L 4038 331
L 4038 581
L 2572 581
L 2572 250
L 2088 250
L 2088 2163
L 4525 2163
L 4525 331
z
M 4038 1050
L 4038 1697
L 2572 1697
L 2572 1050
L 4038 1050
z
" transform="scale(0.015625)"/>
      <path id="ArialUnicodeMS-90e8" d="M 3681 4134
L 622 4134
L 622 4603
L 1941 4603
L 1941 5313
L 2444 5313
L 2444 4603
L 3681 4603
L 3681 4134
z
M 5306 2875
Q 6038 2188 6038 1400
Q 6038 922 5795 634
Q 5553 347 5166 384
L 4756 422
L 4628 959
Q 5088 878 5166 878
Q 5556 878 5556 1356
Q 5556 2181 4794 2778
Q 5006 3238 5416 4581
L 4544 4581
L 4544 -428
L 4056 -428
L 4056 5050
L 5906 5050
L 5906 4622
Q 5484 3350 5306 2875
z
M 3909 2450
L 378 2450
L 378 2919
L 1588 2919
Q 1363 3609 997 3922
L 1422 4097
Q 1822 3700 2047 3078
L 1722 2919
L 2222 2919
Q 2700 3578 2797 4116
L 3244 3922
Q 3106 3459 2753 2919
L 3909 2919
L 3909 2450
z
M 3316 -403
L 2828 -403
L 2828 38
L 1394 38
L 1394 -403
L 909 -403
L 909 1953
L 3316 1953
L 3316 -403
z
M 2828 506
L 2828 1484
L 1394 1484
L 1394 506
L 2828 506
z
" transform="scale(0.015625)"/>
      <path id="ArialUnicodeMS-5019" d="M 1931 5216
Q 1819 4741 1644 4275
L 1453 3756
L 1453 -428
L 966 -428
L 966 2847
Q 850 2603 563 2259
L 128 2534
Q 1031 3600 1472 5394
L 1931 5216
z
M 5881 3566
L 2497 3566
L 2497 4031
L 4838 4031
L 4838 4575
L 2847 4575
L 2847 5044
L 5325 5044
L 5325 4031
L 5881 4031
L 5881 3566
z
M 2291 678
L 1831 678
L 1831 4184
L 2291 4184
L 2291 678
z
M 6131 -25
L 5797 -416
Q 4606 84 4269 1344
Q 4019 656 3658 289
Q 3297 -78 2522 -434
L 2194 -31
Q 3047 391 3340 700
Q 3634 1009 3763 1375
L 2497 1375
L 2497 1844
L 3878 1844
Q 3938 2128 3928 2584
L 3366 2584
Q 3113 2147 2828 1900
L 2369 2163
Q 2988 2638 3206 3513
L 3647 3391
Q 3622 3253 3553 3053
L 5472 3053
L 5472 2584
L 4422 2584
Q 4403 2113 4359 1844
L 5881 1844
L 5881 1375
L 4756 1375
Q 5119 359 6131 -25
z
" transform="scale(0.015625)"/>
      <path id="ArialUnicodeMS-9009" d="M 6028 366
L 5831 -153
L 2822 -153
Q 1966 -59 1403 428
L 544 -275
L 178 97
Q 622 359 1241 897
L 1241 2656
L 403 2656
L 403 3122
L 1728 3122
L 1728 769
Q 1872 588 2259 422
L 2272 434
L 2081 744
Q 2669 1016 2937 1397
Q 3206 1778 3231 2516
L 2216 2516
L 2216 2981
L 2375 2981
L 2375 3003
L 2081 3200
Q 2638 3778 2766 5081
L 3200 4947
Q 3181 4578 3122 4306
L 3725 4306
L 3725 5166
L 4213 5166
L 4213 4306
L 5234 4306
L 5234 3841
L 4213 3841
L 4213 2981
L 5716 2981
L 5716 2516
L 4641 2516
L 4641 1113
Q 4650 1084 4698 1057
Q 4747 1031 4756 1031
L 5281 1031
Q 5372 1031 5388 1131
L 5459 1600
L 5894 1409
Q 5759 563 5441 563
L 4556 563
Q 4428 563 4290 692
Q 4153 822 4153 941
L 4153 2516
L 3706 2516
Q 3706 1772 3397 1206
Q 3088 641 2522 391
Q 2719 313 3084 313
L 5350 313
Q 5769 313 6028 366
z
M 3725 2981
L 3725 3841
L 3009 3841
Q 2844 3297 2559 2981
L 3725 2981
z
M 1959 4122
Q 1694 3903 1544 3816
Q 1341 4378 722 4884
L 1119 5153
Q 1619 4750 1959 4122
z
" transform="scale(0.015625)"/>
     </defs>
     <use xlink:href="#ArialUnicodeMS-28"/>
     <use xlink:href="#ArialUnicodeMS-61" transform="translate(33.300781 0)"/>
     <use xlink:href="#ArialUnicodeMS-29" transform="translate(88.916016 0)"/>
     <use xlink:href="#ArialUnicodeMS-20" transform="translate(122.216797 0)"/>
     <use xlink:href="#ArialUnicodeMS-5efa" transform="translate(150 0)"/>
     <use xlink:href="#ArialUnicodeMS-56fe" transform="translate(250 0)"/>
     <use xlink:href="#ArialUnicodeMS-6210" transform="translate(350 0)"/>
     <use xlink:href="#ArialUnicodeMS-672c" transform="translate(450 0)"/>
     <use xlink:href="#ArialUnicodeMS-ff1a" transform="translate(550 0)"/>
     <use xlink:href="#ArialUnicodeMS-53ea" transform="translate(650 0)"/>
     <use xlink:href="#ArialUnicodeMS-6bd4" transform="translate(750 0)"/>
     <use xlink:href="#ArialUnicodeMS-8f83" transform="translate(850 0)"/>
     <use xlink:href="#ArialUnicodeMS-5c40" transform="translate(950 0)"/>
     <use xlink:href="#ArialUnicodeMS-90e8" transform="translate(1050 0)"/>
     <use xlink:href="#ArialUnicodeMS-5019" transform="translate(1150 0)"/>
     <use xlink:href="#ArialUnicodeMS-9009" transform="translate(1250 0)"/>
     <use xlink:href="#ArialUnicodeMS-8fb9" transform="translate(1350 0)"/>
    </g>
   </g>
   <g id="legend_1">
    <g id="patch_14">
     <path d="M 58.139375 96.260031
L 76.139375 96.260031
L 76.139375 89.960031
L 58.139375 89.960031
z
" style="fill: #c5cad3; stroke: #7a828f; stroke-linejoin: miter"/>
    </g>
    <g id="text_12">
     <!-- 全量图理论候选边 -->
     <g style="fill: #262626" transform="translate(83.339375 96.260031) scale(0.09 -0.09)">
      <defs>
       <path id="ArialUnicodeMS-5168" d="M 5984 2963
L 5703 2522
Q 5419 2628 4872 2869
L 4872 2613
L 3366 2613
L 3366 1728
L 4691 1728
L 4691 1259
L 3366 1259
L 3366 319
L 5678 319
L 5678 -147
L 603 -147
L 603 319
L 2881 319
L 2881 1259
L 1556 1259
L 1556 1728
L 2881 1728
L 2881 2613
L 1344 2613
L 1344 2841
Q 1250 2766 544 2491
L 256 2925
Q 2109 3556 3066 5141
L 3531 4928
L 3419 4738
Q 4144 3581 5984 2963
z
M 4603 3072
Q 3694 3488 3097 4313
Q 2572 3578 1703 3072
L 4603 3072
z
" transform="scale(0.015625)"/>
       <path id="ArialUnicodeMS-7406" d="M 6047 -103
L 2163 -103
L 2163 366
L 3853 366
L 3853 1094
L 2572 1094
L 2572 1563
L 3853 1563
L 3853 2163
L 2528 2163
L 2528 4959
L 5656 4959
L 5656 2163
L 4341 2163
L 4341 1563
L 5613 1563
L 5613 1094
L 4341 1094
L 4341 366
L 6047 366
L 6047 -103
z
M 5191 4494
L 4341 4494
L 4341 3822
L 5178 3822
L 5191 4494
z
M 3853 3822
L 3853 4494
L 3016 4494
L 3016 3822
L 3853 3822
z
M 5172 2631
L 5172 3353
L 4341 3353
L 4341 2631
L 5172 2631
z
M 3853 2631
L 3853 3353
L 3016 3353
L 3016 2631
L 3853 2631
z
M 2456 1153
L 647 409
L 225 794
Q 553 891 1191 1131
L 1191 2606
L 544 2606
L 544 3072
L 1191 3072
L 1191 4319
L 416 4319
L 416 4788
L 2400 4788
L 2400 4319
L 1678 4319
L 1678 3072
L 2309 3072
L 2309 2606
L 1678 2606
L 1678 1319
Q 2200 1538 2456 1631
L 2456 1153
z
" transform="scale(0.015625)"/>
       <path id="ArialUnicodeMS-8bba" d="M 6169 2809
L 5806 2406
Q 4478 3422 4006 4341
Q 3475 3256 2203 2356
L 1863 2741
Q 2438 3113 2852 3559
Q 3266 4006 3441 4301
Q 3616 4597 3909 5300
L 4353 5081
L 4244 4813
Q 4669 3881 6169 2809
z
M 1984 4244
L 1575 3909
Q 1247 4531 691 4922
L 1063 5241
Q 1563 4963 1984 4244
z
M 2463 519
L 1216 -122
L 991 275
Q 1050 322 1050 403
L 1050 2875
L 331 2875
L 331 3341
L 1528 3341
L 1528 550
L 2463 1031
L 2463 519
z
M 5959 775
Q 5719 -191 5313 -191
L 3603 -191
Q 2981 -191 2981 384
L 2981 2731
L 3463 2731
L 3463 1691
Q 4366 1950 5178 2656
L 5522 2291
Q 4625 1550 3463 1222
L 3463 416
Q 3463 250 3597 250
L 5147 250
Q 5278 250 5350 415
Q 5422 581 5484 1044
L 5959 775
z
" transform="scale(0.015625)"/>
      </defs>
      <use xlink:href="#ArialUnicodeMS-5168"/>
      <use xlink:href="#ArialUnicodeMS-91cf" transform="translate(100 0)"/>
      <use xlink:href="#ArialUnicodeMS-56fe" transform="translate(200 0)"/>
      <use xlink:href="#ArialUnicodeMS-7406" transform="translate(300 0)"/>
      <use xlink:href="#ArialUnicodeMS-8bba" transform="translate(400 0)"/>
      <use xlink:href="#ArialUnicodeMS-5019" transform="translate(500 0)"/>
      <use xlink:href="#ArialUnicodeMS-9009" transform="translate(600 0)"/>
      <use xlink:href="#ArialUnicodeMS-8fb9" transform="translate(700 0)"/>
     </g>
    </g>
    <g id="patch_15">
     <path d="M 58.139375 108.995031
L 76.139375 108.995031
L 76.139375 102.695031
L 58.139375 102.695031
z
" style="fill: #a3befa; stroke: #2e4780; stroke-linejoin: miter"/>
    </g>
    <g id="text_13">
     <!-- SAM-context 实际比较边 -->
     <g style="fill: #262626" transform="translate(83.339375 108.995031) scale(0.09 -0.09)">
      <defs>
       <path id="ArialUnicodeMS-4d" d="M 4844 0
L 4269 0
L 4269 3834
L 4256 3834
L 2938 0
L 2394 0
L 1081 3897
L 1063 3897
L 1063 0
L 488 0
L 488 4581
L 1394 4581
L 2478 1338
Q 2659 797 2688 659
L 2700 659
Q 2784 925 2944 1394
L 4038 4581
L 4844 4581
L 4844 0
z
" transform="scale(0.015625)"/>
       <path id="ArialUnicodeMS-2d" d="M 1925 1375
L 206 1375
L 206 1941
L 1925 1941
L 1925 1375
z
" transform="scale(0.015625)"/>
       <path id="ArialUnicodeMS-6e" d="M 3138 0
L 2572 0
L 2572 2016
Q 2572 2525 2389 2715
Q 2206 2906 1881 2906
Q 1631 2906 1407 2784
Q 1184 2663 1090 2441
Q 997 2219 997 1813
L 997 0
L 434 0
L 434 3316
L 941 3316
L 941 2847
L 953 2847
Q 1131 3119 1392 3255
Q 1653 3391 1997 3391
Q 2259 3391 2515 3297
Q 2772 3203 2917 3015
Q 3063 2828 3100 2615
Q 3138 2403 3138 2041
L 3138 0
z
" transform="scale(0.015625)"/>
       <path id="ArialUnicodeMS-78" d="M 3156 0
L 2463 0
L 1600 1313
L 728 0
L 44 0
L 1259 1728
L 141 3316
L 838 3316
Q 1519 2288 1581 2169
L 2394 3316
L 3066 3316
L 1919 1759
L 3156 0
z
" transform="scale(0.015625)"/>
       <path id="ArialUnicodeMS-5b9e" d="M 5791 3513
L 5306 3513
L 5306 4103
L 1063 4103
L 1063 3513
L 575 3513
L 575 4569
L 3144 4569
Q 2956 4859 2547 5094
L 2913 5325
Q 3375 5066 3591 4666
L 3384 4581
L 3384 4569
L 5791 4569
L 5791 3513
z
M 3122 3066
L 2741 2803
Q 2453 3331 1856 3731
L 2181 4006
Q 2759 3669 3122 3066
z
M 5894 1684
L 3634 1684
Q 3063 131 831 -366
L 469 72
Q 2528 400 3109 1684
L 469 1684
L 469 2150
L 3256 2150
Q 3366 2500 3366 3022
L 3366 3903
L 3847 3903
Q 3847 2459 3756 2150
L 5894 2150
L 5894 1684
z
M 2450 2478
L 2100 2188
Q 1769 2722 1191 3084
L 1503 3372
Q 2100 3031 2450 2478
z
M 5947 -13
L 5613 -391
Q 4900 422 3566 1006
L 3816 1363
Q 5075 866 5947 -13
z
" transform="scale(0.015625)"/>
       <path id="ArialUnicodeMS-9645" d="M 2484 4616
L 1753 3322
Q 2466 2447 2466 1838
Q 2466 1503 2236 1293
Q 2006 1084 1528 1084
Q 1431 1084 1313 1094
L 1131 1575
Q 1319 1566 1441 1566
Q 1888 1566 1959 1667
Q 2031 1769 2031 1853
Q 2031 2288 1203 3263
L 1913 4588
L 1056 4588
L 1056 -391
L 569 -391
L 569 5031
L 2484 5031
L 2484 4616
z
M 5588 4481
L 2631 4481
L 2631 4922
L 5588 4922
L 5588 4481
z
M 5778 2913
L 4319 2913
L 4319 141
Q 4319 -16 4220 -155
Q 4122 -294 3992 -337
Q 3863 -381 3550 -381
Q 3425 -381 3263 -372
L 3078 97
Q 3316 63 3719 63
Q 3834 63 3834 281
L 3834 2913
L 2241 2913
L 2241 3353
L 5778 3353
L 5778 2913
z
M 3616 2009
Q 3041 925 2119 306
L 1813 678
Q 2650 1191 3272 2278
L 3616 2009
z
M 6047 544
L 5663 256
Q 5156 1403 4409 1966
L 4769 2234
Q 5684 1472 6047 544
z
" transform="scale(0.015625)"/>
      </defs>
      <use xlink:href="#ArialUnicodeMS-53"/>
      <use xlink:href="#ArialUnicodeMS-41" transform="translate(66.699219 0)"/>
      <use xlink:href="#ArialUnicodeMS-4d" transform="translate(133.398438 0)"/>
      <use xlink:href="#ArialUnicodeMS-2d" transform="translate(216.699219 0)"/>
      <use xlink:href="#ArialUnicodeMS-63" transform="translate(250 0)"/>
      <use xlink:href="#ArialUnicodeMS-6f" transform="translate(300 0)"/>
      <use xlink:href="#ArialUnicodeMS-6e" transform="translate(355.615234 0)"/>
      <use xlink:href="#ArialUnicodeMS-74" transform="translate(411.230469 0)"/>
      <use xlink:href="#ArialUnicodeMS-65" transform="translate(439.013672 0)"/>
      <use xlink:href="#ArialUnicodeMS-78" transform="translate(494.628906 0)"/>
      <use xlink:href="#ArialUnicodeMS-74" transform="translate(544.628906 0)"/>
      <use xlink:href="#ArialUnicodeMS-20" transform="translate(572.412109 0)"/>
      <use xlink:href="#ArialUnicodeMS-5b9e" transform="translate(600.195312 0)"/>
      <use xlink:href="#ArialUnicodeMS-9645" transform="translate(700.195312 0)"/>
      <use xlink:href="#ArialUnicodeMS-6bd4" transform="translate(800.195312 0)"/>
      <use xlink:href="#ArialUnicodeMS-8f83" transform="translate(900.195312 0)"/>
      <use xlink:href="#ArialUnicodeMS-8fb9" transform="translate(1000.195312 0)"/>
     </g>
    </g>
    <g id="patch_16">
     <path d="M 58.139375 121.730031
L 76.139375 121.730031
L 76.139375 115.430031
L 58.139375 115.430031
z
" style="fill: #a3d576; stroke: #386411; stroke-linejoin: miter"/>
    </g>
    <g id="text_14">
     <!-- SAM-context 保留边 -->
     <g style="fill: #262626" transform="translate(83.339375 121.730031) scale(0.09 -0.09)">
      <defs>
       <path id="ArialUnicodeMS-4fdd" d="M 2125 5125
Q 2084 4753 1897 4197
L 1709 3653
L 1709 -469
L 1222 -469
L 1222 2803
Q 831 2284 581 2053
L 225 2400
Q 1444 3638 1684 5325
L 2125 5125
z
M 6175 366
L 5797 6
Q 4650 559 4122 1869
L 4122 -447
L 3634 -447
L 3634 1753
Q 3206 625 2100 -13
L 1741 359
Q 2656 794 3231 1972
L 1925 1972
L 1925 2438
L 3634 2438
L 3634 2950
L 2375 2950
L 2375 5019
L 5325 5019
L 5325 2950
L 4122 2950
L 4122 2438
L 5797 2438
L 5797 1972
L 4575 1972
Q 4928 988 6175 366
z
M 4838 3419
L 4838 4550
L 2859 4550
L 2859 3419
L 4838 3419
z
" transform="scale(0.015625)"/>
       <path id="ArialUnicodeMS-7559" d="M 5741 5019
Q 5666 3128 5442 2879
Q 5219 2631 4959 2631
Q 4856 2631 4331 2772
L 4275 3278
Q 4738 3097 4909 3097
Q 5153 3097 5184 3641
L 5241 4550
L 4391 4550
Q 4303 3022 3109 2547
L 2869 2847
L 2528 2688
Q 2475 2938 2431 3003
L 728 2559
L 481 3028
L 891 3116
L 891 4666
Q 2113 4803 2809 5234
L 3138 4897
Q 2259 4422 1369 4288
L 1369 3194
L 2297 3406
Q 2109 3738 1953 3884
L 2363 4091
Q 2756 3669 2963 3003
Q 3841 3400 3909 4550
L 3250 4550
L 3250 5019
L 5741 5019
z
M 5269 -403
L 4781 -403
L 4781 -25
L 1625 -25
L 1625 -434
L 1141 -434
L 1141 2463
L 5269 2463
L 5269 -403
z
M 4781 1472
L 4781 1997
L 3450 1997
L 3450 1472
L 4781 1472
z
M 2963 1472
L 2963 1997
L 1625 1997
L 1625 1472
L 2963 1472
z
M 4781 441
L 4781 1006
L 3450 1006
L 3450 441
L 4781 441
z
M 2963 441
L 2963 1006
L 1625 1006
L 1625 441
L 2963 441
z
" transform="scale(0.015625)"/>
      </defs>
      <use xlink:href="#ArialUnicodeMS-53"/>
      <use xlink:href="#ArialUnicodeMS-41" transform="translate(66.699219 0)"/>
      <use xlink:href="#ArialUnicodeMS-4d" transform="translate(133.398438 0)"/>
      <use xlink:href="#ArialUnicodeMS-2d" transform="translate(216.699219 0)"/>
      <use xlink:href="#ArialUnicodeMS-63" transform="translate(250 0)"/>
      <use xlink:href="#ArialUnicodeMS-6f" transform="translate(300 0)"/>
      <use xlink:href="#ArialUnicodeMS-6e" transform="translate(355.615234 0)"/>
      <use xlink:href="#ArialUnicodeMS-74" transform="translate(411.230469 0)"/>
      <use xlink:href="#ArialUnicodeMS-65" transform="translate(439.013672 0)"/>
      <use xlink:href="#ArialUnicodeMS-78" transform="translate(494.628906 0)"/>
      <use xlink:href="#ArialUnicodeMS-74" transform="translate(544.628906 0)"/>
      <use xlink:href="#ArialUnicodeMS-20" transform="translate(572.412109 0)"/>
      <use xlink:href="#ArialUnicodeMS-4fdd" transform="translate(600.195312 0)"/>
      <use xlink:href="#ArialUnicodeMS-7559" transform="translate(700.195312 0)"/>
      <use xlink:href="#ArialUnicodeMS-8fb9" transform="translate(800.195312 0)"/>
     </g>
    </g>
   </g>
  </g>
  <g id="axes_2">
   <g id="patch_17">
    <path d="M 553.315518 343.538
L 959.183375 343.538
L 959.183375 81.718
L 553.315518 81.718
z
" style="fill: #ffffff"/>
   </g>
   <g id="matplotlib.axis_3">
    <g id="xtick_4">
     <g id="text_15">
      <!-- HotpotQA -->
      <g style="fill: #1f2430" transform="translate(583.32075 361.045656) scale(0.11 -0.11)">
       <use xlink:href="#ArialUnicodeMS-48"/>
       <use xlink:href="#ArialUnicodeMS-6f" transform="translate(72.216797 0)"/>
       <use xlink:href="#ArialUnicodeMS-74" transform="translate(127.832031 0)"/>
       <use xlink:href="#ArialUnicodeMS-70" transform="translate(155.615234 0)"/>
       <use xlink:href="#ArialUnicodeMS-6f" transform="translate(211.230469 0)"/>
       <use xlink:href="#ArialUnicodeMS-74" transform="translate(266.845703 0)"/>
       <use xlink:href="#ArialUnicodeMS-51" transform="translate(294.628906 0)"/>
       <use xlink:href="#ArialUnicodeMS-41" transform="translate(372.412109 0)"/>
      </g>
     </g>
    </g>
    <g id="xtick_5">
     <g id="text_16">
      <!-- QASPER -->
      <g style="fill: #1f2430" transform="translate(733.324759 360.911594) scale(0.11 -0.11)">
       <use xlink:href="#ArialUnicodeMS-51"/>
       <use xlink:href="#ArialUnicodeMS-41" transform="translate(77.783203 0)"/>
       <use xlink:href="#ArialUnicodeMS-53" transform="translate(144.482422 0)"/>
       <use xlink:href="#ArialUnicodeMS-50" transform="translate(211.181641 0)"/>
       <use xlink:href="#ArialUnicodeMS-45" transform="translate(277.880859 0)"/>
       <use xlink:href="#ArialUnicodeMS-52" transform="translate(344.580078 0)"/>
      </g>
     </g>
    </g>
    <g id="xtick_6">
     <g id="text_17">
      <!-- LitSearch -->
      <g style="fill: #1f2430" transform="translate(881.793924 360.911594) scale(0.11 -0.11)">
       <use xlink:href="#ArialUnicodeMS-4c"/>
       <use xlink:href="#ArialUnicodeMS-69" transform="translate(55.615234 0)"/>
       <use xlink:href="#ArialUnicodeMS-74" transform="translate(77.832031 0)"/>
       <use xlink:href="#ArialUnicodeMS-53" transform="translate(105.615234 0)"/>
       <use xlink:href="#ArialUnicodeMS-65" transform="translate(172.314453 0)"/>
       <use xlink:href="#ArialUnicodeMS-61" transform="translate(227.929688 0)"/>
       <use xlink:href="#ArialUnicodeMS-72" transform="translate(283.544922 0)"/>
       <use xlink:href="#ArialUnicodeMS-63" transform="translate(316.845703 0)"/>
       <use xlink:href="#ArialUnicodeMS-68" transform="translate(366.845703 0)"/>
      </g>
     </g>
    </g>
   </g>
   <g id="matplotlib.axis_4">
    <g id="ytick_26">
     <g id="line2d_4">
      <path d="M 553.315518 319.736182
L 959.183375 319.736182
" clip-path="url(#p18c817c579)" style="fill: none; stroke-dasharray: 2.96,1.28; stroke-dashoffset: 0; stroke: #e6e8f0; stroke-width: 0.8"/>
     </g>
     <g id="text_18">
      <!-- 50 -->
      <g style="fill: #1f2430" transform="translate(531.581455 323.672979) scale(0.11 -0.11)">
       <use xlink:href="#ArialUnicodeMS-35"/>
       <use xlink:href="#ArialUnicodeMS-30" transform="translate(55.615234 0)"/>
      </g>
     </g>
    </g>
    <g id="ytick_27">
     <g id="line2d_5">
      <path d="M 553.315518 272.132545
L 959.183375 272.132545
" clip-path="url(#p18c817c579)" style="fill: none; stroke-dasharray: 2.96,1.28; stroke-dashoffset: 0; stroke: #e6e8f0; stroke-width: 0.8"/>
     </g>
     <g id="text_19">
      <!-- 60 -->
      <g style="fill: #1f2430" transform="translate(531.581455 276.069342) scale(0.11 -0.11)">
       <defs>
        <path id="ArialUnicodeMS-36" d="M 838 2363
Q 1225 2969 1941 2969
Q 2503 2969 2897 2553
Q 3291 2138 3291 1491
Q 3291 838 2898 380
Q 2506 -78 1856 -78
Q 1197 -78 733 409
Q 269 897 269 2144
Q 269 3369 689 3986
Q 1109 4603 1906 4603
Q 2422 4603 2778 4315
Q 3134 4028 3213 3463
L 2650 3413
Q 2497 4141 1875 4141
Q 1444 4141 1134 3712
Q 825 3284 825 2363
L 838 2363
z
M 1844 384
Q 2231 384 2472 696
Q 2713 1009 2713 1453
Q 2713 1897 2472 2187
Q 2231 2478 1825 2478
Q 1453 2478 1184 2204
Q 916 1931 916 1484
Q 916 1028 1180 706
Q 1444 384 1844 384
z
" transform="scale(0.015625)"/>
       </defs>
       <use xlink:href="#ArialUnicodeMS-36"/>
       <use xlink:href="#ArialUnicodeMS-30" transform="translate(55.615234 0)"/>
      </g>
     </g>
    </g>
    <g id="ytick_28">
     <g id="line2d_6">
      <path d="M 553.315518 224.528909
L 959.183375 224.528909
" clip-path="url(#p18c817c579)" style="fill: none; stroke-dasharray: 2.96,1.28; stroke-dashoffset: 0; stroke: #e6e8f0; stroke-width: 0.8"/>
     </g>
     <g id="text_20">
      <!-- 70 -->
      <g style="fill: #1f2430" transform="translate(531.581455 228.465706) scale(0.11 -0.11)">
       <defs>
        <path id="ArialUnicodeMS-37" d="M 3272 4084
Q 2597 3344 2103 2253
Q 1609 1163 1522 0
L 947 0
Q 969 934 1408 2051
Q 1847 3169 2547 3975
L 306 3975
L 306 4519
L 3272 4519
L 3272 4084
z
" transform="scale(0.015625)"/>
       </defs>
       <use xlink:href="#ArialUnicodeMS-37"/>
       <use xlink:href="#ArialUnicodeMS-30" transform="translate(55.615234 0)"/>
      </g>
     </g>
    </g>
    <g id="ytick_29">
     <g id="line2d_7">
      <path d="M 553.315518 176.925273
L 959.183375 176.925273
" clip-path="url(#p18c817c579)" style="fill: none; stroke-dasharray: 2.96,1.28; stroke-dashoffset: 0; stroke: #e6e8f0; stroke-width: 0.8"/>
     </g>
     <g id="text_21">
      <!-- 80 -->
      <g style="fill: #1f2430" transform="translate(531.581455 180.86207) scale(0.11 -0.11)">
       <defs>
        <path id="ArialUnicodeMS-38" d="M 2425 2478
Q 3284 2203 3284 1306
Q 3284 716 2862 319
Q 2441 -78 1778 -78
Q 1109 -78 689 322
Q 269 722 269 1325
Q 269 1759 505 2084
Q 741 2409 1141 2478
L 1141 2491
Q 453 2703 453 3419
Q 453 3925 815 4264
Q 1178 4603 1766 4603
Q 2363 4603 2730 4253
Q 3097 3903 3097 3406
Q 3097 2731 2425 2491
L 2425 2478
z
M 1778 2700
Q 2094 2700 2308 2901
Q 2522 3103 2522 3406
Q 2522 3716 2305 3928
Q 2088 4141 1772 4141
Q 1450 4141 1240 3931
Q 1031 3722 1031 3438
Q 1031 3097 1247 2898
Q 1463 2700 1778 2700
z
M 1778 384
Q 2175 384 2440 640
Q 2706 897 2706 1306
Q 2706 1716 2432 1978
Q 2159 2241 1766 2241
Q 1356 2241 1100 1970
Q 844 1700 844 1319
Q 844 922 1108 653
Q 1372 384 1778 384
z
" transform="scale(0.015625)"/>
       </defs>
       <use xlink:href="#ArialUnicodeMS-38"/>
       <use xlink:href="#ArialUnicodeMS-30" transform="translate(55.615234 0)"/>
      </g>
     </g>
    </g>
    <g id="ytick_30">
     <g id="line2d_8">
      <path d="M 553.315518 129.321636
L 959.183375 129.321636
" clip-path="url(#p18c817c579)" style="fill: none; stroke-dasharray: 2.96,1.28; stroke-dashoffset: 0; stroke: #e6e8f0; stroke-width: 0.8"/>
     </g>
     <g id="text_22">
      <!-- 90 -->
      <g style="fill: #1f2430" transform="translate(531.581455 133.258433) scale(0.11 -0.11)">
       <defs>
        <path id="ArialUnicodeMS-39" d="M 2713 2156
Q 2547 1888 2258 1722
Q 1969 1556 1631 1556
Q 1066 1556 670 1970
Q 275 2384 275 3053
Q 275 3734 678 4168
Q 1081 4603 1716 4603
Q 2353 4603 2818 4106
Q 3284 3609 3284 2388
Q 3284 1147 2859 534
Q 2434 -78 1644 -78
Q 1128 -78 781 205
Q 434 488 359 1063
L 897 1106
Q 1025 384 1656 384
Q 2175 384 2450 857
Q 2725 1331 2725 2156
L 2713 2156
z
M 1766 2047
Q 2178 2047 2420 2339
Q 2663 2631 2663 3078
Q 2663 3531 2414 3836
Q 2166 4141 1778 4141
Q 1388 4141 1119 3817
Q 850 3494 850 3034
Q 850 2600 1114 2323
Q 1378 2047 1766 2047
z
" transform="scale(0.015625)"/>
       </defs>
       <use xlink:href="#ArialUnicodeMS-39"/>
       <use xlink:href="#ArialUnicodeMS-30" transform="translate(55.615234 0)"/>
      </g>
     </g>
    </g>
    <g id="ytick_31">
     <g id="line2d_9">
      <path d="M 553.315518 81.718
L 959.183375 81.718
" clip-path="url(#p18c817c579)" style="fill: none; stroke-dasharray: 2.96,1.28; stroke-dashoffset: 0; stroke: #e6e8f0; stroke-width: 0.8"/>
     </g>
     <g id="text_23">
      <!-- 100 -->
      <g style="fill: #1f2430" transform="translate(525.464424 85.654797) scale(0.11 -0.11)">
       <use xlink:href="#ArialUnicodeMS-31"/>
       <use xlink:href="#ArialUnicodeMS-30" transform="translate(55.615234 0)"/>
       <use xlink:href="#ArialUnicodeMS-30" transform="translate(111.230469 0)"/>
      </g>
     </g>
    </g>
    <g id="text_24">
     <!-- Evidence recall (%) -->
     <g style="fill: #1f2430" transform="translate(518.944424 264.311437) rotate(-90) scale(0.12 -0.12)">
      <defs>
       <path id="ArialUnicodeMS-76" d="M 3122 3316
L 1869 0
L 1344 0
L 84 3316
L 678 3316
L 1363 1397
Q 1556 853 1594 659
L 1606 659
Q 1656 859 1778 1197
L 2547 3316
L 3122 3316
z
" transform="scale(0.015625)"/>
       <path id="ArialUnicodeMS-64" d="M 3109 0
L 2584 0
L 2584 422
L 2572 422
Q 2269 -78 1656 -78
Q 1047 -78 639 405
Q 231 888 231 1656
Q 231 2459 615 2925
Q 1000 3391 1631 3391
Q 2225 3391 2534 2938
L 2547 2938
L 2547 4581
L 3109 4581
L 3109 0
z
M 1716 384
Q 2084 384 2340 687
Q 2597 991 2597 1606
Q 2597 2213 2362 2572
Q 2128 2931 1691 2931
Q 1253 2931 1029 2579
Q 806 2228 806 1656
Q 806 1244 926 958
Q 1047 672 1262 528
Q 1478 384 1716 384
z
" transform="scale(0.015625)"/>
      </defs>
      <use xlink:href="#ArialUnicodeMS-45"/>
      <use xlink:href="#ArialUnicodeMS-76" transform="translate(66.699219 0)"/>
      <use xlink:href="#ArialUnicodeMS-69" transform="translate(116.699219 0)"/>
      <use xlink:href="#ArialUnicodeMS-64" transform="translate(138.916016 0)"/>
      <use xlink:href="#ArialUnicodeMS-65" transform="translate(194.53125 0)"/>
      <use xlink:href="#ArialUnicodeMS-6e" transform="translate(250.146484 0)"/>
      <use xlink:href="#ArialUnicodeMS-63" transform="translate(305.761719 0)"/>
      <use xlink:href="#ArialUnicodeMS-65" transform="translate(355.761719 0)"/>
      <use xlink:href="#ArialUnicodeMS-20" transform="translate(411.376953 0)"/>
      <use xlink:href="#ArialUnicodeMS-72" transform="translate(439.160156 0)"/>
      <use xlink:href="#ArialUnicodeMS-65" transform="translate(472.460938 0)"/>
      <use xlink:href="#ArialUnicodeMS-63" transform="translate(528.076172 0)"/>
      <use xlink:href="#ArialUnicodeMS-61" transform="translate(578.076172 0)"/>
      <use xlink:href="#ArialUnicodeMS-6c" transform="translate(633.691406 0)"/>
      <use xlink:href="#ArialUnicodeMS-6c" transform="translate(655.908203 0)"/>
      <use xlink:href="#ArialUnicodeMS-20" transform="translate(678.125 0)"/>
      <use xlink:href="#ArialUnicodeMS-28" transform="translate(705.908203 0)"/>
      <use xlink:href="#ArialUnicodeMS-25" transform="translate(739.208984 0)"/>
      <use xlink:href="#ArialUnicodeMS-29" transform="translate(828.125 0)"/>
     </g>
    </g>
   </g>
   <g id="patch_18">
    <path d="M 571.764057 557.754364
L 607.470906 557.754364
L 607.470906 137.255734
L 571.764057 137.255734
z
" clip-path="url(#p18c817c579)" style="fill: #c5cad3; stroke: #7a828f; stroke-linejoin: miter"/>
   </g>
   <g id="patch_19">
    <path d="M 720.542597 557.754364
L 756.249446 557.754364
L 756.249446 283.87065
L 720.542597 283.87065
z
" clip-path="url(#p18c817c579)" style="fill: #c5cad3; stroke: #7a828f; stroke-linejoin: miter"/>
   </g>
   <g id="patch_20">
    <path d="M 869.321137 557.754364
L 905.027986 557.754364
L 905.027986 183.725928
L 869.321137 183.725928
z
" clip-path="url(#p18c817c579)" style="fill: #c5cad3; stroke: #7a828f; stroke-linejoin: miter"/>
   </g>
   <g id="patch_21">
    <path d="M 607.470906 557.754364
L 643.177756 557.754364
L 643.177756 121.387538
L 607.470906 121.387538
z
" clip-path="url(#p18c817c579)" style="fill: #ffe15b; stroke: #736422; stroke-linejoin: miter"/>
   </g>
   <g id="patch_22">
    <path d="M 756.249446 557.754364
L 791.956296 557.754364
L 791.956296 244.744269
L 756.249446 244.744269
z
" clip-path="url(#p18c817c579)" style="fill: #ffe15b; stroke: #736422; stroke-linejoin: miter"/>
   </g>
   <g id="patch_23">
    <path d="M 905.027986 557.754364
L 940.734836 557.754364
L 940.734836 161.057553
L 905.027986 161.057553
z
" clip-path="url(#p18c817c579)" style="fill: #ffe15b; stroke: #736422; stroke-linejoin: miter"/>
   </g>
   <g id="line2d_10">
    <path d="M 589.617482 137.255734
L 625.324331 121.387538
" clip-path="url(#p18c817c579)" style="fill: none; stroke: #804126; stroke-width: 1.2; stroke-linecap: round"/>
   </g>
   <g id="line2d_11">
    <path d="M 738.396022 283.87065
L 774.102871 244.744269
" clip-path="url(#p18c817c579)" style="fill: none; stroke: #804126; stroke-width: 1.2; stroke-linecap: round"/>
   </g>
   <g id="line2d_12">
    <path d="M 887.174562 183.725928
L 922.881411 161.057553
" clip-path="url(#p18c817c579)" style="fill: none; stroke: #804126; stroke-width: 1.2; stroke-linecap: round"/>
   </g>
   <g id="patch_24">
    <path d="M 553.315518 343.538
L 553.315518 81.718
" style="fill: none; stroke: #d7dbe7; stroke-width: 1.25; stroke-linejoin: miter; stroke-linecap: square"/>
   </g>
   <g id="patch_25">
    <path d="M 553.315518 343.538
L 959.183375 343.538
" style="fill: none; stroke: #d7dbe7; stroke-width: 1.25; stroke-linejoin: miter; stroke-linecap: square"/>
   </g>
   <g id="text_25">
    <!-- +3.3 pp -->
    <g style="fill: #804126" transform="translate(610.18605 113.882133) scale(0.09 -0.09)">
     <defs>
      <path id="ArialUnicodeMS-2b" d="M 3384 1997
L 2131 1997
L 2131 744
L 1606 744
L 1606 1997
L 353 1997
L 353 2522
L 1606 2522
L 1606 3775
L 2131 3775
L 2131 2522
L 3384 2522
L 3384 1997
z
" transform="scale(0.015625)"/>
     </defs>
     <use xlink:href="#ArialUnicodeMS-2b"/>
     <use xlink:href="#ArialUnicodeMS-33" transform="translate(58.398438 0)"/>
     <use xlink:href="#ArialUnicodeMS-2e" transform="translate(114.013672 0)"/>
     <use xlink:href="#ArialUnicodeMS-33" transform="translate(141.796875 0)"/>
     <use xlink:href="#ArialUnicodeMS-20" transform="translate(197.412109 0)"/>
     <use xlink:href="#ArialUnicodeMS-70" transform="translate(225.195312 0)"/>
     <use xlink:href="#ArialUnicodeMS-70" transform="translate(280.810547 0)"/>
    </g>
   </g>
   <g id="text_26">
    <!-- +8.2 pp -->
    <g style="fill: #804126" transform="translate(758.96459 237.238864) scale(0.09 -0.09)">
     <defs>
      <path id="ArialUnicodeMS-32" d="M 3231 0
L 197 0
Q 197 388 467 784
Q 738 1181 1478 1778
Q 1931 2141 2287 2539
Q 2644 2938 2644 3341
Q 2644 3688 2398 3914
Q 2153 4141 1778 4141
Q 1400 4141 1144 3908
Q 888 3675 884 3213
L 306 3278
Q 359 3922 764 4262
Q 1169 4603 1791 4603
Q 2466 4603 2842 4229
Q 3219 3856 3219 3328
Q 3219 2888 2901 2436
Q 2584 1984 1638 1228
Q 1141 831 978 544
L 3231 544
L 3231 0
z
" transform="scale(0.015625)"/>
     </defs>
     <use xlink:href="#ArialUnicodeMS-2b"/>
     <use xlink:href="#ArialUnicodeMS-38" transform="translate(58.398438 0)"/>
     <use xlink:href="#ArialUnicodeMS-2e" transform="translate(114.013672 0)"/>
     <use xlink:href="#ArialUnicodeMS-32" transform="translate(141.796875 0)"/>
     <use xlink:href="#ArialUnicodeMS-20" transform="translate(197.412109 0)"/>
     <use xlink:href="#ArialUnicodeMS-70" transform="translate(225.195312 0)"/>
     <use xlink:href="#ArialUnicodeMS-70" transform="translate(280.810547 0)"/>
    </g>
   </g>
   <g id="text_27">
    <!-- +4.8 pp -->
    <g style="fill: #804126" transform="translate(907.74313 153.552148) scale(0.09 -0.09)">
     <use xlink:href="#ArialUnicodeMS-2b"/>
     <use xlink:href="#ArialUnicodeMS-34" transform="translate(58.398438 0)"/>
     <use xlink:href="#ArialUnicodeMS-2e" transform="translate(114.013672 0)"/>
     <use xlink:href="#ArialUnicodeMS-38" transform="translate(141.796875 0)"/>
     <use xlink:href="#ArialUnicodeMS-20" transform="translate(197.412109 0)"/>
     <use xlink:href="#ArialUnicodeMS-70" transform="translate(225.195312 0)"/>
     <use xlink:href="#ArialUnicodeMS-70" transform="translate(280.810547 0)"/>
    </g>
   </g>
   <g id="text_28">
    <!-- (b) 检索效果：局部图补回遗漏证据 -->
    <g style="fill: #262626" transform="translate(553.315518 75.718) scale(0.12 -0.12)">
     <defs>
      <path id="ArialUnicodeMS-62" d="M 1006 2944
Q 1319 3391 1900 3391
Q 2541 3391 2925 2925
Q 3309 2459 3309 1709
Q 3309 844 2879 383
Q 2450 -78 1875 -78
Q 1291 -78 966 416
L 953 416
L 953 0
L 428 0
L 428 4581
L 991 4581
L 991 2944
L 1006 2944
z
M 1831 384
Q 2222 384 2476 720
Q 2731 1056 2731 1663
Q 2731 2247 2497 2589
Q 2263 2931 1850 2931
Q 1444 2931 1195 2578
Q 947 2225 947 1684
Q 947 1156 1050 932
Q 1153 709 1361 546
Q 1569 384 1831 384
z
" transform="scale(0.015625)"/>
      <path id="ArialUnicodeMS-68c0" d="M 5978 2988
L 5613 2656
Q 5419 2775 5075 3097
L 5075 2809
L 2894 2809
L 2894 3047
Q 2678 2850 2356 2644
L 2088 3016
Q 3509 3981 3803 5325
L 4213 5209
Q 4197 5091 4166 5006
Q 4831 3741 5978 2988
z
M 4941 3250
Q 4497 3600 3988 4469
Q 3609 3722 3116 3250
L 4941 3250
z
M 2584 3513
L 1778 3513
L 1778 2828
L 1947 2925
Q 2284 2559 2547 1856
L 2156 1638
Q 1938 2288 1791 2509
L 1778 2509
L 1778 -384
L 1319 -384
L 1319 2272
L 1306 2272
Q 947 1316 500 856
L 153 1178
Q 984 2138 1281 3513
L 359 3513
L 359 3956
L 1319 3956
L 1319 5300
L 1778 5300
L 1778 3956
L 2584 3956
L 2584 3513
z
M 4397 1253
L 3975 1056
Q 3822 1719 3244 2444
L 3609 2650
Q 4131 2072 4397 1253
z
M 5875 -147
L 2059 -147
L 2059 294
L 4019 294
Q 4569 1084 4991 2625
L 5441 2450
Q 5106 1200 4569 294
L 5875 294
L 5875 -147
z
M 3769 691
L 3316 475
Q 3013 1491 2559 2053
L 2944 2266
Q 3509 1581 3769 691
z
" transform="scale(0.015625)"/>
      <path id="ArialUnicodeMS-7d22" d="M 5784 1159
L 5369 844
L 5131 1166
L 3481 1166
L 3481 -441
L 2975 -441
L 2975 1166
L 819 1166
L 763 1619
L 1931 1619
L 2241 1791
L 1288 2509
L 1644 2853
L 1881 2688
Q 2316 3022 2638 3391
L 1153 3391
L 1153 2713
L 666 2713
L 666 3866
L 2969 3866
L 2969 4319
L 984 4319
L 984 4788
L 2969 4788
L 2969 5344
L 3475 5344
L 3475 4788
L 5478 4788
L 5478 4319
L 3475 4319
L 3475 3866
L 5772 3866
L 5772 2747
L 5269 2747
L 5269 3391
L 2994 3391
L 3200 3225
Q 2747 2753 2241 2388
L 2663 2069
Q 3525 2666 4153 3238
L 4581 2913
Q 3416 1972 2747 1619
L 4763 1619
Q 4288 2019 4225 2053
L 4653 2316
Q 5381 1766 5784 1159
z
M 2547 763
Q 1781 159 716 -134
L 416 313
Q 1519 544 2234 1094
L 2547 763
z
M 6053 275
L 5778 -134
Q 5066 422 3859 678
L 4213 1081
Q 5066 900 6053 275
z
" transform="scale(0.015625)"/>
      <path id="ArialUnicodeMS-6548" d="M 6119 -38
L 5747 -409
Q 5044 116 4609 756
Q 4109 116 3384 -403
L 3009 -63
Q 3956 584 4341 1197
Q 4041 1756 3866 2534
Q 3672 2144 3450 1850
L 3022 2081
Q 3528 2766 3722 3500
Q 3916 4234 3916 5338
L 4366 5259
Q 4384 4781 4306 4072
L 5953 4072
L 5953 3603
L 5569 3603
Q 5491 2219 4884 1184
Q 5456 391 6119 -38
z
M 5063 3603
L 4231 3603
L 4166 3322
Q 4375 2238 4628 1716
Q 5025 2469 5063 3603
z
M 3359 3878
L 569 3878
L 569 4347
L 1753 4347
L 1753 5184
L 2253 5184
L 2253 4347
L 3359 4347
L 3359 3878
z
M 1656 3641
Q 1409 2850 775 2419
L 384 2719
Q 953 3006 1234 3803
L 1656 3641
z
M 3366 2803
L 2969 2553
Q 2688 3184 2150 3547
L 2559 3794
Q 3134 3359 3366 2803
z
M 3278 628
L 2888 281
Q 2581 716 2234 1063
Q 1747 269 769 -306
L 469 103
Q 1353 613 1869 1416
Q 1272 2016 984 2163
L 1344 2456
Q 1422 2409 2113 1838
Q 2219 2069 2375 2650
L 2797 2456
Q 2691 1897 2491 1503
Q 2981 1028 3278 628
z
" transform="scale(0.015625)"/>
      <path id="ArialUnicodeMS-679c" d="M 6144 331
L 5850 -78
Q 4253 453 3456 1538
L 3456 -428
L 2963 -416
L 2963 1522
Q 2291 447 641 -91
L 306 300
Q 1672 672 2413 1528
L 609 1528
L 609 1997
L 2969 1997
L 2969 2450
L 1241 2450
L 1241 5044
L 5197 5044
L 5197 2450
L 3456 2450
L 3456 1997
L 5813 1997
L 5813 1528
L 4063 1528
Q 4731 747 6144 331
z
M 4709 3981
L 4709 4575
L 3456 4575
L 3456 3981
L 4709 3981
z
M 2969 3981
L 2969 4575
L 1728 4575
L 1728 3981
L 2969 3981
z
M 4709 2919
L 4709 3513
L 3456 3513
L 3456 2919
L 4709 2919
z
M 2969 2919
L 2969 3513
L 1728 3513
L 1728 2919
L 2969 2919
z
" transform="scale(0.015625)"/>
      <path id="ArialUnicodeMS-8865" d="M 2259 4513
L 1869 4191
Q 1538 4716 1025 5088
L 1369 5394
Q 1819 5109 2259 4513
z
M 6106 1894
L 5697 1556
Q 5250 2394 4447 3022
L 4447 -441
L 3963 -441
L 3963 5259
L 4447 5259
L 4447 3406
L 4581 3513
Q 5603 2825 6106 1894
z
M 3213 2741
Q 2909 2363 2578 2088
Q 2913 1834 3206 1363
L 2828 1050
Q 2453 1641 2069 1906
L 2069 -441
L 1581 -441
L 1581 1838
Q 1231 1475 588 1094
L 256 1491
Q 1644 2200 2047 3584
L 513 3584
L 513 4050
L 2694 4050
Q 2538 3150 2069 2456
L 2069 2419
L 2156 2369
Q 2456 2572 2847 3059
L 3213 2741
z
" transform="scale(0.015625)"/>
      <path id="ArialUnicodeMS-56de" d="M 5575 -134
L 5088 -147
L 5088 313
L 1313 313
L 1313 -191
L 825 -191
L 825 4825
L 5575 4825
L 5575 -134
z
M 5088 794
L 5088 4366
L 1313 4366
L 1313 794
L 5088 794
z
M 4378 1509
L 1997 1509
L 1997 3653
L 4378 3653
L 4378 1509
z
M 3891 1972
L 3891 3194
L 2484 3194
L 2484 1972
L 3891 1972
z
" transform="scale(0.015625)"/>
      <path id="ArialUnicodeMS-9057" d="M 5869 3097
L 1766 3097
L 1766 3566
L 3513 3566
L 3513 3750
L 2303 3750
L 2303 4850
L 3513 4850
L 3513 5247
L 3994 5247
L 3994 4850
L 5203 4850
L 5203 3750
L 3994 3750
L 3994 3566
L 5869 3566
L 5869 3097
z
M 4722 4191
L 4722 4384
L 4006 4384
L 4000 4191
L 4722 4191
z
M 3513 4191
L 3513 4384
L 2784 4384
L 2784 4191
L 3513 4191
z
M 1875 3969
L 1447 3634
Q 1250 4250 563 4763
L 934 5044
Q 1566 4619 1875 3969
z
M 6100 300
L 5850 -191
L 2681 -191
Q 1859 -191 1388 306
L 709 -378
L 313 -50
Q 663 272 1147 744
L 1147 2559
L 422 2559
L 422 3028
L 1625 3028
L 1625 666
Q 2116 250 2747 250
L 5522 250
L 6100 300
z
M 5253 1356
L 4756 1356
L 4756 2425
L 2847 2425
L 2847 1241
L 2369 1241
L 2369 2894
L 5253 2894
L 5253 1356
z
M 4056 2259
Q 4056 1838 3968 1600
Q 3881 1363 3670 1109
Q 3459 856 3211 704
Q 2963 553 2431 397
L 2009 856
Q 3644 1113 3597 2316
L 4056 2259
z
M 5416 872
L 5113 397
Q 4653 931 3872 1069
L 4109 1484
Q 4944 1325 5416 872
z
" transform="scale(0.015625)"/>
      <path id="ArialUnicodeMS-6f0f" d="M 1894 4172
L 1538 3866
Q 1191 4459 609 4794
L 953 5119
Q 1534 4744 1894 4172
z
M 6119 2931
L 4391 2931
L 4391 2541
L 5791 2541
L 5791 122
Q 5769 -122 5611 -234
Q 5453 -347 5350 -347
L 4800 -347
L 4622 159
Q 4950 97 5144 97
Q 5313 97 5313 238
L 5313 556
L 5094 256
Q 4709 713 4391 844
L 4391 -147
L 3909 -147
L 3909 469
L 3719 238
Q 3397 616 3041 794
L 3041 -428
L 2559 -428
L 2559 2541
L 3916 2541
L 3916 2931
L 2406 2931
L 2406 1747
Q 2406 475 1631 -416
L 1153 -197
Q 1925 713 1925 1900
L 1925 5050
L 5741 5050
L 5741 3738
L 2406 3738
L 2406 3397
L 6119 3397
L 6119 2931
z
M 5259 4206
L 5259 4581
L 2406 4581
L 2406 4206
L 5259 4206
z
M 5313 1472
L 5313 2075
L 4391 2075
L 4391 1797
L 4569 2028
Q 5141 1738 5313 1472
z
M 3909 1528
L 3909 2075
L 3041 2075
L 3041 1784
L 3238 2034
Q 3678 1781 3909 1528
z
M 5313 647
L 5313 1356
L 5094 1106
Q 4613 1563 4391 1656
L 4391 903
L 4588 1222
Q 5025 988 5313 647
z
M 3909 672
L 3909 1259
L 3719 1088
Q 3403 1469 3041 1650
L 3041 897
L 3231 1153
Q 3572 1019 3909 672
z
M 1644 2925
L 1300 2631
Q 844 3269 294 3597
L 647 3938
Q 1150 3641 1644 2925
z
M 1631 2241
Q 1516 803 819 -294
L 397 -63
Q 1028 881 1172 2363
L 1631 2241
z
" transform="scale(0.015625)"/>
      <path id="ArialUnicodeMS-8bc1" d="M 1856 4306
L 1466 3938
Q 1075 4469 569 4763
L 922 5100
Q 1478 4747 1856 4306
z
M 6003 -141
L 1919 -141
L 1919 325
L 2700 325
L 2700 3353
L 3188 3353
L 3188 325
L 4006 325
L 4006 4409
L 2309 4409
L 2309 4878
L 5819 4878
L 5819 4409
L 4494 4409
L 4494 2822
L 5631 2822
L 5631 2356
L 4494 2356
L 4494 325
L 6003 325
L 6003 -141
z
M 2431 838
L 1313 178
L 1025 563
Q 1113 659 1113 800
L 1113 2859
L 378 2859
L 378 3341
L 1606 3341
L 1606 916
L 2431 1375
L 2431 838
z
" transform="scale(0.015625)"/>
      <path id="ArialUnicodeMS-636e" d="M 2322 2316
L 1784 2081
L 1784 147
Q 1722 -331 1100 -341
L 647 -347
L 475 172
L 1100 147
Q 1300 138 1300 469
L 1300 1850
L 628 1569
L 238 1966
L 1300 2388
L 1300 3659
L 378 3659
L 378 4128
L 1300 4128
L 1300 5363
L 1784 5363
L 1784 4128
L 2322 4128
L 2322 3659
L 1784 3659
L 1784 2572
L 2322 2809
L 2322 2316
z
M 5709 3531
L 2869 3531
L 2869 1403
Q 2869 428 2156 -347
L 1759 -50
Q 2381 634 2381 1684
L 2381 5100
L 5709 5100
L 5709 3531
z
M 5222 4019
L 5222 4634
L 2869 4634
L 2869 4019
L 5222 4019
z
M 6034 2381
L 4628 2381
L 4628 1722
L 5672 1722
L 5672 -347
L 5184 -347
L 5184 25
L 3609 25
L 3609 -347
L 3122 -347
L 3122 1722
L 4122 1722
L 4122 2381
L 2931 2381
L 2931 2847
L 4122 2847
L 4122 3456
L 4628 3456
L 4628 2847
L 6034 2847
L 6034 2381
z
M 5184 494
L 5184 1253
L 3609 1253
L 3609 494
L 5184 494
z
" transform="scale(0.015625)"/>
     </defs>
     <use xlink:href="#ArialUnicodeMS-28"/>
     <use xlink:href="#ArialUnicodeMS-62" transform="translate(33.300781 0)"/>
     <use xlink:href="#ArialUnicodeMS-29" transform="translate(88.916016 0)"/>
     <use xlink:href="#ArialUnicodeMS-20" transform="translate(122.216797 0)"/>
     <use xlink:href="#ArialUnicodeMS-68c0" transform="translate(150 0)"/>
     <use xlink:href="#ArialUnicodeMS-7d22" transform="translate(250 0)"/>
     <use xlink:href="#ArialUnicodeMS-6548" transform="translate(350 0)"/>
     <use xlink:href="#ArialUnicodeMS-679c" transform="translate(450 0)"/>
     <use xlink:href="#ArialUnicodeMS-ff1a" transform="translate(550 0)"/>
     <use xlink:href="#ArialUnicodeMS-5c40" transform="translate(650 0)"/>
     <use xlink:href="#ArialUnicodeMS-90e8" transform="translate(750 0)"/>
     <use xlink:href="#ArialUnicodeMS-56fe" transform="translate(850 0)"/>
     <use xlink:href="#ArialUnicodeMS-8865" transform="translate(950 0)"/>
     <use xlink:href="#ArialUnicodeMS-56de" transform="translate(1050 0)"/>
     <use xlink:href="#ArialUnicodeMS-9057" transform="translate(1150 0)"/>
     <use xlink:href="#ArialUnicodeMS-6f0f" transform="translate(1250 0)"/>
     <use xlink:href="#ArialUnicodeMS-8bc1" transform="translate(1350 0)"/>
     <use xlink:href="#ArialUnicodeMS-636e" transform="translate(1450 0)"/>
    </g>
   </g>
   <g id="legend_2">
    <g id="patch_26">
     <path d="M 561.415518 96.260031
L 579.415518 96.260031
L 579.415518 89.960031
L 561.415518 89.960031
z
" style="fill: #c5cad3; stroke: #7a828f; stroke-linejoin: miter"/>
    </g>
    <g id="text_29">
     <!-- Embedding Top-k -->
     <g style="fill: #262626" transform="translate(586.615518 96.260031) scale(0.09 -0.09)">
      <defs>
       <path id="ArialUnicodeMS-6d" d="M 4922 0
L 4359 0
L 4359 2094
Q 4359 2325 4328 2489
Q 4297 2653 4167 2779
Q 4038 2906 3763 2906
Q 3431 2906 3190 2675
Q 2950 2444 2950 1925
L 2950 0
L 2388 0
L 2388 2156
Q 2388 2588 2236 2747
Q 2084 2906 1806 2906
Q 1444 2906 1211 2656
Q 978 2406 978 1722
L 978 0
L 416 0
L 416 3316
L 922 3316
L 922 2853
L 934 2853
Q 1272 3391 1925 3391
Q 2291 3391 2527 3245
Q 2763 3100 2869 2809
Q 3238 3391 3891 3391
Q 4406 3391 4664 3112
Q 4922 2834 4922 2278
L 4922 0
z
" transform="scale(0.015625)"/>
       <path id="ArialUnicodeMS-54" d="M 3769 4038
L 2253 4038
L 2253 0
L 1644 0
L 1644 4038
L 141 4038
L 141 4581
L 3769 4581
L 3769 4038
z
" transform="scale(0.015625)"/>
       <path id="ArialUnicodeMS-6b" d="M 3175 0
L 2484 0
L 1381 1697
L 984 1319
L 984 0
L 422 0
L 422 4581
L 984 4581
L 984 1972
L 2316 3316
L 3047 3316
L 1778 2088
L 3175 0
z
" transform="scale(0.015625)"/>
      </defs>
      <use xlink:href="#ArialUnicodeMS-45"/>
      <use xlink:href="#ArialUnicodeMS-6d" transform="translate(66.699219 0)"/>
      <use xlink:href="#ArialUnicodeMS-62" transform="translate(150 0)"/>
      <use xlink:href="#ArialUnicodeMS-65" transform="translate(205.615234 0)"/>
      <use xlink:href="#ArialUnicodeMS-64" transform="translate(261.230469 0)"/>
      <use xlink:href="#ArialUnicodeMS-64" transform="translate(316.845703 0)"/>
      <use xlink:href="#ArialUnicodeMS-69" transform="translate(372.460938 0)"/>
      <use xlink:href="#ArialUnicodeMS-6e" transform="translate(394.677734 0)"/>
      <use xlink:href="#ArialUnicodeMS-67" transform="translate(450.292969 0)"/>
      <use xlink:href="#ArialUnicodeMS-20" transform="translate(505.908203 0)"/>
      <use xlink:href="#ArialUnicodeMS-54" transform="translate(533.691406 0)"/>
      <use xlink:href="#ArialUnicodeMS-6f" transform="translate(594.775391 0)"/>
      <use xlink:href="#ArialUnicodeMS-70" transform="translate(650.390625 0)"/>
      <use xlink:href="#ArialUnicodeMS-2d" transform="translate(706.005859 0)"/>
      <use xlink:href="#ArialUnicodeMS-6b" transform="translate(739.306641 0)"/>
     </g>
    </g>
    <g id="patch_27">
     <path d="M 561.415518 109.092062
L 579.415518 109.092062
L 579.415518 102.792062
L 561.415518 102.792062
z
" style="fill: #ffe15b; stroke: #736422; stroke-linejoin: miter"/>
    </g>
    <g id="text_30">
     <!-- SAM-context 补证据后 -->
     <g style="fill: #262626" transform="translate(586.615518 109.092062) scale(0.09 -0.09)">
      <defs>
       <path id="ArialUnicodeMS-540e" d="M 5925 3138
L 1631 3138
L 1631 1850
Q 1631 747 709 -384
L 281 -56
Q 1147 881 1147 1869
L 1147 4666
Q 3191 4666 5275 5403
L 5613 5025
Q 3828 4219 1631 4178
L 1631 3603
L 5925 3603
L 5925 3138
z
M 5388 -409
L 4903 -409
L 4903 97
L 2644 97
L 2644 -409
L 2156 -409
L 2156 2338
L 5388 2338
L 5388 -409
z
M 4903 563
L 4903 1869
L 2644 1869
L 2644 563
L 4903 563
z
" transform="scale(0.015625)"/>
      </defs>
      <use xlink:href="#ArialUnicodeMS-53"/>
      <use xlink:href="#ArialUnicodeMS-41" transform="translate(66.699219 0)"/>
      <use xlink:href="#ArialUnicodeMS-4d" transform="translate(133.398438 0)"/>
      <use xlink:href="#ArialUnicodeMS-2d" transform="translate(216.699219 0)"/>
      <use xlink:href="#ArialUnicodeMS-63" transform="translate(250 0)"/>
      <use xlink:href="#ArialUnicodeMS-6f" transform="translate(300 0)"/>
      <use xlink:href="#ArialUnicodeMS-6e" transform="translate(355.615234 0)"/>
      <use xlink:href="#ArialUnicodeMS-74" transform="translate(411.230469 0)"/>
      <use xlink:href="#ArialUnicodeMS-65" transform="translate(439.013672 0)"/>
      <use xlink:href="#ArialUnicodeMS-78" transform="translate(494.628906 0)"/>
      <use xlink:href="#ArialUnicodeMS-74" transform="translate(544.628906 0)"/>
      <use xlink:href="#ArialUnicodeMS-20" transform="translate(572.412109 0)"/>
      <use xlink:href="#ArialUnicodeMS-8865" transform="translate(600.195312 0)"/>
      <use xlink:href="#ArialUnicodeMS-8bc1" transform="translate(700.195312 0)"/>
      <use xlink:href="#ArialUnicodeMS-636e" transform="translate(800.195312 0)"/>
      <use xlink:href="#ArialUnicodeMS-540e" transform="translate(900.195312 0)"/>
     </g>
    </g>
   </g>
  </g>
  <g id="text_31">
   <!-- Figure: SAM 按需建图的成本-效果分析 -->
   <g style="fill: #1f2430" transform="translate(10.295375 19.769531) scale(0.15 -0.15)">
    <defs>
     <path id="ArialUnicodeMS-46" d="M 3603 4038
L 1119 4038
L 1119 2619
L 3272 2619
L 3272 2075
L 1119 2075
L 1119 0
L 513 0
L 513 4581
L 3603 4581
L 3603 4038
z
" transform="scale(0.015625)"/>
     <path id="ArialUnicodeMS-75" d="M 3116 0
L 2613 0
L 2613 488
L 2597 488
Q 2216 -78 1556 -78
Q 1209 -78 914 83
Q 619 244 520 526
Q 422 809 422 1259
L 422 3316
L 984 3316
L 984 1478
Q 984 1038 1026 847
Q 1069 656 1247 532
Q 1425 409 1672 409
Q 1991 409 2272 629
Q 2553 850 2553 1544
L 2553 3316
L 3116 3316
L 3116 0
z
" transform="scale(0.015625)"/>
     <path id="ArialUnicodeMS-3a" d="M 1216 2675
L 575 2675
L 575 3316
L 1216 3316
L 1216 2675
z
M 1216 0
L 575 0
L 575 641
L 1216 641
L 1216 0
z
" transform="scale(0.015625)"/>
     <path id="ArialUnicodeMS-6309" d="M 2400 2169
L 1806 1856
L 1806 231
Q 1806 -422 1131 -422
Q 866 -422 781 -428
L 603 63
L 1147 25
Q 1319 16 1319 178
L 1319 1650
L 769 1381
L 366 1741
Q 909 1953 1319 2150
L 1319 3566
L 488 3566
L 488 4031
L 1319 4031
L 1319 5325
L 1806 5325
L 1806 4031
L 2400 4031
L 2400 3566
L 1806 3566
L 1806 2388
Q 2025 2494 2400 2656
L 2400 2169
z
M 5869 3341
L 5394 3341
L 5394 4084
L 2963 4084
L 2963 3341
L 2491 3341
L 2491 4544
L 3922 4544
L 3922 5313
L 4422 5313
L 4422 4544
L 5869 4544
L 5869 3341
z
M 6069 13
L 5684 -378
Q 4919 234 4213 550
Q 3369 -106 2291 -384
L 1919 31
Q 3072 306 3681 756
Q 3313 903 2572 1031
Q 2931 1650 3244 2328
L 2438 2328
L 2438 2797
L 3450 2797
Q 3653 3306 3763 3884
L 4256 3775
Q 4172 3394 3963 2797
L 5991 2797
L 5991 2328
L 5275 2328
Q 4994 1359 4569 916
Q 5272 588 6069 13
z
M 4763 2328
L 3781 2328
L 3291 1350
Q 3625 1259 4084 1106
Q 4569 1581 4763 2328
z
" transform="scale(0.015625)"/>
     <path id="ArialUnicodeMS-9700" d="M 5819 3347
L 5350 3347
L 5350 3853
L 3469 3853
L 3469 2400
L 2981 2400
L 2981 3853
L 1106 3853
L 1106 3309
L 653 3309
L 653 4288
L 2981 4288
L 2981 4569
L 966 4569
L 966 5038
L 5459 5038
L 5459 4569
L 3469 4569
L 3469 4288
L 5819 4288
L 5819 3347
z
M 5159 3256
L 3738 3256
L 3738 3653
L 5159 3653
L 5159 3256
z
M 2694 3231
L 1269 3231
L 1269 3622
L 2694 3622
L 2694 3231
z
M 5159 2572
L 3738 2572
L 3738 2963
L 5159 2963
L 5159 2572
z
M 2694 2572
L 1269 2572
L 1269 2963
L 2694 2963
L 2694 2572
z
M 5953 1888
L 3438 1888
Q 3353 1609 3284 1459
L 5478 1459
L 5478 109
Q 5478 -316 4903 -325
L 4513 -331
L 4353 134
L 4763 116
Q 4991 106 4991 269
L 4991 1006
L 4122 1006
L 4122 -103
L 3634 -103
L 3634 1006
L 2803 1006
L 2803 -103
L 2350 -103
L 2350 1006
L 1422 1006
L 1422 -447
L 966 -447
L 966 1459
L 2766 1459
Q 2847 1575 2963 1888
L 506 1888
L 506 2322
L 5953 2322
L 5953 1888
z
" transform="scale(0.015625)"/>
     <path id="ArialUnicodeMS-7684" d="M 5644 4281
Q 5619 1694 5395 673
Q 5172 -347 4606 -347
Q 4350 -347 3609 -134
L 3525 403
Q 4247 134 4531 134
Q 4806 134 4976 1142
Q 5147 2150 5159 3841
L 3794 3841
Q 3550 3166 3053 2497
L 2719 2713
L 2719 -147
L 2216 -147
L 2216 269
L 1153 269
L 1153 -250
L 647 -250
L 647 4184
L 1234 4184
Q 1494 4644 1625 5313
L 2088 5125
Q 1903 4444 1741 4184
L 2719 4184
L 2719 2881
Q 3431 3888 3681 5363
L 4191 5247
Q 4106 4869 3916 4281
L 5644 4281
z
M 2216 2484
L 2216 3719
L 1153 3719
L 1153 2484
L 2216 2484
z
M 2216 738
L 2216 2016
L 1153 2016
L 1153 738
L 2216 738
z
M 4775 1369
L 4313 1166
Q 4034 1925 3444 2669
L 3841 2931
Q 4484 2191 4775 1369
z
" transform="scale(0.015625)"/>
     <path id="ArialUnicodeMS-5206" d="M 5991 3003
L 5684 2553
Q 4856 3041 4451 3534
Q 4047 4028 3781 4831
L 4319 4984
Q 4375 4356 4829 3825
Q 5284 3294 5991 3003
z
M 2613 4697
Q 2169 3484 800 2547
L 416 2919
Q 1731 3741 2188 4934
L 2613 4697
z
M 4872 2931
Q 4844 1956 4730 1092
Q 4616 228 4430 7
Q 4244 -213 3847 -213
Q 3469 -213 2894 -78
L 2747 481
Q 3503 269 3834 269
Q 4013 269 4128 639
Q 4244 1009 4341 2463
L 3138 2463
Q 2869 263 831 -441
L 525 -31
Q 2372 478 2631 2463
L 1556 2463
L 1556 2931
L 4872 2931
z
" transform="scale(0.015625)"/>
     <path id="ArialUnicodeMS-6790" d="M 6028 2853
L 5013 2853
L 5013 -409
L 4525 -409
L 4525 2853
L 3681 2853
L 3681 1997
Q 3681 750 2759 -434
L 2309 -134
Q 3194 888 3194 2188
L 3194 4659
Q 4681 4850 5466 5319
L 5813 4922
Q 4825 4394 3681 4244
L 3681 3322
L 6028 3322
L 6028 2853
z
M 3041 1894
L 2591 1656
Q 2219 2434 2041 2591
L 2041 -428
L 1556 -428
L 1556 2322
Q 1334 1825 672 1075
L 263 1375
Q 1344 2497 1538 3591
L 641 3591
L 641 4056
L 1556 4056
L 1556 5275
L 2041 5275
L 2041 4056
L 2950 4056
L 2950 3591
L 2041 3591
L 2041 3028
L 2203 3116
Q 2628 2769 3041 1894
z
" transform="scale(0.015625)"/>
    </defs>
    <use xlink:href="#ArialUnicodeMS-46"/>
    <use xlink:href="#ArialUnicodeMS-69" transform="translate(61.083984 0)"/>
    <use xlink:href="#ArialUnicodeMS-67" transform="translate(83.300781 0)"/>
    <use xlink:href="#ArialUnicodeMS-75" transform="translate(138.916016 0)"/>
    <use xlink:href="#ArialUnicodeMS-72" transform="translate(194.53125 0)"/>
    <use xlink:href="#ArialUnicodeMS-65" transform="translate(227.832031 0)"/>
    <use xlink:href="#ArialUnicodeMS-3a" transform="translate(283.447266 0)"/>
    <use xlink:href="#ArialUnicodeMS-20" transform="translate(311.230469 0)"/>
    <use xlink:href="#ArialUnicodeMS-53" transform="translate(339.013672 0)"/>
    <use xlink:href="#ArialUnicodeMS-41" transform="translate(405.712891 0)"/>
    <use xlink:href="#ArialUnicodeMS-4d" transform="translate(472.412109 0)"/>
    <use xlink:href="#ArialUnicodeMS-20" transform="translate(555.712891 0)"/>
    <use xlink:href="#ArialUnicodeMS-6309" transform="translate(583.496094 0)"/>
    <use xlink:href="#ArialUnicodeMS-9700" transform="translate(683.496094 0)"/>
    <use xlink:href="#ArialUnicodeMS-5efa" transform="translate(783.496094 0)"/>
    <use xlink:href="#ArialUnicodeMS-56fe" transform="translate(883.496094 0)"/>
    <use xlink:href="#ArialUnicodeMS-7684" transform="translate(983.496094 0)"/>
    <use xlink:href="#ArialUnicodeMS-6210" transform="translate(1083.496094 0)"/>
    <use xlink:href="#ArialUnicodeMS-672c" transform="translate(1183.496094 0)"/>
    <use xlink:href="#ArialUnicodeMS-2d" transform="translate(1283.496094 0)"/>
    <use xlink:href="#ArialUnicodeMS-6548" transform="translate(1316.796875 0)"/>
    <use xlink:href="#ArialUnicodeMS-679c" transform="translate(1416.796875 0)"/>
    <use xlink:href="#ArialUnicodeMS-5206" transform="translate(1516.796875 0)"/>
    <use xlink:href="#ArialUnicodeMS-6790" transform="translate(1616.796875 0)"/>
   </g>
  </g>
  <g id="text_32">
   <!-- 成本口径为候选边比较次数和保留边数量；效果口径为 evidence recall。标注为实际比较边 / 全量理论候选边；建边不调用大模型。 -->
   <g style="fill: #6f768a" transform="translate(10.295375 29.354) scale(0.1 -0.1)">
    <defs>
     <path id="ArialUnicodeMS-53e3" d="M 5234 31
L 4750 31
L 4750 563
L 1663 563
L 1663 31
L 1178 31
L 1178 4447
L 5234 4447
L 5234 31
z
M 4750 1031
L 4750 3981
L 1663 3981
L 1663 1031
L 4750 1031
z
" transform="scale(0.015625)"/>
     <path id="ArialUnicodeMS-5f84" d="M 2209 5056
Q 1775 3869 684 3041
L 325 3391
Q 1378 4219 1806 5325
L 2209 5056
z
M 6194 2450
L 5875 1997
Q 4631 2447 4038 2919
Q 3281 2403 2222 2016
L 1925 2413
Q 2794 2691 3653 3250
Q 3097 3756 2700 4588
L 2431 4588
L 2431 5075
L 5556 5075
L 5556 4588
Q 5103 3778 4447 3250
Q 5225 2750 6194 2450
z
M 4972 4588
L 3250 4588
Q 3572 3925 4050 3553
Q 4644 4019 4972 4588
z
M 2394 3744
Q 2072 3103 1831 2759
L 1831 -422
L 1350 -422
L 1350 2150
Q 969 1731 647 1478
L 288 1850
Q 809 2250 1150 2653
Q 1491 3056 1991 4019
L 2394 3744
z
M 6059 -159
L 1972 -159
L 1972 300
L 3775 300
L 3775 1288
L 2431 1288
L 2431 1772
L 3775 1772
L 3775 2606
L 4281 2606
L 4281 1772
L 5606 1772
L 5606 1288
L 4281 1288
L 4281 300
L 6059 300
L 6059 -159
z
" transform="scale(0.015625)"/>
     <path id="ArialUnicodeMS-4e3a" d="M 5350 3828
L 5306 2566
Q 5281 1881 5236 1293
Q 5191 706 5117 340
Q 5044 -25 4945 -145
Q 4847 -266 4720 -327
Q 4594 -388 4428 -388
Q 4206 -388 3700 -275
L 3622 225
Q 3725 206 3978 145
Q 4231 84 4384 84
Q 4459 84 4545 143
Q 4631 203 4731 1045
Q 4831 1888 4863 3359
L 3181 3359
Q 3169 2088 2673 1128
Q 2178 169 953 -416
L 622 13
Q 1219 216 1762 723
Q 2306 1231 2511 2029
Q 2716 2828 2694 3359
L 525 3359
L 525 3828
L 2694 3828
L 2694 5294
Q 3047 5306 3181 5306
L 3181 3828
L 5350 3828
z
M 2284 4231
L 1869 3903
Q 1706 4347 1056 4781
L 1453 5081
Q 2041 4650 2284 4231
z
M 4500 1350
L 4063 1081
Q 3913 1684 3219 2419
L 3622 2656
Q 4219 2072 4500 1350
z
" transform="scale(0.015625)"/>
     <path id="ArialUnicodeMS-6b21" d="M 5759 4372
Q 5653 3369 5281 2706
L 4813 2881
Q 5088 3478 5153 3903
L 3169 3903
Q 2906 3159 2381 2472
L 1925 2731
Q 2813 3800 3003 5259
L 3494 5184
Q 3444 4863 3316 4372
L 5759 4372
z
M 1941 3847
L 1528 3541
Q 1138 4263 409 4697
L 788 4984
Q 1597 4534 1941 3847
z
M 6100 25
L 5797 -397
Q 4350 116 3803 1516
Q 3500 447 1797 -422
L 1459 -72
Q 2197 300 2676 751
Q 3156 1203 3348 1704
Q 3541 2206 3572 3272
L 4050 3163
L 3988 2256
Q 3988 2041 4461 1228
Q 4934 416 6100 25
z
M 1894 2431
Q 1541 669 716 -231
L 313 84
Q 1200 1106 1459 2650
L 1894 2431
z
" transform="scale(0.015625)"/>
     <path id="ArialUnicodeMS-548c" d="M 3659 1516
L 3256 1222
Q 2881 2025 2472 2303
L 2472 -447
L 1978 -447
L 1978 2069
Q 1694 1450 788 634
L 341 959
Q 1578 1947 1959 3097
L 738 3097
L 738 3566
L 1984 3566
L 1984 4372
Q 1050 4231 831 4231
L 634 4672
Q 2306 4788 3181 5253
L 3475 4891
Q 3166 4703 2472 4481
L 2472 3566
L 3559 3566
L 3559 3097
L 2472 3097
L 2472 2638
L 2644 2759
Q 3322 2300 3659 1516
z
M 5722 -63
L 5234 -63
L 5234 575
L 4213 575
L 4213 -63
L 3725 -63
L 3725 4738
L 5722 4738
L 5722 -63
z
M 5234 1044
L 5234 4269
L 4213 4269
L 4213 1044
L 5234 1044
z
" transform="scale(0.015625)"/>
     <path id="ArialUnicodeMS-ff1b" d="M 3541 2675
L 2900 2675
L 2900 3316
L 3541 3316
L 3541 2675
z
M 3541 0
Q 3541 -397 3389 -606
Q 3238 -816 3016 -903
L 2863 -666
Q 3213 -516 3216 0
L 2900 0
L 2900 641
L 3541 641
L 3541 0
z
" transform="scale(0.015625)"/>
     <path id="ArialUnicodeMS-3002" d="M 1466 1503
Q 1847 1503 2117 1231
Q 2388 959 2388 575
Q 2388 194 2119 -76
Q 1850 -347 1472 -347
Q 1091 -347 820 -76
Q 550 194 550 575
Q 550 959 819 1231
Q 1088 1503 1466 1503
z
M 1469 44
Q 1691 44 1845 201
Q 2000 359 2000 581
Q 2000 803 1844 958
Q 1688 1113 1469 1113
Q 1250 1113 1094 958
Q 938 803 938 581
Q 938 359 1092 201
Q 1247 44 1469 44
z
" transform="scale(0.015625)"/>
     <path id="ArialUnicodeMS-6807" d="M 2597 2169
L 2175 1931
Q 2006 2331 1703 2772
L 1691 2772
L 1691 -353
L 1203 -353
L 1203 2253
L 1191 2253
Q 1022 1659 494 1106
L 134 1453
Q 966 2294 1172 3653
L 372 3653
L 372 4122
L 1203 4122
L 1203 5331
L 1691 5331
L 1691 4122
L 2419 4122
L 2419 3653
L 1691 3653
L 1691 3091
L 1875 3206
Q 2334 2725 2597 2169
z
M 5569 4384
L 2669 4384
L 2669 4825
L 5569 4825
L 5569 4384
z
M 5863 2931
L 4353 2931
L 4353 422
Q 4353 78 4300 -64
Q 4247 -206 4150 -261
Q 4053 -316 3397 -378
L 3219 116
L 3756 91
Q 3866 91 3866 281
L 3866 2931
L 2388 2931
L 2388 3372
L 5863 3372
L 5863 2931
z
M 6016 728
L 5556 481
Q 5247 1438 4531 2309
L 4909 2547
Q 5678 1606 6016 728
z
M 3494 2316
Q 3028 1181 2222 459
L 1825 781
Q 2694 1544 3097 2528
L 3494 2316
z
" transform="scale(0.015625)"/>
     <path id="ArialUnicodeMS-6ce8" d="M 4353 4347
L 3956 4038
Q 3553 4719 2944 5038
L 3303 5363
Q 3922 5034 4353 4347
z
M 2247 4341
L 1900 3981
Q 1428 4566 769 4819
L 1106 5222
Q 1628 4966 2247 4341
z
M 6009 -31
L 1978 -31
L 1978 434
L 3706 434
L 3706 1831
L 2400 1831
L 2400 2297
L 3706 2297
L 3706 3513
L 2138 3513
L 2138 3981
L 5813 3981
L 5813 3513
L 4191 3513
L 4191 2297
L 5556 2297
L 5556 1831
L 4191 1831
L 4191 434
L 6009 434
L 6009 -31
z
M 1906 2988
L 1569 2663
Q 1034 3300 384 3513
L 709 3909
Q 1466 3578 1906 2988
z
M 2106 2069
Q 1722 566 863 -294
L 384 -31
Q 1316 950 1638 2284
L 2106 2069
z
" transform="scale(0.015625)"/>
     <path id="ArialUnicodeMS-2f" d="M 1778 4581
L 453 -153
L 0 -153
L 1325 4581
L 1778 4581
z
" transform="scale(0.015625)"/>
     <path id="ArialUnicodeMS-4e0d" d="M 5900 4434
L 3834 4434
Q 3700 4209 3425 3816
L 3425 -416
L 2900 -416
L 2900 3194
Q 2281 2363 775 1528
L 453 1947
Q 1431 2419 2047 2975
Q 2663 3531 3219 4434
L 550 4434
L 550 4922
L 5900 4922
L 5900 4434
z
M 5941 1838
L 5550 1503
Q 4619 2634 3597 3078
L 3938 3419
Q 4969 2953 5941 1838
z
" transform="scale(0.015625)"/>
     <path id="ArialUnicodeMS-8c03" d="M 1991 4306
L 1606 3975
Q 1400 4422 838 4897
L 1166 5184
Q 1728 4806 1991 4306
z
M 5741 294
Q 5741 16 5577 -165
Q 5413 -347 5147 -347
L 4544 -347
L 4378 128
Q 4831 106 5006 106
Q 5166 106 5209 150
Q 5253 194 5253 288
L 5253 4538
L 3016 4538
L 3016 2859
L 3025 1884
Q 3025 869 2828 348
Q 2631 -172 2316 -544
L 1900 -238
Q 2225 181 2353 518
Q 2481 856 2504 1259
Q 2528 1663 2528 2938
L 2528 5006
L 5741 5006
L 5741 294
z
M 5119 2463
L 3163 2463
L 3163 2906
L 3903 2906
L 3903 3384
L 3206 3384
L 3206 3828
L 3903 3828
L 3903 4384
L 4366 4384
L 4366 3828
L 5069 3828
L 5069 3384
L 4366 3384
L 4366 2906
L 5119 2906
L 5119 2463
z
M 2388 850
L 1478 269
L 1197 678
Q 1288 834 1288 959
L 1288 3003
L 459 3003
L 459 3469
L 1772 3469
L 1772 1038
L 2388 1369
L 2388 850
z
M 4884 550
L 3378 550
L 3378 2228
L 4884 2228
L 4884 550
z
M 4422 991
L 4422 1784
L 3841 1784
L 3841 991
L 4422 991
z
" transform="scale(0.015625)"/>
     <path id="ArialUnicodeMS-7528" d="M 5472 159
Q 5472 -66 5340 -219
Q 5209 -372 5013 -372
L 4347 -372
L 4191 128
L 4722 113
Q 4966 113 4966 256
L 4966 1722
L 3572 1722
L 3572 13
L 3084 13
L 3084 1722
L 1678 1722
Q 1584 466 744 -469
L 331 -159
Q 794 394 1001 936
Q 1209 1478 1209 2194
L 1209 5044
L 5472 5044
L 5472 159
z
M 4966 3641
L 4966 4575
L 3572 4575
L 3572 3641
L 4966 3641
z
M 3084 3641
L 3084 4575
L 1697 4575
L 1697 3641
L 3084 3641
z
M 4966 2188
L 4966 3175
L 3572 3175
L 3572 2188
L 4966 2188
z
M 3084 2188
L 3084 3175
L 1697 3175
L 1697 2188
L 3084 2188
z
" transform="scale(0.015625)"/>
     <path id="ArialUnicodeMS-5927" d="M 5972 109
L 5625 -275
Q 4584 341 4046 1159
Q 3509 1978 3322 3250
Q 3088 1959 2520 1142
Q 1953 325 909 -244
L 544 197
Q 2403 1081 2809 3256
L 856 3256
L 856 3744
L 2853 3744
Q 2919 4313 2900 5356
L 3419 5281
Q 3434 4266 3384 3744
L 5684 3744
L 5684 3256
L 3803 3256
Q 4003 2125 4512 1389
Q 5022 653 5972 109
z
" transform="scale(0.015625)"/>
     <path id="ArialUnicodeMS-6a21" d="M 5906 4213
L 5063 4213
L 5063 3809
L 4575 3809
L 4575 4213
L 3469 4213
L 3469 3809
L 2981 3809
L 2981 4213
L 2131 4213
L 2131 4678
L 2981 4678
L 2981 5300
L 3469 5300
L 3469 4678
L 4575 4678
L 4575 5300
L 5063 5300
L 5063 4678
L 5906 4678
L 5906 4213
z
M 2503 1947
L 2088 1684
Q 1891 2191 1716 2394
L 1716 -441
L 1222 -441
L 1222 2088
Q 1066 1534 588 941
L 197 1281
Q 1044 2356 1216 3572
L 397 3572
L 397 4038
L 1209 4038
L 1209 5281
L 1716 5281
L 1716 4038
L 2406 4038
L 2406 3572
L 1716 3572
L 1716 2900
L 1856 2969
Q 2316 2422 2503 1947
z
M 6094 -25
L 5838 -422
Q 4453 -172 4025 838
Q 3584 -53 2241 -428
L 1972 -6
Q 3103 253 3506 856
L 2247 856
L 2247 1325
L 3706 1325
L 3788 1684
L 2553 1684
L 2553 3675
L 5491 3675
L 5491 1684
L 4250 1684
Q 4222 1453 4178 1325
L 5791 1325
L 5791 856
L 4519 856
Q 4981 197 6094 -25
z
M 4984 2925
L 4984 3206
L 3059 3206
L 3059 2925
L 4984 2925
z
M 4984 2150
L 4984 2456
L 3059 2456
L 3059 2150
L 4984 2150
z
" transform="scale(0.015625)"/>
     <path id="ArialUnicodeMS-578b" d="M 5606 2303
Q 5606 1791 5172 1791
L 4409 1791
L 4206 2278
Q 4641 2253 4716 2259
L 5019 2278
Q 5119 2288 5119 2456
L 5119 5294
L 5606 5294
L 5606 2303
z
M 4019 3188
L 3284 3188
L 3284 1906
L 2797 1906
L 2797 3188
L 1925 3188
Q 1897 2078 744 1550
L 378 1894
Q 922 2128 1201 2484
Q 1481 2841 1453 3188
L 609 3188
L 609 3653
L 1447 3653
L 1447 4525
L 756 4525
L 756 4991
L 3828 4991
L 3828 4525
L 3284 4525
L 3284 3653
L 4019 3653
L 4019 3188
z
M 2797 3653
L 2797 4525
L 1931 4525
L 1931 3653
L 2797 3653
z
M 4603 2606
L 4116 2606
L 4116 4891
L 4603 4891
L 4603 2606
z
M 6100 -159
L 378 -159
L 378 313
L 2969 313
L 2969 878
L 984 878
L 984 1344
L 2969 1344
L 2969 1778
L 3456 1778
L 3456 1344
L 5472 1344
L 5472 878
L 3456 878
L 3456 313
L 6100 313
L 6100 -159
z
" transform="scale(0.015625)"/>
    </defs>
    <use xlink:href="#ArialUnicodeMS-6210"/>
    <use xlink:href="#ArialUnicodeMS-672c" transform="translate(100 0)"/>
    <use xlink:href="#ArialUnicodeMS-53e3" transform="translate(200 0)"/>
    <use xlink:href="#ArialUnicodeMS-5f84" transform="translate(300 0)"/>
    <use xlink:href="#ArialUnicodeMS-4e3a" transform="translate(400 0)"/>
    <use xlink:href="#ArialUnicodeMS-5019" transform="translate(500 0)"/>
    <use xlink:href="#ArialUnicodeMS-9009" transform="translate(600 0)"/>
    <use xlink:href="#ArialUnicodeMS-8fb9" transform="translate(700 0)"/>
    <use xlink:href="#ArialUnicodeMS-6bd4" transform="translate(800 0)"/>
    <use xlink:href="#ArialUnicodeMS-8f83" transform="translate(900 0)"/>
    <use xlink:href="#ArialUnicodeMS-6b21" transform="translate(1000 0)"/>
    <use xlink:href="#ArialUnicodeMS-6570" transform="translate(1100 0)"/>
    <use xlink:href="#ArialUnicodeMS-548c" transform="translate(1200 0)"/>
    <use xlink:href="#ArialUnicodeMS-4fdd" transform="translate(1300 0)"/>
    <use xlink:href="#ArialUnicodeMS-7559" transform="translate(1400 0)"/>
    <use xlink:href="#ArialUnicodeMS-8fb9" transform="translate(1500 0)"/>
    <use xlink:href="#ArialUnicodeMS-6570" transform="translate(1600 0)"/>
    <use xlink:href="#ArialUnicodeMS-91cf" transform="translate(1700 0)"/>
    <use xlink:href="#ArialUnicodeMS-ff1b" transform="translate(1800 0)"/>
    <use xlink:href="#ArialUnicodeMS-6548" transform="translate(1900 0)"/>
    <use xlink:href="#ArialUnicodeMS-679c" transform="translate(2000 0)"/>
    <use xlink:href="#ArialUnicodeMS-53e3" transform="translate(2100 0)"/>
    <use xlink:href="#ArialUnicodeMS-5f84" transform="translate(2200 0)"/>
    <use xlink:href="#ArialUnicodeMS-4e3a" transform="translate(2300 0)"/>
    <use xlink:href="#ArialUnicodeMS-20" transform="translate(2400 0)"/>
    <use xlink:href="#ArialUnicodeMS-65" transform="translate(2427.783203 0)"/>
    <use xlink:href="#ArialUnicodeMS-76" transform="translate(2483.398438 0)"/>
    <use xlink:href="#ArialUnicodeMS-69" transform="translate(2533.398438 0)"/>
    <use xlink:href="#ArialUnicodeMS-64" transform="translate(2555.615234 0)"/>
    <use xlink:href="#ArialUnicodeMS-65" transform="translate(2611.230469 0)"/>
    <use xlink:href="#ArialUnicodeMS-6e" transform="translate(2666.845703 0)"/>
    <use xlink:href="#ArialUnicodeMS-63" transform="translate(2722.460938 0)"/>
    <use xlink:href="#ArialUnicodeMS-65" transform="translate(2772.460938 0)"/>
    <use xlink:href="#ArialUnicodeMS-20" transform="translate(2828.076172 0)"/>
    <use xlink:href="#ArialUnicodeMS-72" transform="translate(2855.859375 0)"/>
    <use xlink:href="#ArialUnicodeMS-65" transform="translate(2889.160156 0)"/>
    <use xlink:href="#ArialUnicodeMS-63" transform="translate(2944.775391 0)"/>
    <use xlink:href="#ArialUnicodeMS-61" transform="translate(2994.775391 0)"/>
    <use xlink:href="#ArialUnicodeMS-6c" transform="translate(3050.390625 0)"/>
    <use xlink:href="#ArialUnicodeMS-6c" transform="translate(3072.607422 0)"/>
    <use xlink:href="#ArialUnicodeMS-3002" transform="translate(3094.824219 0)"/>
    <use xlink:href="#ArialUnicodeMS-6807" transform="translate(3194.824219 0)"/>
    <use xlink:href="#ArialUnicodeMS-6ce8" transform="translate(3294.824219 0)"/>
    <use xlink:href="#ArialUnicodeMS-4e3a" transform="translate(3394.824219 0)"/>
    <use xlink:href="#ArialUnicodeMS-5b9e" transform="translate(3494.824219 0)"/>
    <use xlink:href="#ArialUnicodeMS-9645" transform="translate(3594.824219 0)"/>
    <use xlink:href="#ArialUnicodeMS-6bd4" transform="translate(3694.824219 0)"/>
    <use xlink:href="#ArialUnicodeMS-8f83" transform="translate(3794.824219 0)"/>
    <use xlink:href="#ArialUnicodeMS-8fb9" transform="translate(3894.824219 0)"/>
    <use xlink:href="#ArialUnicodeMS-20" transform="translate(3994.824219 0)"/>
    <use xlink:href="#ArialUnicodeMS-2f" transform="translate(4022.607422 0)"/>
    <use xlink:href="#ArialUnicodeMS-20" transform="translate(4050.390625 0)"/>
    <use xlink:href="#ArialUnicodeMS-5168" transform="translate(4078.173828 0)"/>
    <use xlink:href="#ArialUnicodeMS-91cf" transform="translate(4178.173828 0)"/>
    <use xlink:href="#ArialUnicodeMS-7406" transform="translate(4278.173828 0)"/>
    <use xlink:href="#ArialUnicodeMS-8bba" transform="translate(4378.173828 0)"/>
    <use xlink:href="#ArialUnicodeMS-5019" transform="translate(4478.173828 0)"/>
    <use xlink:href="#ArialUnicodeMS-9009" transform="translate(4578.173828 0)"/>
    <use xlink:href="#ArialUnicodeMS-8fb9" transform="translate(4678.173828 0)"/>
    <use xlink:href="#ArialUnicodeMS-ff1b" transform="translate(4778.173828 0)"/>
    <use xlink:href="#ArialUnicodeMS-5efa" transform="translate(4878.173828 0)"/>
    <use xlink:href="#ArialUnicodeMS-8fb9" transform="translate(4978.173828 0)"/>
    <use xlink:href="#ArialUnicodeMS-4e0d" transform="translate(5078.173828 0)"/>
    <use xlink:href="#ArialUnicodeMS-8c03" transform="translate(5178.173828 0)"/>
    <use xlink:href="#ArialUnicodeMS-7528" transform="translate(5278.173828 0)"/>
    <use xlink:href="#ArialUnicodeMS-5927" transform="translate(5378.173828 0)"/>
    <use xlink:href="#ArialUnicodeMS-6a21" transform="translate(5478.173828 0)"/>
    <use xlink:href="#ArialUnicodeMS-578b" transform="translate(5578.173828 0)"/>
    <use xlink:href="#ArialUnicodeMS-3002" transform="translate(5678.173828 0)"/>
   </g>
  </g>
 </g>
 <defs>
  <clipPath id="p8ce1ac7146">
   <rect x="50.039375" y="81.718" width="405.867857" height="261.82"/>
  </clipPath>
  <clipPath id="p18c817c579">
   <rect x="553.315518" y="81.718" width="405.867857" height="261.82"/>
  </clipPath>
 </defs>
</svg>
