<?xml version="1.0" encoding="utf-8" standalone="no"?>
<!DOCTYPE svg PUBLIC "-//W3C//DTD SVG 1.1//EN"
  "http://www.w3.org/Graphics/SVG/1.1/DTD/svg11.dtd">
<svg xmlns:xlink="http://www.w3.org/1999/xlink" width="519.565625pt" height="325.250156pt" viewBox="0 0 519.565625 325.250156" xmlns="http://www.w3.org/2000/svg" version="1.1">
 <metadata>
  <rdf:RDF xmlns:dc="http://purl.org/dc/elements/1.1/" xmlns:cc="http://creativecommons.org/ns#" xmlns:rdf="http://www.w3.org/1999/02/22-rdf-syntax-ns#">
   <cc:Work>
    <dc:type rdf:resource="http://purl.org/dc/dcmitype/StillImage"/>
    <dc:date>2026-06-15T20:15:43.907761</dc:date>
    <dc:format>image/svg+xml</dc:format>
    <dc:creator>
     <cc:Agent>
      <dc:title>Matplotlib v3.10.9, https://matplotlib.org/</dc:title>
     </cc:Agent>
    </dc:creator>
   </cc:Work>
  </rdf:RDF>
 </metadata>
 <defs>
  <style type="text/css">*{stroke-linejoin: round; stroke-linecap: butt}</style>
 </defs>
 <g id="figure_1">
  <g id="patch_1">
   <path d="M 0 325.250156 
L 519.565625 325.250156 
L 519.565625 0 
L 0 0 
z
" style="fill: #fcfcfd"/>
  </g>
  <g id="axes_1">
   <g id="patch_2">
    <path d="M 47.245625 267.305156 
L 512.365625 267.305156 
L 512.365625 22.505156 
L 47.245625 22.505156 
z
" style="fill: #ffffff"/>
   </g>
   <g id="matplotlib.axis_1">
    <g id="xtick_1">
     <g id="line2d_1">
      <path d="M 63.470741 267.305156 
L 63.470741 22.505156 
" clip-path="url(#pfb1adb18b7)" style="fill: none; stroke-dasharray: 0.6,0.99; stroke-dashoffset: 0; stroke: #f4f5f7; stroke-width: 0.6"/>
     </g>
     <g id="text_1">
      <!-- 100 -->
      <g style="fill: #1f2430" transform="translate(54.295194 284.67875) scale(0.11 -0.11)">
       <defs>
        <path id="ArialUnicodeMS-31" d="M 2400 0 
L 1838 0 
L 1838 3584 
Q 1416 3184 709 2906 
L 709 3450 
Q 1681 3916 2034 4603 
L 2400 4603 
L 2400 0 
z
" transform="scale(0.015625)"/>
        <path id="ArialUnicodeMS-30" d="M 1778 4603 
Q 3272 4603 3272 2259 
Q 3272 1075 2886 498 
Q 2500 -78 1778 -78 
Q 288 -78 288 2259 
Q 288 3444 673 4023 
Q 1059 4603 1778 4603 
z
M 1778 384 
Q 2231 384 2462 823 
Q 2694 1263 2694 2259 
Q 2694 2953 2592 3351 
Q 2491 3750 2286 3945 
Q 2081 4141 1772 4141 
Q 1319 4141 1091 3694 
Q 863 3247 863 2259 
Q 863 1575 966 1175 
Q 1069 775 1272 579 
Q 1475 384 1778 384 
z
" transform="scale(0.015625)"/>
       </defs>
       <use xlink:href="#ArialUnicodeMS-31"/>
       <use xlink:href="#ArialUnicodeMS-30" transform="translate(55.615234 0)"/>
       <use xlink:href="#ArialUnicodeMS-30" transform="translate(111.230469 0)"/>
      </g>
     </g>
    </g>
    <g id="xtick_2">
     <g id="line2d_2">
      <path d="M 171.638183 267.305156 
L 171.638183 22.505156 
" clip-path="url(#pfb1adb18b7)" style="fill: none; stroke-dasharray: 0.6,0.99; stroke-dashoffset: 0; stroke: #f4f5f7; stroke-width: 0.6"/>
     </g>
     <g id="text_2">
      <!-- 200 -->
      <g style="fill: #1f2430" transform="translate(162.462636 284.67875) scale(0.11 -0.11)">
       <defs>
        <path id="ArialUnicodeMS-32" d="M 3231 0 
L 197 0 
Q 197 388 467 784 
Q 738 1181 1478 1778 
Q 1931 2141 2287 2539 
Q 2644 2938 2644 3341 
Q 2644 3688 2398 3914 
Q 2153 4141 1778 4141 
Q 1400 4141 1144 3908 
Q 888 3675 884 3213 
L 306 3278 
Q 359 3922 764 4262 
Q 1169 4603 1791 4603 
Q 2466 4603 2842 4229 
Q 3219 3856 3219 3328 
Q 3219 2888 2901 2436 
Q 2584 1984 1638 1228 
Q 1141 831 978 544 
L 3231 544 
L 3231 0 
z
" transform="scale(0.015625)"/>
       </defs>
       <use xlink:href="#ArialUnicodeMS-32"/>
       <use xlink:href="#ArialUnicodeMS-30" transform="translate(55.615234 0)"/>
       <use xlink:href="#ArialUnicodeMS-30" transform="translate(111.230469 0)"/>
      </g>
     </g>
    </g>
    <g id="xtick_3">
     <g id="line2d_3">
      <path d="M 279.805625 267.305156 
L 279.805625 22.505156 
" clip-path="url(#pfb1adb18b7)" style="fill: none; stroke-dasharray: 0.6,0.99; stroke-dashoffset: 0; stroke: #f4f5f7; stroke-width: 0.6"/>
     </g>
     <g id="text_3">
      <!-- 300 -->
      <g style="fill: #1f2430" transform="translate(270.630078 284.67875) scale(0.11 -0.11)">
       <defs>
        <path id="ArialUnicodeMS-33" d="M 2425 2478 
Q 2850 2397 3067 2067 
Q 3284 1738 3284 1350 
Q 3284 725 2829 323 
Q 2375 -78 1741 -78 
Q 1134 -78 740 275 
Q 347 628 281 1209 
L 844 1288 
Q 928 834 1151 609 
Q 1375 384 1741 384 
Q 2134 384 2407 661 
Q 2681 938 2681 1338 
Q 2681 1722 2432 1975 
Q 2184 2228 1784 2228 
Q 1622 2228 1388 2169 
L 1453 2663 
Q 1678 2663 1809 2684 
Q 1941 2706 2103 2790 
Q 2266 2875 2372 3033 
Q 2478 3191 2478 3425 
Q 2478 3766 2251 3953 
Q 2025 4141 1728 4141 
Q 1388 4141 1173 3925 
Q 959 3709 903 3309 
L 341 3413 
Q 450 4009 823 4306 
Q 1197 4603 1716 4603 
Q 2288 4603 2670 4258 
Q 3053 3913 3053 3413 
Q 3053 2772 2425 2491 
L 2425 2478 
z
" transform="scale(0.015625)"/>
       </defs>
       <use xlink:href="#ArialUnicodeMS-33"/>
       <use xlink:href="#ArialUnicodeMS-30" transform="translate(55.615234 0)"/>
       <use xlink:href="#ArialUnicodeMS-30" transform="translate(111.230469 0)"/>
      </g>
     </g>
    </g>
    <g id="xtick_4">
     <g id="line2d_4">
      <path d="M 387.973067 267.305156 
L 387.973067 22.505156 
" clip-path="url(#pfb1adb18b7)" style="fill: none; stroke-dasharray: 0.6,0.99; stroke-dashoffset: 0; stroke: #f4f5f7; stroke-width: 0.6"/>
     </g>
     <g id="text_4">
      <!-- 400 -->
      <g style="fill: #1f2430" transform="translate(378.79752 284.67875) scale(0.11 -0.11)">
       <defs>
        <path id="ArialUnicodeMS-34" d="M 3263 1094 
L 2644 1094 
L 2644 0 
L 2081 0 
L 2081 1094 
L 97 1094 
L 97 1613 
L 2181 4581 
L 2644 4581 
L 2644 1613 
L 3263 1613 
L 3263 1094 
z
M 2081 1613 
L 2081 3681 
L 2069 3681 
L 647 1613 
L 2081 1613 
z
" transform="scale(0.015625)"/>
       </defs>
       <use xlink:href="#ArialUnicodeMS-34"/>
       <use xlink:href="#ArialUnicodeMS-30" transform="translate(55.615234 0)"/>
       <use xlink:href="#ArialUnicodeMS-30" transform="translate(111.230469 0)"/>
      </g>
     </g>
    </g>
    <g id="xtick_5">
     <g id="line2d_5">
      <path d="M 496.140509 267.305156 
L 496.140509 22.505156 
" clip-path="url(#pfb1adb18b7)" style="fill: none; stroke-dasharray: 0.6,0.99; stroke-dashoffset: 0; stroke: #f4f5f7; stroke-width: 0.6"/>
     </g>
     <g id="text_5">
      <!-- 500 -->
      <g style="fill: #1f2430" transform="translate(486.964962 284.67875) scale(0.11 -0.11)">
       <defs>
        <path id="ArialUnicodeMS-35" d="M 1013 2753 
Q 1431 3041 1881 3041 
Q 2453 3041 2878 2636 
Q 3303 2231 3303 1556 
Q 3303 875 2872 398 
Q 2441 -78 1741 -78 
Q 1169 -78 750 245 
Q 331 569 269 1203 
L 856 1247 
Q 928 813 1162 598 
Q 1397 384 1741 384 
Q 2169 384 2434 707 
Q 2700 1031 2700 1503 
Q 2700 1984 2428 2262 
Q 2156 2541 1728 2541 
Q 1188 2541 897 2100 
L 366 2163 
L 813 4519 
L 3084 4519 
L 3084 3975 
L 1259 3975 
L 1013 2753 
z
" transform="scale(0.015625)"/>
       </defs>
       <use xlink:href="#ArialUnicodeMS-35"/>
       <use xlink:href="#ArialUnicodeMS-30" transform="translate(55.615234 0)"/>
       <use xlink:href="#ArialUnicodeMS-30" transform="translate(111.230469 0)"/>
      </g>
     </g>
    </g>
    <g id="text_6">
     <!-- Online batch size（512-token chunks） -->
     <g style="fill: #1f2430" transform="translate(174.422188 299.605781) scale(0.12 -0.12)">
      <defs>
       <path id="ArialUnicodeMS-4f" d="M 2497 4659 
Q 3459 4659 4071 4006 
Q 4684 3353 4684 2284 
Q 4684 1219 4068 570 
Q 3453 -78 2497 -78 
Q 1506 -78 903 594 
Q 300 1266 300 2234 
Q 300 3363 911 4011 
Q 1522 4659 2497 4659 
z
M 2491 441 
Q 3188 441 3620 928 
Q 4053 1416 4056 2284 
Q 4056 3178 3614 3659 
Q 3172 4141 2503 4141 
Q 1816 4141 1372 3669 
Q 928 3197 928 2222 
Q 928 1425 1362 933 
Q 1797 441 2491 441 
z
" transform="scale(0.015625)"/>
       <path id="ArialUnicodeMS-6e" d="M 3138 0 
L 2572 0 
L 2572 2016 
Q 2572 2525 2389 2715 
Q 2206 2906 1881 2906 
Q 1631 2906 1407 2784 
Q 1184 2663 1090 2441 
Q 997 2219 997 1813 
L 997 0 
L 434 0 
L 434 3316 
L 941 3316 
L 941 2847 
L 953 2847 
Q 1131 3119 1392 3255 
Q 1653 3391 1997 3391 
Q 2259 3391 2515 3297 
Q 2772 3203 2917 3015 
Q 3063 2828 3100 2615 
Q 3138 2403 3138 2041 
L 3138 0 
z
" transform="scale(0.015625)"/>
       <path id="ArialUnicodeMS-6c" d="M 991 0 
L 428 0 
L 428 4581 
L 991 4581 
L 991 0 
z
" transform="scale(0.015625)"/>
       <path id="ArialUnicodeMS-69" d="M 991 0 
L 428 0 
L 428 3316 
L 991 3316 
L 991 0 
z
M 991 3944 
L 428 3944 
L 428 4581 
L 991 4581 
L 991 3944 
z
" transform="scale(0.015625)"/>
       <path id="ArialUnicodeMS-65" d="M 3309 1516 
L 825 1516 
Q 859 966 1139 675 
Q 1419 384 1838 384 
Q 2159 384 2378 554 
Q 2597 725 2713 1069 
L 3291 997 
Q 3150 478 2775 200 
Q 2400 -78 1838 -78 
Q 1091 -78 670 380 
Q 250 838 250 1631 
Q 250 2416 658 2903 
Q 1066 3391 1806 3391 
Q 2169 3391 2505 3231 
Q 2841 3072 3075 2689 
Q 3309 2306 3309 1516 
z
M 2731 1978 
Q 2697 2484 2417 2707 
Q 2138 2931 1806 2931 
Q 1409 2931 1153 2665 
Q 897 2400 856 1978 
L 2731 1978 
z
" transform="scale(0.015625)"/>
       <path id="ArialUnicodeMS-20" transform="scale(0.015625)"/>
       <path id="ArialUnicodeMS-62" d="M 1006 2944 
Q 1319 3391 1900 3391 
Q 2541 3391 2925 2925 
Q 3309 2459 3309 1709 
Q 3309 844 2879 383 
Q 2450 -78 1875 -78 
Q 1291 -78 966 416 
L 953 416 
L 953 0 
L 428 0 
L 428 4581 
L 991 4581 
L 991 2944 
L 1006 2944 
z
M 1831 384 
Q 2222 384 2476 720 
Q 2731 1056 2731 1663 
Q 2731 2247 2497 2589 
Q 2263 2931 1850 2931 
Q 1444 2931 1195 2578 
Q 947 2225 947 1684 
Q 947 1156 1050 932 
Q 1153 709 1361 546 
Q 1569 384 1831 384 
z
" transform="scale(0.015625)"/>
       <path id="ArialUnicodeMS-61" d="M 3303 0 
L 2713 0 
Q 2631 156 2597 409 
Q 2031 -78 1375 -78 
Q 850 -78 547 184 
Q 244 447 244 878 
Q 244 1291 536 1558 
Q 828 1825 1550 1913 
L 2075 1991 
Q 2369 2038 2559 2106 
Q 2559 2359 2543 2464 
Q 2528 2569 2451 2681 
Q 2375 2794 2206 2862 
Q 2038 2931 1753 2931 
Q 1391 2931 1180 2797 
Q 969 2663 891 2297 
L 341 2369 
Q 431 2878 806 3134 
Q 1181 3391 1838 3391 
Q 2434 3391 2714 3214 
Q 2994 3038 3058 2788 
Q 3122 2538 3122 2144 
L 3122 1388 
Q 3122 697 3148 461 
Q 3175 225 3303 0 
z
M 2559 1459 
L 2559 1663 
Q 2119 1516 1481 1430 
Q 844 1344 844 891 
Q 844 663 1016 514 
Q 1188 366 1509 366 
Q 1925 366 2242 614 
Q 2559 863 2559 1459 
z
" transform="scale(0.015625)"/>
       <path id="ArialUnicodeMS-74" d="M 1722 6 
Q 1472 -44 1300 -44 
Q 931 -44 762 86 
Q 594 216 556 416 
Q 519 616 519 972 
L 519 2881 
L 109 2881 
L 109 3316 
L 519 3316 
L 519 4141 
L 1081 4481 
L 1081 3316 
L 1644 3316 
L 1644 2881 
L 1081 2881 
L 1081 941 
Q 1081 691 1132 586 
Q 1184 481 1394 481 
Q 1516 481 1644 506 
L 1722 6 
z
" transform="scale(0.015625)"/>
       <path id="ArialUnicodeMS-63" d="M 3144 1147 
Q 3034 513 2643 217 
Q 2253 -78 1759 -78 
Q 1038 -78 644 395 
Q 250 869 250 1650 
Q 250 2297 476 2686 
Q 703 3075 1043 3233 
Q 1384 3391 1759 3391 
Q 2272 3391 2636 3125 
Q 3000 2859 3084 2344 
L 2541 2259 
Q 2456 2594 2267 2762 
Q 2078 2931 1784 2931 
Q 1313 2931 1069 2597 
Q 825 2263 825 1663 
Q 825 1050 1064 717 
Q 1303 384 1753 384 
Q 2116 384 2323 592 
Q 2531 800 2584 1216 
L 3144 1147 
z
" transform="scale(0.015625)"/>
       <path id="ArialUnicodeMS-68" d="M 3138 0 
L 2572 0 
L 2572 2094 
Q 2572 2500 2397 2703 
Q 2222 2906 1875 2906 
Q 1531 2906 1261 2667 
Q 991 2428 991 1813 
L 991 0 
L 428 0 
L 428 4581 
L 991 4581 
L 991 2938 
Q 1391 3391 1991 3391 
Q 2313 3391 2606 3259 
Q 2900 3128 3019 2856 
Q 3138 2584 3138 2100 
L 3138 0 
z
" transform="scale(0.015625)"/>
       <path id="ArialUnicodeMS-73" d="M 2278 2388 
Q 2241 2659 2058 2795 
Q 1875 2931 1550 2931 
Q 1228 2931 1029 2822 
Q 831 2713 831 2503 
Q 831 2306 989 2222 
Q 1147 2138 1613 2016 
Q 2138 1881 2398 1778 
Q 2659 1675 2804 1489 
Q 2950 1303 2950 972 
Q 2950 528 2587 225 
Q 2225 -78 1619 -78 
Q 988 -78 633 189 
Q 278 456 197 991 
L 756 1075 
Q 800 728 1014 556 
Q 1228 384 1613 384 
Q 1981 384 2178 539 
Q 2375 694 2375 916 
Q 2375 1066 2284 1156 
Q 2194 1247 2058 1292 
Q 1922 1338 1447 1453 
Q 741 1622 514 1862 
Q 288 2103 288 2438 
Q 288 2853 619 3122 
Q 950 3391 1509 3391 
Q 2103 3391 2433 3158 
Q 2763 2925 2828 2463 
L 2278 2388 
z
" transform="scale(0.015625)"/>
       <path id="ArialUnicodeMS-7a" d="M 3066 0 
L 128 0 
L 128 453 
L 2241 2875 
Q 1869 2853 1606 2853 
L 250 2853 
L 250 3316 
L 2963 3316 
L 2963 2950 
L 1166 850 
Q 1113 784 891 544 
Q 838 494 819 459 
Q 1141 488 1528 488 
L 3066 488 
L 3066 0 
z
" transform="scale(0.015625)"/>
       <path id="ArialUnicodeMS-ff08" d="M 3963 -1344 
L 3559 -1344 
Q 3041 -681 2744 103 
Q 2447 888 2447 1656 
Q 2447 2528 2762 3275 
Q 3078 4022 3559 4659 
L 3963 4659 
Q 3406 3747 3217 3059 
Q 3028 2372 3028 1663 
Q 3028 153 3963 -1344 
z
" transform="scale(0.015625)"/>
       <path id="ArialUnicodeMS-2d" d="M 1925 1375 
L 206 1375 
L 206 1941 
L 1925 1941 
L 1925 1375 
z
" transform="scale(0.015625)"/>
       <path id="ArialUnicodeMS-6f" d="M 1778 3391 
Q 2450 3391 2892 2953 
Q 3334 2516 3334 1709 
Q 3334 731 2856 326 
Q 2378 -78 1778 -78 
Q 1150 -78 687 337 
Q 225 753 225 1656 
Q 225 2531 672 2961 
Q 1119 3391 1778 3391 
z
M 1778 384 
Q 2259 384 2509 740 
Q 2759 1097 2759 1678 
Q 2759 2300 2476 2615 
Q 2194 2931 1778 2931 
Q 1350 2931 1075 2611 
Q 800 2291 800 1656 
Q 800 1025 1079 704 
Q 1359 384 1778 384 
z
" transform="scale(0.015625)"/>
       <path id="ArialUnicodeMS-6b" d="M 3175 0 
L 2484 0 
L 1381 1697 
L 984 1319 
L 984 0 
L 422 0 
L 422 4581 
L 984 4581 
L 984 1972 
L 2316 3316 
L 3047 3316 
L 1778 2088 
L 3175 0 
z
" transform="scale(0.015625)"/>
       <path id="ArialUnicodeMS-75" d="M 3116 0 
L 2613 0 
L 2613 488 
L 2597 488 
Q 2216 -78 1556 -78 
Q 1209 -78 914 83 
Q 619 244 520 526 
Q 422 809 422 1259 
L 422 3316 
L 984 3316 
L 984 1478 
Q 984 1038 1026 847 
Q 1069 656 1247 532 
Q 1425 409 1672 409 
Q 1991 409 2272 629 
Q 2553 850 2553 1544 
L 2553 3316 
L 3116 3316 
L 3116 0 
z
" transform="scale(0.015625)"/>
       <path id="ArialUnicodeMS-ff09" d="M 2847 4659 
Q 3366 3997 3662 3212 
Q 3959 2428 3959 1656 
Q 3959 788 3643 41 
Q 3328 -706 2847 -1344 
L 2444 -1344 
Q 3000 -431 3189 255 
Q 3378 941 3378 1650 
Q 3378 3163 2444 4659 
L 2847 4659 
z
" transform="scale(0.015625)"/>
      </defs>
      <use xlink:href="#ArialUnicodeMS-4f"/>
      <use xlink:href="#ArialUnicodeMS-6e" transform="translate(77.783203 0)"/>
      <use xlink:href="#ArialUnicodeMS-6c" transform="translate(133.398438 0)"/>
      <use xlink:href="#ArialUnicodeMS-69" transform="translate(155.615234 0)"/>
      <use xlink:href="#ArialUnicodeMS-6e" transform="translate(177.832031 0)"/>
      <use xlink:href="#ArialUnicodeMS-65" transform="translate(233.447266 0)"/>
      <use xlink:href="#ArialUnicodeMS-20" transform="translate(289.0625 0)"/>
      <use xlink:href="#ArialUnicodeMS-62" transform="translate(316.845703 0)"/>
      <use xlink:href="#ArialUnicodeMS-61" transform="translate(372.460938 0)"/>
      <use xlink:href="#ArialUnicodeMS-74" transform="translate(428.076172 0)"/>
      <use xlink:href="#ArialUnicodeMS-63" transform="translate(455.859375 0)"/>
      <use xlink:href="#ArialUnicodeMS-68" transform="translate(505.859375 0)"/>
      <use xlink:href="#ArialUnicodeMS-20" transform="translate(561.474609 0)"/>
      <use xlink:href="#ArialUnicodeMS-73" transform="translate(589.257812 0)"/>
      <use xlink:href="#ArialUnicodeMS-69" transform="translate(639.257812 0)"/>
      <use xlink:href="#ArialUnicodeMS-7a" transform="translate(661.474609 0)"/>
      <use xlink:href="#ArialUnicodeMS-65" transform="translate(711.474609 0)"/>
      <use xlink:href="#ArialUnicodeMS-ff08" transform="translate(767.089844 0)"/>
      <use xlink:href="#ArialUnicodeMS-35" transform="translate(867.089844 0)"/>
      <use xlink:href="#ArialUnicodeMS-31" transform="translate(922.705078 0)"/>
      <use xlink:href="#ArialUnicodeMS-32" transform="translate(978.320312 0)"/>
      <use xlink:href="#ArialUnicodeMS-2d" transform="translate(1033.935547 0)"/>
      <use xlink:href="#ArialUnicodeMS-74" transform="translate(1067.236328 0)"/>
      <use xlink:href="#ArialUnicodeMS-6f" transform="translate(1095.019531 0)"/>
      <use xlink:href="#ArialUnicodeMS-6b" transform="translate(1150.634766 0)"/>
      <use xlink:href="#ArialUnicodeMS-65" transform="translate(1200.634766 0)"/>
      <use xlink:href="#ArialUnicodeMS-6e" transform="translate(1256.25 0)"/>
      <use xlink:href="#ArialUnicodeMS-20" transform="translate(1311.865234 0)"/>
      <use xlink:href="#ArialUnicodeMS-63" transform="translate(1339.648438 0)"/>
      <use xlink:href="#ArialUnicodeMS-68" transform="translate(1389.648438 0)"/>
      <use xlink:href="#ArialUnicodeMS-75" transform="translate(1445.263672 0)"/>
      <use xlink:href="#ArialUnicodeMS-6e" transform="translate(1500.878906 0)"/>
      <use xlink:href="#ArialUnicodeMS-6b" transform="translate(1556.494141 0)"/>
      <use xlink:href="#ArialUnicodeMS-73" transform="translate(1606.494141 0)"/>
      <use xlink:href="#ArialUnicodeMS-ff09" transform="translate(1656.494141 0)"/>
     </g>
    </g>
   </g>
   <g id="matplotlib.axis_2">
    <g id="ytick_1">
     <g id="line2d_6">
      <path d="M 47.245625 262.771823 
L 512.365625 262.771823 
" clip-path="url(#pfb1adb18b7)" style="fill: none; stroke-dasharray: 2.96,1.28; stroke-dashoffset: 0; stroke: #e6e8f0; stroke-width: 0.8"/>
     </g>
     <g id="text_7">
      <!-- 0.0 -->
      <g style="fill: #1f2430" transform="translate(22.455625 266.70862) scale(0.11 -0.11)">
       <defs>
        <path id="ArialUnicodeMS-2e" d="M 1209 0 
L 569 0 
L 569 641 
L 1209 641 
L 1209 0 
z
" transform="scale(0.015625)"/>
       </defs>
       <use xlink:href="#ArialUnicodeMS-30"/>
       <use xlink:href="#ArialUnicodeMS-2e" transform="translate(55.615234 0)"/>
       <use xlink:href="#ArialUnicodeMS-30" transform="translate(83.398438 0)"/>
      </g>
     </g>
    </g>
    <g id="ytick_2">
     <g id="line2d_7">
      <path d="M 47.245625 217.43849 
L 512.365625 217.43849 
" clip-path="url(#pfb1adb18b7)" style="fill: none; stroke-dasharray: 2.96,1.28; stroke-dashoffset: 0; stroke: #e6e8f0; stroke-width: 0.8"/>
     </g>
     <g id="text_8">
      <!-- 0.5 -->
      <g style="fill: #1f2430" transform="translate(22.455625 221.375286) scale(0.11 -0.11)">
       <use xlink:href="#ArialUnicodeMS-30"/>
       <use xlink:href="#ArialUnicodeMS-2e" transform="translate(55.615234 0)"/>
       <use xlink:href="#ArialUnicodeMS-35" transform="translate(83.398438 0)"/>
      </g>
     </g>
    </g>
    <g id="ytick_3">
     <g id="line2d_8">
      <path d="M 47.245625 172.105156 
L 512.365625 172.105156 
" clip-path="url(#pfb1adb18b7)" style="fill: none; stroke-dasharray: 2.96,1.28; stroke-dashoffset: 0; stroke: #e6e8f0; stroke-width: 0.8"/>
     </g>
     <g id="text_9">
      <!-- 1.0 -->
      <g style="fill: #1f2430" transform="translate(22.455625 176.041953) scale(0.11 -0.11)">
       <use xlink:href="#ArialUnicodeMS-31"/>
       <use xlink:href="#ArialUnicodeMS-2e" transform="translate(55.615234 0)"/>
       <use xlink:href="#ArialUnicodeMS-30" transform="translate(83.398438 0)"/>
      </g>
     </g>
    </g>
    <g id="ytick_4">
     <g id="line2d_9">
      <path d="M 47.245625 126.771823 
L 512.365625 126.771823 
" clip-path="url(#pfb1adb18b7)" style="fill: none; stroke-dasharray: 2.96,1.28; stroke-dashoffset: 0; stroke: #e6e8f0; stroke-width: 0.8"/>
     </g>
     <g id="text_10">
      <!-- 1.5 -->
      <g style="fill: #1f2430" transform="translate(22.455625 130.70862) scale(0.11 -0.11)">
       <use xlink:href="#ArialUnicodeMS-31"/>
       <use xlink:href="#ArialUnicodeMS-2e" transform="translate(55.615234 0)"/>
       <use xlink:href="#ArialUnicodeMS-35" transform="translate(83.398438 0)"/>
      </g>
     </g>
    </g>
    <g id="ytick_5">
     <g id="line2d_10">
      <path d="M 47.245625 81.43849 
L 512.365625 81.43849 
" clip-path="url(#pfb1adb18b7)" style="fill: none; stroke-dasharray: 2.96,1.28; stroke-dashoffset: 0; stroke: #e6e8f0; stroke-width: 0.8"/>
     </g>
     <g id="text_11">
      <!-- 2.0 -->
      <g style="fill: #1f2430" transform="translate(22.455625 85.375286) scale(0.11 -0.11)">
       <use xlink:href="#ArialUnicodeMS-32"/>
       <use xlink:href="#ArialUnicodeMS-2e" transform="translate(55.615234 0)"/>
       <use xlink:href="#ArialUnicodeMS-30" transform="translate(83.398438 0)"/>
      </g>
     </g>
    </g>
    <g id="ytick_6">
     <g id="line2d_11">
      <path d="M 47.245625 36.105156 
L 512.365625 36.105156 
" clip-path="url(#pfb1adb18b7)" style="fill: none; stroke-dasharray: 2.96,1.28; stroke-dashoffset: 0; stroke: #e6e8f0; stroke-width: 0.8"/>
     </g>
     <g id="text_12">
      <!-- 2.5 -->
      <g style="fill: #1f2430" transform="translate(22.455625 40.041953) scale(0.11 -0.11)">
       <use xlink:href="#ArialUnicodeMS-32"/>
       <use xlink:href="#ArialUnicodeMS-2e" transform="translate(55.615234 0)"/>
       <use xlink:href="#ArialUnicodeMS-35" transform="translate(83.398438 0)"/>
      </g>
     </g>
    </g>
    <g id="text_13">
     <!-- Batch insertion time（hours） -->
     <g style="fill: #1f2430" transform="translate(15.935625 224.600156) rotate(-90) scale(0.12 -0.12)">
      <defs>
       <path id="ArialUnicodeMS-42" d="M 3078 2438 
Q 3509 2306 3723 2011 
Q 3938 1716 3938 1331 
Q 3938 947 3744 625 
Q 3550 303 3194 151 
Q 2838 0 2228 0 
L 475 0 
L 475 4581 
L 2194 4581 
Q 3028 4581 3370 4218 
Q 3713 3856 3713 3413 
Q 3713 3113 3555 2858 
Q 3397 2603 3078 2438 
z
M 1081 2663 
L 2075 2663 
Q 2381 2663 2589 2697 
Q 2797 2731 2956 2878 
Q 3116 3025 3116 3334 
Q 3116 3659 2955 3814 
Q 2794 3969 2570 4003 
Q 2347 4038 1997 4038 
L 1081 4038 
L 1081 2663 
z
M 1081 544 
L 2222 544 
Q 2834 544 3071 753 
Q 3309 963 3309 1331 
Q 3309 1703 3056 1911 
Q 2803 2119 2144 2119 
L 1081 2119 
L 1081 544 
z
" transform="scale(0.015625)"/>
       <path id="ArialUnicodeMS-72" d="M 2216 3213 
L 2022 2694 
Q 1813 2816 1613 2816 
Q 1297 2816 1134 2533 
Q 972 2250 972 1741 
L 972 0 
L 409 0 
L 409 3316 
L 922 3316 
L 922 2816 
L 934 2816 
Q 1203 3391 1638 3391 
Q 1925 3391 2216 3213 
z
" transform="scale(0.015625)"/>
       <path id="ArialUnicodeMS-6d" d="M 4922 0 
L 4359 0 
L 4359 2094 
Q 4359 2325 4328 2489 
Q 4297 2653 4167 2779 
Q 4038 2906 3763 2906 
Q 3431 2906 3190 2675 
Q 2950 2444 2950 1925 
L 2950 0 
L 2388 0 
L 2388 2156 
Q 2388 2588 2236 2747 
Q 2084 2906 1806 2906 
Q 1444 2906 1211 2656 
Q 978 2406 978 1722 
L 978 0 
L 416 0 
L 416 3316 
L 922 3316 
L 922 2853 
L 934 2853 
Q 1272 3391 1925 3391 
Q 2291 3391 2527 3245 
Q 2763 3100 2869 2809 
Q 3238 3391 3891 3391 
Q 4406 3391 4664 3112 
Q 4922 2834 4922 2278 
L 4922 0 
z
" transform="scale(0.015625)"/>
      </defs>
      <use xlink:href="#ArialUnicodeMS-42"/>
      <use xlink:href="#ArialUnicodeMS-61" transform="translate(66.699219 0)"/>
      <use xlink:href="#ArialUnicodeMS-74" transform="translate(122.314453 0)"/>
      <use xlink:href="#ArialUnicodeMS-63" transform="translate(150.097656 0)"/>
      <use xlink:href="#ArialUnicodeMS-68" transform="translate(200.097656 0)"/>
      <use xlink:href="#ArialUnicodeMS-20" transform="translate(255.712891 0)"/>
      <use xlink:href="#ArialUnicodeMS-69" transform="translate(283.496094 0)"/>
      <use xlink:href="#ArialUnicodeMS-6e" transform="translate(305.712891 0)"/>
      <use xlink:href="#ArialUnicodeMS-73" transform="translate(361.328125 0)"/>
      <use xlink:href="#ArialUnicodeMS-65" transform="translate(411.328125 0)"/>
      <use xlink:href="#ArialUnicodeMS-72" transform="translate(466.943359 0)"/>
      <use xlink:href="#ArialUnicodeMS-74" transform="translate(500.244141 0)"/>
      <use xlink:href="#ArialUnicodeMS-69" transform="translate(528.027344 0)"/>
      <use xlink:href="#ArialUnicodeMS-6f" transform="translate(550.244141 0)"/>
      <use xlink:href="#ArialUnicodeMS-6e" transform="translate(605.859375 0)"/>
      <use xlink:href="#ArialUnicodeMS-20" transform="translate(661.474609 0)"/>
      <use xlink:href="#ArialUnicodeMS-74" transform="translate(689.257812 0)"/>
      <use xlink:href="#ArialUnicodeMS-69" transform="translate(717.041016 0)"/>
      <use xlink:href="#ArialUnicodeMS-6d" transform="translate(739.257812 0)"/>
      <use xlink:href="#ArialUnicodeMS-65" transform="translate(822.558594 0)"/>
      <use xlink:href="#ArialUnicodeMS-ff08" transform="translate(878.173828 0)"/>
      <use xlink:href="#ArialUnicodeMS-68" transform="translate(978.173828 0)"/>
      <use xlink:href="#ArialUnicodeMS-6f" transform="translate(1033.789062 0)"/>
      <use xlink:href="#ArialUnicodeMS-75" transform="translate(1089.404297 0)"/>
      <use xlink:href="#ArialUnicodeMS-72" transform="translate(1145.019531 0)"/>
      <use xlink:href="#ArialUnicodeMS-73" transform="translate(1178.320312 0)"/>
      <use xlink:href="#ArialUnicodeMS-ff09" transform="translate(1228.320312 0)"/>
     </g>
    </g>
   </g>
   <g id="line2d_12">
    <path d="M 63.470741 99.571823 
L 171.638183 99.571823 
L 279.805625 99.571823 
L 387.973067 99.571823 
L 496.140509 99.571823 
" clip-path="url(#pfb1adb18b7)" style="fill: none; stroke-dasharray: 2.2,2.2; stroke-dashoffset: 0; stroke: #8a8a8a; stroke-width: 2.2"/>
   </g>
   <g id="line2d_13">
    <path d="M 63.470741 153.971823 
L 171.638183 153.971823 
L 279.805625 153.971823 
L 387.973067 153.971823 
L 496.140509 153.971823 
" clip-path="url(#pfb1adb18b7)" style="fill: none; stroke-dasharray: 6.6,4.4; stroke-dashoffset: 0; stroke: #9a9a9a; stroke-width: 2.2"/>
   </g>
   <g id="line2d_14">
    <path d="M 63.470741 217.43849 
L 171.638183 172.105156 
L 279.805625 126.771823 
L 387.973067 81.43849 
L 496.140509 36.105156 
" clip-path="url(#pfb1adb18b7)" style="fill: none; stroke: #1f77b4; stroke-width: 2.4; stroke-linecap: round"/>
    <defs>
     <path id="mabb6063a93" d="M 0 2.5 
C 0.663008 2.5 1.29895 2.236584 1.767767 1.767767 
C 2.236584 1.29895 2.5 0.663008 2.5 0 
C 2.5 -0.663008 2.236584 -1.29895 1.767767 -1.767767 
C 1.29895 -2.236584 0.663008 -2.5 0 -2.5 
C -0.663008 -2.5 -1.29895 -2.236584 -1.767767 -1.767767 
C -2.236584 -1.29895 -2.5 -0.663008 -2.5 0 
C -2.5 0.663008 -2.236584 1.29895 -1.767767 1.767767 
C -1.29895 2.236584 -0.663008 2.5 0 2.5 
z
" style="stroke: #1f77b4"/>
    </defs>
    <g clip-path="url(#pfb1adb18b7)">
     <use xlink:href="#mabb6063a93" x="63.470741" y="217.43849" style="fill: #1f77b4; stroke: #1f77b4"/>
     <use xlink:href="#mabb6063a93" x="171.638183" y="172.105156" style="fill: #1f77b4; stroke: #1f77b4"/>
     <use xlink:href="#mabb6063a93" x="279.805625" y="126.771823" style="fill: #1f77b4; stroke: #1f77b4"/>
     <use xlink:href="#mabb6063a93" x="387.973067" y="81.43849" style="fill: #1f77b4; stroke: #1f77b4"/>
     <use xlink:href="#mabb6063a93" x="496.140509" y="36.105156" style="fill: #1f77b4; stroke: #1f77b4"/>
    </g>
   </g>
   <g id="line2d_15">
    <path d="M 63.470741 256.727378 
L 171.638183 252.194045 
L 279.805625 244.63849 
L 387.973067 237.082934 
L 496.140509 231.03849 
" clip-path="url(#pfb1adb18b7)" style="fill: none; stroke: #d66b2d; stroke-width: 2.4; stroke-linecap: round"/>
    <defs>
     <path id="m8ed45dcca5" d="M -0 3.535534 
L 3.535534 0 
L 0 -3.535534 
L -3.535534 -0 
z
" style="stroke: #d66b2d; stroke-linejoin: miter"/>
    </defs>
    <g clip-path="url(#pfb1adb18b7)">
     <use xlink:href="#m8ed45dcca5" x="63.470741" y="256.727378" style="fill: #d66b2d; stroke: #d66b2d; stroke-linejoin: miter"/>
     <use xlink:href="#m8ed45dcca5" x="171.638183" y="252.194045" style="fill: #d66b2d; stroke: #d66b2d; stroke-linejoin: miter"/>
     <use xlink:href="#m8ed45dcca5" x="279.805625" y="244.63849" style="fill: #d66b2d; stroke: #d66b2d; stroke-linejoin: miter"/>
     <use xlink:href="#m8ed45dcca5" x="387.973067" y="237.082934" style="fill: #d66b2d; stroke: #d66b2d; stroke-linejoin: miter"/>
     <use xlink:href="#m8ed45dcca5" x="496.140509" y="231.03849" style="fill: #d66b2d; stroke: #d66b2d; stroke-linejoin: miter"/>
    </g>
   </g>
   <g id="patch_3">
    <path d="M 47.245625 267.305156 
L 47.245625 22.505156 
" style="fill: none; stroke: #d7dbe7; stroke-width: 1.25; stroke-linejoin: miter; stroke-linecap: square"/>
   </g>
   <g id="patch_4">
    <path d="M 47.245625 267.305156 
L 512.365625 267.305156 
" style="fill: none; stroke: #d7dbe7; stroke-width: 1.25; stroke-linejoin: miter; stroke-linecap: square"/>
   </g>
   <g id="text_14">
    <!-- 4min -->
    <g style="fill: #9a4d23" transform="translate(54.25953 246.727378) scale(0.085 -0.085)">
     <use xlink:href="#ArialUnicodeMS-34"/>
     <use xlink:href="#ArialUnicodeMS-6d" transform="translate(55.615234 0)"/>
     <use xlink:href="#ArialUnicodeMS-69" transform="translate(138.916016 0)"/>
     <use xlink:href="#ArialUnicodeMS-6e" transform="translate(161.132812 0)"/>
    </g>
   </g>
   <g id="text_15">
    <!-- 7min -->
    <g style="fill: #9a4d23" transform="translate(162.426972 242.194045) scale(0.085 -0.085)">
     <defs>
      <path id="ArialUnicodeMS-37" d="M 3272 4084 
Q 2597 3344 2103 2253 
Q 1609 1163 1522 0 
L 947 0 
Q 969 934 1408 2051 
Q 1847 3169 2547 3975 
L 306 3975 
L 306 4519 
L 3272 4519 
L 3272 4084 
z
" transform="scale(0.015625)"/>
     </defs>
     <use xlink:href="#ArialUnicodeMS-37"/>
     <use xlink:href="#ArialUnicodeMS-6d" transform="translate(55.615234 0)"/>
     <use xlink:href="#ArialUnicodeMS-69" transform="translate(138.916016 0)"/>
     <use xlink:href="#ArialUnicodeMS-6e" transform="translate(161.132812 0)"/>
    </g>
   </g>
   <g id="text_16">
    <!-- 12min -->
    <g style="fill: #9a4d23" transform="translate(268.231016 234.63849) scale(0.085 -0.085)">
     <use xlink:href="#ArialUnicodeMS-31"/>
     <use xlink:href="#ArialUnicodeMS-32" transform="translate(55.615234 0)"/>
     <use xlink:href="#ArialUnicodeMS-6d" transform="translate(111.230469 0)"/>
     <use xlink:href="#ArialUnicodeMS-69" transform="translate(194.53125 0)"/>
     <use xlink:href="#ArialUnicodeMS-6e" transform="translate(216.748047 0)"/>
    </g>
   </g>
   <g id="text_17">
    <!-- 17min -->
    <g style="fill: #9a4d23" transform="translate(376.398457 227.082934) scale(0.085 -0.085)">
     <use xlink:href="#ArialUnicodeMS-31"/>
     <use xlink:href="#ArialUnicodeMS-37" transform="translate(55.615234 0)"/>
     <use xlink:href="#ArialUnicodeMS-6d" transform="translate(111.230469 0)"/>
     <use xlink:href="#ArialUnicodeMS-69" transform="translate(194.53125 0)"/>
     <use xlink:href="#ArialUnicodeMS-6e" transform="translate(216.748047 0)"/>
    </g>
   </g>
   <g id="text_18">
    <!-- 21min -->
    <g style="fill: #9a4d23" transform="translate(484.565899 221.03849) scale(0.085 -0.085)">
     <use xlink:href="#ArialUnicodeMS-32"/>
     <use xlink:href="#ArialUnicodeMS-31" transform="translate(55.615234 0)"/>
     <use xlink:href="#ArialUnicodeMS-6d" transform="translate(111.230469 0)"/>
     <use xlink:href="#ArialUnicodeMS-69" transform="translate(194.53125 0)"/>
     <use xlink:href="#ArialUnicodeMS-6e" transform="translate(216.748047 0)"/>
    </g>
   </g>
   <g id="text_19">
    <!-- 注：GraphRAG/RAPTOR/MemTree 采用 CAM Figure 3(a) 参考读数；SAM 使用本地实测时间。 -->
    <g style="fill: #6f768a" transform="translate(51.896825 316.265156) scale(0.085 -0.085)">
     <defs>
      <path id="ArialUnicodeMS-6ce8" d="M 4353 4347 
L 3956 4038 
Q 3553 4719 2944 5038 
L 3303 5363 
Q 3922 5034 4353 4347 
z
M 2247 4341 
L 1900 3981 
Q 1428 4566 769 4819 
L 1106 5222 
Q 1628 4966 2247 4341 
z
M 6009 -31 
L 1978 -31 
L 1978 434 
L 3706 434 
L 3706 1831 
L 2400 1831 
L 2400 2297 
L 3706 2297 
L 3706 3513 
L 2138 3513 
L 2138 3981 
L 5813 3981 
L 5813 3513 
L 4191 3513 
L 4191 2297 
L 5556 2297 
L 5556 1831 
L 4191 1831 
L 4191 434 
L 6009 434 
L 6009 -31 
z
M 1906 2988 
L 1569 2663 
Q 1034 3300 384 3513 
L 709 3909 
Q 1466 3578 1906 2988 
z
M 2106 2069 
Q 1722 566 863 -294 
L 384 -31 
Q 1316 950 1638 2284 
L 2106 2069 
z
" transform="scale(0.015625)"/>
      <path id="ArialUnicodeMS-ff1a" d="M 3516 2675 
L 2875 2675 
L 2875 3316 
L 3516 3316 
L 3516 2675 
z
M 3516 0 
L 2875 0 
L 2875 641 
L 3516 641 
L 3516 0 
z
" transform="scale(0.015625)"/>
      <path id="ArialUnicodeMS-47" d="M 4569 641 
Q 3703 -78 2675 -78 
Q 1622 -78 976 564 
Q 331 1206 331 2272 
Q 331 2922 595 3483 
Q 859 4044 1373 4351 
Q 1888 4659 2631 4659 
Q 3403 4659 3870 4320 
Q 4338 3981 4500 3303 
L 3956 3150 
Q 3828 3644 3497 3892 
Q 3166 4141 2631 4141 
Q 1803 4141 1381 3634 
Q 959 3128 959 2309 
Q 959 1697 1164 1290 
Q 1369 884 1770 676 
Q 2172 469 2644 469 
Q 3363 469 3981 941 
L 3981 1791 
L 2631 1791 
L 2631 2338 
L 4569 2338 
L 4569 641 
z
" transform="scale(0.015625)"/>
      <path id="ArialUnicodeMS-70" d="M 959 2888 
Q 1275 3391 1906 3391 
Q 2559 3391 2937 2917 
Q 3316 2444 3316 1684 
Q 3316 875 2897 398 
Q 2478 -78 1869 -78 
Q 1334 -78 1013 347 
L 997 347 
L 997 -1275 
L 434 -1275 
L 434 3316 
L 947 3316 
L 947 2888 
L 959 2888 
z
M 1831 384 
Q 2225 384 2483 711 
Q 2741 1038 2741 1684 
Q 2741 2294 2492 2622 
Q 2244 2950 1856 2950 
Q 1456 2950 1198 2584 
Q 941 2219 941 1638 
Q 941 1022 1187 703 
Q 1434 384 1831 384 
z
" transform="scale(0.015625)"/>
      <path id="ArialUnicodeMS-52" d="M 4550 0 
L 3788 0 
Q 3103 1081 2937 1328 
Q 2772 1575 2589 1751 
Q 2406 1928 2245 1975 
Q 2084 2022 1819 2022 
L 1119 2022 
L 1119 0 
L 513 0 
L 513 4581 
L 2541 4581 
Q 2956 4581 3237 4528 
Q 3519 4475 3731 4304 
Q 3944 4134 4058 3875 
Q 4172 3616 4172 3328 
Q 4172 2809 3844 2493 
Q 3516 2178 2888 2094 
L 2888 2081 
Q 3347 1878 3750 1247 
L 4550 0 
z
M 1119 2566 
L 2419 2566 
Q 2813 2566 3042 2633 
Q 3272 2700 3409 2894 
Q 3547 3088 3547 3328 
Q 3547 3641 3319 3859 
Q 3091 4078 2566 4078 
L 1119 4078 
L 1119 2566 
z
" transform="scale(0.015625)"/>
      <path id="ArialUnicodeMS-41" d="M 4275 0 
L 3591 0 
L 3053 1394 
L 1141 1394 
L 634 0 
L -6 0 
L 1753 4581 
L 2406 4581 
L 4275 0 
z
M 2869 1875 
Q 2306 3363 2234 3564 
Q 2163 3766 2075 4103 
L 2059 4103 
Q 1972 3641 1825 3247 
L 1313 1875 
L 2869 1875 
z
" transform="scale(0.015625)"/>
      <path id="ArialUnicodeMS-2f" d="M 1778 4581 
L 453 -153 
L 0 -153 
L 1325 4581 
L 1778 4581 
z
" transform="scale(0.015625)"/>
      <path id="ArialUnicodeMS-50" d="M 494 4581 
L 2222 4581 
Q 2631 4581 2926 4540 
Q 3222 4500 3475 4329 
Q 3728 4159 3858 3867 
Q 3988 3575 3988 3256 
Q 3988 2622 3580 2239 
Q 3172 1856 2272 1856 
L 1100 1856 
L 1100 0 
L 494 0 
L 494 4581 
z
M 1100 2400 
L 2278 2400 
Q 3359 2400 3359 3238 
Q 3359 3513 3218 3723 
Q 3078 3934 2873 3986 
Q 2669 4038 2266 4038 
L 1100 4038 
L 1100 2400 
z
" transform="scale(0.015625)"/>
      <path id="ArialUnicodeMS-54" d="M 3769 4038 
L 2253 4038 
L 2253 0 
L 1644 0 
L 1644 4038 
L 141 4038 
L 141 4581 
L 3769 4581 
L 3769 4038 
z
" transform="scale(0.015625)"/>
      <path id="ArialUnicodeMS-4d" d="M 4844 0 
L 4269 0 
L 4269 3834 
L 4256 3834 
L 2938 0 
L 2394 0 
L 1081 3897 
L 1063 3897 
L 1063 0 
L 488 0 
L 488 4581 
L 1394 4581 
L 2478 1338 
Q 2659 797 2688 659 
L 2700 659 
Q 2784 925 2944 1394 
L 4038 4581 
L 4844 4581 
L 4844 0 
z
" transform="scale(0.015625)"/>
      <path id="ArialUnicodeMS-91c7" d="M 5656 4928 
Q 4188 4256 934 4250 
L 738 4722 
Q 1975 4694 3336 4844 
Q 4697 4994 5350 5306 
L 5656 4928 
z
M 5363 4341 
Q 5247 3666 4531 2853 
L 4103 3097 
Q 4763 3759 4928 4525 
L 5363 4341 
z
M 3781 3103 
L 3303 2938 
Q 3175 3659 2700 4078 
L 3206 4256 
Q 3628 3747 3781 3103 
z
M 2284 2931 
L 1831 2713 
Q 1631 3503 1019 3922 
L 1491 4172 
Q 2013 3709 2284 2931 
z
M 6119 531 
L 5831 78 
Q 3900 763 3463 1813 
L 3463 -434 
L 2975 -434 
L 2975 1778 
L 2969 1778 
Q 2231 619 647 31 
L 331 475 
Q 1869 963 2541 1931 
L 703 1931 
L 703 2400 
L 2975 2400 
L 2975 2888 
L 3463 2888 
L 3463 2400 
L 5772 2400 
L 5772 1931 
L 3938 1931 
Q 4563 959 6119 531 
z
" transform="scale(0.015625)"/>
      <path id="ArialUnicodeMS-7528" d="M 5472 159 
Q 5472 -66 5340 -219 
Q 5209 -372 5013 -372 
L 4347 -372 
L 4191 128 
L 4722 113 
Q 4966 113 4966 256 
L 4966 1722 
L 3572 1722 
L 3572 13 
L 3084 13 
L 3084 1722 
L 1678 1722 
Q 1584 466 744 -469 
L 331 -159 
Q 794 394 1001 936 
Q 1209 1478 1209 2194 
L 1209 5044 
L 5472 5044 
L 5472 159 
z
M 4966 3641 
L 4966 4575 
L 3572 4575 
L 3572 3641 
L 4966 3641 
z
M 3084 3641 
L 3084 4575 
L 1697 4575 
L 1697 3641 
L 3084 3641 
z
M 4966 2188 
L 4966 3175 
L 3572 3175 
L 3572 2188 
L 4966 2188 
z
M 3084 2188 
L 3084 3175 
L 1697 3175 
L 1697 2188 
L 3084 2188 
z
" transform="scale(0.015625)"/>
      <path id="ArialUnicodeMS-43" d="M 4372 1453 
Q 4172 681 3673 301 
Q 3175 -78 2478 -78 
Q 1353 -78 839 626 
Q 325 1331 325 2322 
Q 325 3419 929 4039 
Q 1534 4659 2484 4659 
Q 3153 4659 3628 4318 
Q 4103 3978 4294 3322 
L 3700 3181 
Q 3550 3659 3244 3900 
Q 2938 4141 2478 4141 
Q 1728 4141 1340 3648 
Q 953 3156 953 2328 
Q 953 1372 1361 906 
Q 1769 441 2425 441 
Q 2963 441 3298 731 
Q 3634 1022 3769 1606 
L 4372 1453 
z
" transform="scale(0.015625)"/>
      <path id="ArialUnicodeMS-46" d="M 3603 4038 
L 1119 4038 
L 1119 2619 
L 3272 2619 
L 3272 2075 
L 1119 2075 
L 1119 0 
L 513 0 
L 513 4581 
L 3603 4581 
L 3603 4038 
z
" transform="scale(0.015625)"/>
      <path id="ArialUnicodeMS-67" d="M 3144 447 
Q 3144 -259 3003 -607 
Q 2863 -956 2503 -1150 
Q 2144 -1344 1644 -1344 
Q 1081 -1344 706 -1094 
Q 331 -844 331 -275 
L 878 -359 
Q 909 -622 1098 -753 
Q 1288 -884 1638 -884 
Q 2075 -884 2278 -706 
Q 2481 -528 2526 -272 
Q 2572 -16 2572 434 
Q 2206 0 1650 0 
Q 1003 0 611 478 
Q 219 956 219 1684 
Q 219 2416 600 2903 
Q 981 3391 1656 3391 
Q 2244 3391 2613 2919 
L 2625 2919 
L 2625 3316 
L 3144 3316 
L 3144 447 
z
M 1703 459 
Q 2063 459 2341 745 
Q 2619 1031 2619 1703 
Q 2619 2297 2353 2614 
Q 2088 2931 1697 2931 
Q 1297 2931 1045 2606 
Q 794 2281 794 1716 
Q 794 1063 1058 761 
Q 1322 459 1703 459 
z
" transform="scale(0.015625)"/>
      <path id="ArialUnicodeMS-28" d="M 1900 -1344 
L 1497 -1344 
Q 978 -681 681 103 
Q 384 888 384 1656 
Q 384 2528 700 3275 
Q 1016 4022 1497 4659 
L 1900 4659 
Q 1344 3747 1155 3059 
Q 966 2372 966 1663 
Q 966 153 1900 -1344 
z
" transform="scale(0.015625)"/>
      <path id="ArialUnicodeMS-29" d="M 634 4659 
Q 1153 3997 1450 3212 
Q 1747 2428 1747 1656 
Q 1747 788 1431 41 
Q 1116 -706 634 -1344 
L 231 -1344 
Q 788 -431 977 255 
Q 1166 941 1166 1650 
Q 1166 3163 231 4659 
L 634 4659 
z
" transform="scale(0.015625)"/>
      <path id="ArialUnicodeMS-53c2" d="M 6209 2028 
L 5900 1588 
Q 4266 1959 3347 3034 
L 2881 3034 
Q 2119 2103 434 1478 
L 116 1894 
Q 1394 2225 2259 3034 
L 459 3034 
L 459 3500 
L 2644 3500 
Q 2809 3663 2906 3884 
L 1131 3841 
L 991 4313 
L 1672 4306 
Q 2172 4644 2822 5428 
L 3250 5178 
Q 2769 4638 2303 4294 
L 4269 4313 
Q 4191 4391 3706 4703 
L 4025 5006 
Q 4903 4497 5369 3859 
L 4928 3572 
Q 4841 3719 4634 3922 
L 3194 3878 
L 3194 3866 
L 3419 3744 
Q 3350 3638 3225 3500 
L 5888 3500 
L 5888 3034 
L 3956 3034 
Q 4688 2363 6209 2028 
z
M 3628 2419 
Q 2878 1494 1350 1119 
L 1063 1509 
Q 1925 1700 2381 1958 
Q 2838 2216 3297 2706 
L 3628 2419 
z
M 4319 1947 
Q 3516 816 1434 366 
L 1147 794 
Q 3072 1159 3969 2209 
L 4319 1947 
z
M 5125 1516 
Q 3713 -253 1006 -475 
L 738 -13 
Q 3397 141 4763 1791 
L 5125 1516 
z
" transform="scale(0.015625)"/>
      <path id="ArialUnicodeMS-8003" d="M 5947 2975 
L 3750 2975 
Q 3166 2572 2578 2363 
L 2578 2356 
Q 4019 2356 5294 2597 
L 5459 2156 
Q 4903 2038 3923 1969 
Q 2944 1900 2338 1919 
L 2234 1394 
L 5241 1394 
Q 5075 84 4870 -137 
Q 4666 -359 4441 -359 
Q 4094 -359 3003 -178 
L 2888 331 
Q 3800 122 4306 122 
Q 4403 122 4473 195 
Q 4544 269 4563 388 
L 4647 928 
L 2138 928 
L 2047 556 
L 1563 628 
L 1856 1991 
Q 1125 1659 588 1478 
L 306 1953 
Q 1834 2447 2847 2969 
L 2847 2975 
L 569 2975 
L 569 3444 
L 2663 3444 
L 2663 4063 
L 984 4063 
L 984 4531 
L 2663 4531 
L 2663 5350 
L 3169 5350 
L 3169 4531 
L 4513 4531 
L 4513 4294 
L 5269 5131 
L 5703 4806 
Q 4888 3881 4366 3444 
L 5947 3444 
L 5947 2975 
z
M 4256 4063 
L 3169 4063 
L 3169 3444 
L 3547 3444 
Q 3844 3653 4256 4063 
z
" transform="scale(0.015625)"/>
      <path id="ArialUnicodeMS-8bfb" d="M 5959 3284 
Q 5959 3259 5804 2923 
Q 5650 2588 5484 2369 
L 5031 2597 
Q 5331 2978 5441 3225 
L 2100 3225 
L 2100 3694 
L 3769 3694 
L 3769 4263 
L 2425 4263 
L 2425 4703 
L 3769 4703 
L 3769 5344 
L 4256 5344 
L 4256 4703 
L 5638 4703 
L 5638 4263 
L 4256 4263 
L 4256 3694 
L 5959 3694 
L 5959 3284 
z
M 1941 4103 
L 1528 3803 
Q 1156 4472 581 4856 
L 947 5153 
Q 1653 4663 1941 4103 
z
M 2369 569 
L 1253 -84 
L 959 325 
Q 1106 434 1106 581 
L 1106 2894 
L 359 2894 
L 359 3359 
L 1581 3359 
L 1581 641 
L 2369 1063 
L 2369 569 
z
M 3788 2463 
L 3438 2175 
Q 3281 2481 2656 2875 
L 2950 3156 
Q 3478 2894 3788 2463 
z
M 5953 1228 
L 4238 1228 
Q 3813 59 2075 -441 
L 1766 -6 
Q 3381 441 3700 1228 
L 1947 1228 
L 1947 1672 
L 2853 1672 
Q 2534 2084 2100 2297 
L 2419 2591 
Q 2894 2356 3328 1825 
L 3169 1672 
L 3847 1672 
Q 3878 1922 3878 3047 
L 4359 3047 
Q 4366 2909 4366 2588 
Q 4366 1894 4325 1672 
L 5953 1672 
L 5953 1228 
z
M 6016 -63 
L 5672 -441 
Q 5088 206 4072 684 
L 4384 1056 
Q 5366 609 6016 -63 
z
" transform="scale(0.015625)"/>
      <path id="ArialUnicodeMS-6570" d="M 6138 19 
L 5806 -378 
Q 5031 194 4697 716 
Q 4344 144 3328 -441 
L 2981 -50 
Q 3966 434 4403 1153 
Q 4038 1834 3866 2753 
Q 3678 2356 3353 1919 
L 2950 2203 
Q 3838 3172 3963 5253 
L 4409 5125 
Q 4341 4384 4269 4006 
L 5984 4006 
L 5984 3547 
L 5619 3541 
L 5594 3341 
Q 5441 2113 4978 1191 
Q 5281 672 6138 19 
z
M 5166 3541 
L 4172 3541 
Q 4297 2419 4691 1650 
Q 5038 2513 5166 3541 
z
M 3438 3653 
L 2209 3653 
L 2209 2338 
L 1919 2338 
Q 1900 2269 1753 1931 
L 3225 1931 
L 3225 1472 
L 2913 1472 
Q 2763 991 2503 666 
Q 2947 353 3103 184 
L 2747 -172 
Q 2463 138 2150 313 
Q 1322 -225 563 -428 
L 269 6 
Q 1106 163 1684 563 
Q 1291 756 703 884 
L 1038 1472 
L 403 1472 
L 403 1931 
L 1259 1931 
Q 1328 2056 1466 2553 
L 1747 2484 
L 1747 3653 
L 1716 3653 
Q 1413 2881 678 2456 
L 378 2803 
Q 938 3091 1241 3653 
L 403 3653 
L 403 4122 
L 1747 4122 
L 1747 5228 
L 2209 5228 
L 2209 4122 
L 3438 4122 
L 3438 3653 
z
M 2406 1472 
L 1538 1472 
Q 1422 1241 1369 1153 
Q 1388 1159 2069 884 
Q 2219 1031 2406 1472 
z
M 1625 4441 
L 1288 4159 
Q 1022 4547 575 4813 
L 878 5075 
Q 1394 4844 1625 4441 
z
M 3384 4844 
Q 3097 4409 2669 4172 
L 2322 4481 
Q 2806 4759 3047 5069 
L 3384 4844 
z
M 3303 2888 
L 2944 2578 
Q 2706 3025 2291 3297 
L 2584 3566 
Q 2988 3359 3303 2888 
z
" transform="scale(0.015625)"/>
      <path id="ArialUnicodeMS-ff1b" d="M 3541 2675 
L 2900 2675 
L 2900 3316 
L 3541 3316 
L 3541 2675 
z
M 3541 0 
Q 3541 -397 3389 -606 
Q 3238 -816 3016 -903 
L 2863 -666 
Q 3213 -516 3216 0 
L 2900 0 
L 2900 641 
L 3541 641 
L 3541 0 
z
" transform="scale(0.015625)"/>
      <path id="ArialUnicodeMS-53" d="M 3213 3238 
Q 3175 3675 2897 3895 
Q 2619 4116 2100 4116 
Q 1631 4116 1337 3941 
Q 1044 3766 1044 3431 
Q 1044 3134 1270 2989 
Q 1497 2844 2138 2700 
Q 2706 2575 3065 2444 
Q 3425 2313 3681 2036 
Q 3938 1759 3938 1294 
Q 3938 703 3467 312 
Q 2997 -78 2241 -78 
Q 1275 -78 795 353 
Q 316 784 288 1472 
L 863 1522 
Q 903 972 1287 720 
Q 1672 469 2216 469 
Q 2725 469 3039 678 
Q 3353 888 3353 1247 
Q 3353 1622 3025 1794 
Q 2697 1966 1923 2133 
Q 1150 2300 809 2603 
Q 469 2906 469 3391 
Q 469 3941 900 4300 
Q 1331 4659 2075 4659 
Q 2838 4659 3302 4301 
Q 3766 3944 3794 3284 
L 3213 3238 
z
" transform="scale(0.015625)"/>
      <path id="ArialUnicodeMS-4f7f" d="M 6303 84 
L 6009 -378 
Q 5394 -328 4664 -104 
Q 3934 119 3525 397 
Q 3059 -59 2194 -453 
L 1819 -25 
Q 2713 288 3103 691 
Q 2803 944 2291 1588 
L 2706 1850 
Q 3078 1341 3425 1075 
Q 3641 1409 3688 1931 
L 2234 1931 
L 2234 3719 
L 3713 3719 
L 3713 4141 
L 1875 4141 
L 1684 3669 
L 1684 -469 
L 1184 -469 
L 1184 2772 
Q 981 2431 678 2041 
L 319 2363 
Q 1153 3313 1753 5331 
L 2203 5166 
L 2034 4628 
L 3713 4628 
L 3713 5350 
L 4219 5350 
L 4219 4628 
L 5947 4628 
L 5947 4141 
L 4219 4141 
L 4219 3719 
L 5709 3719 
L 5709 1931 
L 4197 1931 
Q 4106 1203 3841 781 
Q 4734 256 6303 84 
z
M 5191 2419 
L 5191 3250 
L 4219 3250 
L 4219 2419 
L 5191 2419 
z
M 3713 2419 
L 3713 3231 
L 2725 3231 
L 2725 2419 
L 3713 2419 
z
" transform="scale(0.015625)"/>
      <path id="ArialUnicodeMS-672c" d="M 6113 1184 
L 5766 775 
Q 5031 1316 4457 1961 
Q 3884 2606 3444 3922 
L 3444 1613 
L 4678 1613 
L 4678 1147 
L 3444 1147 
L 3444 -428 
L 2956 -428 
L 2956 1147 
L 1728 1147 
L 1728 1613 
L 2950 1613 
L 2950 3872 
Q 2413 2063 659 744 
L 263 1125 
Q 1884 2178 2419 3822 
L 641 3822 
L 641 4288 
L 2956 4288 
L 2956 5294 
L 3444 5294 
L 3444 4288 
L 5728 4288 
L 5728 3822 
L 4019 3822 
Q 4450 2203 6113 1184 
z
" transform="scale(0.015625)"/>
      <path id="ArialUnicodeMS-5730" d="M 5984 934 
Q 5844 191 5708 -70 
Q 5572 -331 5288 -331 
L 3150 -331 
Q 2650 -331 2650 191 
L 2650 2316 
L 2309 2203 
L 2144 2669 
L 2650 2816 
L 2650 4109 
L 3138 4109 
L 3138 2963 
L 3816 3175 
L 3816 5172 
L 4300 5172 
L 4300 3284 
L 5650 3653 
Q 5584 2619 5482 1981 
Q 5381 1344 5267 1194 
Q 5153 1044 4972 1044 
Q 4759 1044 4434 1125 
L 4353 1678 
Q 4769 1497 4800 1497 
Q 4997 1497 5125 3016 
L 4300 2797 
L 4300 750 
L 3816 750 
L 3816 2650 
L 3138 2438 
L 3138 306 
Q 3138 134 3291 134 
L 5222 134 
Q 5363 134 5428 506 
L 5528 1088 
L 5984 934 
z
M 2444 903 
L 641 263 
L 359 666 
L 1228 947 
L 1228 2888 
L 519 2888 
L 519 3353 
L 1228 3353 
L 1228 4716 
L 1716 4716 
L 1716 3353 
L 2388 3353 
L 2388 2888 
L 1716 2888 
L 1716 1147 
L 2444 1388 
L 2444 903 
z
" transform="scale(0.015625)"/>
      <path id="ArialUnicodeMS-5b9e" d="M 5791 3513 
L 5306 3513 
L 5306 4103 
L 1063 4103 
L 1063 3513 
L 575 3513 
L 575 4569 
L 3144 4569 
Q 2956 4859 2547 5094 
L 2913 5325 
Q 3375 5066 3591 4666 
L 3384 4581 
L 3384 4569 
L 5791 4569 
L 5791 3513 
z
M 3122 3066 
L 2741 2803 
Q 2453 3331 1856 3731 
L 2181 4006 
Q 2759 3669 3122 3066 
z
M 5894 1684 
L 3634 1684 
Q 3063 131 831 -366 
L 469 72 
Q 2528 400 3109 1684 
L 469 1684 
L 469 2150 
L 3256 2150 
Q 3366 2500 3366 3022 
L 3366 3903 
L 3847 3903 
Q 3847 2459 3756 2150 
L 5894 2150 
L 5894 1684 
z
M 2450 2478 
L 2100 2188 
Q 1769 2722 1191 3084 
L 1503 3372 
Q 2100 3031 2450 2478 
z
M 5947 -13 
L 5613 -391 
Q 4900 422 3566 1006 
L 3816 1363 
Q 5075 866 5947 -13 
z
" transform="scale(0.015625)"/>
      <path id="ArialUnicodeMS-6d4b" d="M 5631 31 
Q 5631 -159 5501 -270 
Q 5372 -381 5247 -378 
L 4647 -366 
L 4475 128 
L 5019 72 
Q 5147 72 5147 197 
L 5147 5300 
L 5631 5300 
L 5631 31 
z
M 1766 4422 
L 1434 4097 
Q 1069 4584 469 4928 
L 750 5234 
Q 1344 4934 1766 4422 
z
M 3859 1209 
L 3406 1209 
L 3406 4469 
L 2316 4469 
L 2316 1209 
L 1863 1209 
L 1863 4909 
L 3859 4909 
L 3859 1209 
z
M 4697 1031 
L 4275 1031 
L 4275 4378 
L 4697 4378 
L 4697 1031 
z
M 3078 2113 
Q 3078 1225 2779 669 
Q 2481 113 1728 -403 
L 1416 -6 
Q 2516 656 2591 1644 
L 2625 2059 
L 2625 4013 
L 3078 4013 
L 3078 2113 
z
M 1563 3016 
L 1228 2681 
Q 922 3172 325 3541 
L 603 3847 
Q 1181 3534 1563 3016 
z
M 1772 2028 
Q 1516 603 703 -306 
L 306 13 
Q 1172 1047 1394 2228 
L 1772 2028 
z
M 4409 -78 
L 4013 -331 
Q 3625 397 3053 878 
L 3353 1141 
Q 3966 663 4409 -78 
z
" transform="scale(0.015625)"/>
      <path id="ArialUnicodeMS-65f6" d="M 5931 3481 
L 5259 3481 
L 5259 72 
Q 5259 -122 5142 -259 
Q 5025 -397 4863 -397 
L 4281 -397 
L 4097 122 
L 4672 78 
Q 4775 66 4775 191 
L 4775 3481 
L 2784 3481 
L 2784 3950 
L 4775 3950 
L 4775 5306 
L 5259 5306 
L 5259 3950 
L 5931 3950 
L 5931 3481 
z
M 2463 97 
L 1978 97 
L 1978 569 
L 1147 569 
L 1147 97 
L 659 97 
L 659 4313 
L 2463 4313 
L 2463 97 
z
M 1978 2675 
L 1978 3847 
L 1147 3847 
L 1147 2675 
L 1978 2675 
z
M 1978 1038 
L 1978 2209 
L 1147 2209 
L 1147 1038 
L 1978 1038 
z
M 4306 1575 
L 3903 1300 
Q 3594 2103 2888 2725 
L 3272 2994 
Q 3997 2375 4306 1575 
z
" transform="scale(0.015625)"/>
      <path id="ArialUnicodeMS-95f4" d="M 2463 4313 
L 2088 4006 
Q 1600 4669 1094 4984 
L 1484 5247 
Q 2044 4888 2463 4313 
z
M 5497 178 
Q 5497 -50 5353 -181 
Q 5209 -313 4853 -313 
Q 4753 -313 4506 -300 
L 4366 147 
Q 4631 106 4806 106 
Q 4991 106 5002 142 
Q 5013 178 5013 275 
L 5013 4453 
L 2841 4453 
L 2841 4922 
L 5497 4922 
L 5497 178 
z
M 1125 -384 
L 641 -384 
L 641 4197 
L 1125 4197 
L 1125 -384 
z
M 4306 481 
L 3822 481 
L 3822 813 
L 2375 813 
L 2375 481 
L 1888 481 
L 1888 3669 
L 4306 3669 
L 4306 481 
z
M 3822 2559 
L 3822 3200 
L 2375 3200 
L 2375 2559 
L 3822 2559 
z
M 3822 1281 
L 3822 2094 
L 2375 2094 
L 2375 1281 
L 3822 1281 
z
" transform="scale(0.015625)"/>
      <path id="ArialUnicodeMS-3002" d="M 1466 1503 
Q 1847 1503 2117 1231 
Q 2388 959 2388 575 
Q 2388 194 2119 -76 
Q 1850 -347 1472 -347 
Q 1091 -347 820 -76 
Q 550 194 550 575 
Q 550 959 819 1231 
Q 1088 1503 1466 1503 
z
M 1469 44 
Q 1691 44 1845 201 
Q 2000 359 2000 581 
Q 2000 803 1844 958 
Q 1688 1113 1469 1113 
Q 1250 1113 1094 958 
Q 938 803 938 581 
Q 938 359 1092 201 
Q 1247 44 1469 44 
z
" transform="scale(0.015625)"/>
     </defs>
     <use xlink:href="#ArialUnicodeMS-6ce8"/>
     <use xlink:href="#ArialUnicodeMS-ff1a" transform="translate(100 0)"/>
     <use xlink:href="#ArialUnicodeMS-47" transform="translate(200 0)"/>
     <use xlink:href="#ArialUnicodeMS-72" transform="translate(277.783203 0)"/>
     <use xlink:href="#ArialUnicodeMS-61" transform="translate(311.083984 0)"/>
     <use xlink:href="#ArialUnicodeMS-70" transform="translate(366.699219 0)"/>
     <use xlink:href="#ArialUnicodeMS-68" transform="translate(422.314453 0)"/>
     <use xlink:href="#ArialUnicodeMS-52" transform="translate(477.929688 0)"/>
     <use xlink:href="#ArialUnicodeMS-41" transform="translate(550.146484 0)"/>
     <use xlink:href="#ArialUnicodeMS-47" transform="translate(616.845703 0)"/>
     <use xlink:href="#ArialUnicodeMS-2f" transform="translate(694.628906 0)"/>
     <use xlink:href="#ArialUnicodeMS-52" transform="translate(722.412109 0)"/>
     <use xlink:href="#ArialUnicodeMS-41" transform="translate(794.628906 0)"/>
     <use xlink:href="#ArialUnicodeMS-50" transform="translate(861.328125 0)"/>
     <use xlink:href="#ArialUnicodeMS-54" transform="translate(928.027344 0)"/>
     <use xlink:href="#ArialUnicodeMS-4f" transform="translate(989.111328 0)"/>
     <use xlink:href="#ArialUnicodeMS-52" transform="translate(1066.894531 0)"/>
     <use xlink:href="#ArialUnicodeMS-2f" transform="translate(1139.111328 0)"/>
     <use xlink:href="#ArialUnicodeMS-4d" transform="translate(1166.894531 0)"/>
     <use xlink:href="#ArialUnicodeMS-65" transform="translate(1250.195312 0)"/>
     <use xlink:href="#ArialUnicodeMS-6d" transform="translate(1305.810547 0)"/>
     <use xlink:href="#ArialUnicodeMS-54" transform="translate(1389.111328 0)"/>
     <use xlink:href="#ArialUnicodeMS-72" transform="translate(1450.195312 0)"/>
     <use xlink:href="#ArialUnicodeMS-65" transform="translate(1483.496094 0)"/>
     <use xlink:href="#ArialUnicodeMS-65" transform="translate(1539.111328 0)"/>
     <use xlink:href="#ArialUnicodeMS-20" transform="translate(1594.726562 0)"/>
     <use xlink:href="#ArialUnicodeMS-91c7" transform="translate(1622.509766 0)"/>
     <use xlink:href="#ArialUnicodeMS-7528" transform="translate(1722.509766 0)"/>
     <use xlink:href="#ArialUnicodeMS-20" transform="translate(1822.509766 0)"/>
     <use xlink:href="#ArialUnicodeMS-43" transform="translate(1850.292969 0)"/>
     <use xlink:href="#ArialUnicodeMS-41" transform="translate(1922.509766 0)"/>
     <use xlink:href="#ArialUnicodeMS-4d" transform="translate(1989.208984 0)"/>
     <use xlink:href="#ArialUnicodeMS-20" transform="translate(2072.509766 0)"/>
     <use xlink:href="#ArialUnicodeMS-46" transform="translate(2100.292969 0)"/>
     <use xlink:href="#ArialUnicodeMS-69" transform="translate(2161.376953 0)"/>
     <use xlink:href="#ArialUnicodeMS-67" transform="translate(2183.59375 0)"/>
     <use xlink:href="#ArialUnicodeMS-75" transform="translate(2239.208984 0)"/>
     <use xlink:href="#ArialUnicodeMS-72" transform="translate(2294.824219 0)"/>
     <use xlink:href="#ArialUnicodeMS-65" transform="translate(2328.125 0)"/>
     <use xlink:href="#ArialUnicodeMS-20" transform="translate(2383.740234 0)"/>
     <use xlink:href="#ArialUnicodeMS-33" transform="translate(2411.523438 0)"/>
     <use xlink:href="#ArialUnicodeMS-28" transform="translate(2467.138672 0)"/>
     <use xlink:href="#ArialUnicodeMS-61" transform="translate(2500.439453 0)"/>
     <use xlink:href="#ArialUnicodeMS-29" transform="translate(2556.054688 0)"/>
     <use xlink:href="#ArialUnicodeMS-20" transform="translate(2589.355469 0)"/>
     <use xlink:href="#ArialUnicodeMS-53c2" transform="translate(2617.138672 0)"/>
     <use xlink:href="#ArialUnicodeMS-8003" transform="translate(2717.138672 0)"/>
     <use xlink:href="#ArialUnicodeMS-8bfb" transform="translate(2817.138672 0)"/>
     <use xlink:href="#ArialUnicodeMS-6570" transform="translate(2917.138672 0)"/>
     <use xlink:href="#ArialUnicodeMS-ff1b" transform="translate(3017.138672 0)"/>
     <use xlink:href="#ArialUnicodeMS-53" transform="translate(3117.138672 0)"/>
     <use xlink:href="#ArialUnicodeMS-41" transform="translate(3183.837891 0)"/>
     <use xlink:href="#ArialUnicodeMS-4d" transform="translate(3250.537109 0)"/>
     <use xlink:href="#ArialUnicodeMS-20" transform="translate(3333.837891 0)"/>
     <use xlink:href="#ArialUnicodeMS-4f7f" transform="translate(3361.621094 0)"/>
     <use xlink:href="#ArialUnicodeMS-7528" transform="translate(3461.621094 0)"/>
     <use xlink:href="#ArialUnicodeMS-672c" transform="translate(3561.621094 0)"/>
     <use xlink:href="#ArialUnicodeMS-5730" transform="translate(3661.621094 0)"/>
     <use xlink:href="#ArialUnicodeMS-5b9e" transform="translate(3761.621094 0)"/>
     <use xlink:href="#ArialUnicodeMS-6d4b" transform="translate(3861.621094 0)"/>
     <use xlink:href="#ArialUnicodeMS-65f6" transform="translate(3961.621094 0)"/>
     <use xlink:href="#ArialUnicodeMS-95f4" transform="translate(4061.621094 0)"/>
     <use xlink:href="#ArialUnicodeMS-3002" transform="translate(4161.621094 0)"/>
    </g>
   </g>
   <g id="text_20">
    <!-- 在线批量插入时间 vs. batch size -->
    <g style="fill: #262626" transform="translate(47.245625 16.505156) scale(0.13 -0.13)">
     <defs>
      <path id="ArialUnicodeMS-5728" d="M 5741 3909 
L 2522 3909 
Q 2197 3278 2047 3053 
L 2047 -416 
L 1550 -416 
L 1550 2400 
Q 1284 2050 684 1491 
L 313 1863 
Q 1363 2703 1959 3909 
L 647 3909 
L 647 4384 
L 2175 4384 
Q 2397 4903 2478 5350 
L 2988 5203 
L 2719 4384 
L 5741 4384 
L 5741 3909 
z
M 5894 -50 
L 2234 -50 
L 2234 422 
L 3675 422 
L 3675 1991 
L 2419 1991 
L 2419 2463 
L 3675 2463 
L 3675 3531 
L 4166 3531 
L 4166 2463 
L 5556 2463 
L 5556 1991 
L 4166 1991 
L 4166 422 
L 5894 422 
L 5894 -50 
z
" transform="scale(0.015625)"/>
      <path id="ArialUnicodeMS-7ebf" d="M 2503 3981 
Q 1903 2625 1141 1947 
L 1153 1931 
L 2444 2144 
L 2456 1709 
Q 1428 1534 575 1313 
L 341 1772 
Q 934 2234 1344 2919 
L 563 2725 
L 347 3206 
Q 1059 4156 1325 5319 
Q 1403 5288 1551 5209 
Q 1700 5131 1791 5100 
Q 1441 3947 959 3316 
Q 1597 3375 1650 3397 
Q 1944 3938 2059 4225 
L 2503 3981 
z
M 5997 481 
Q 5925 44 5808 -170 
Q 5691 -384 5497 -384 
Q 5319 -384 4869 -115 
Q 4419 153 4031 666 
Q 3594 188 2388 -341 
L 2088 72 
Q 3097 466 3763 1088 
Q 3503 1550 3406 2419 
L 2484 2272 
L 2406 2725 
L 3378 2900 
L 3378 3397 
L 2606 3278 
L 2522 3731 
L 3378 3891 
L 3378 5209 
Q 3763 5288 3866 5294 
L 3866 3975 
L 5409 4231 
L 5497 3781 
Q 4550 3622 3866 3481 
L 3866 2994 
L 5772 3341 
Q 5825 3150 5856 2875 
L 3884 2516 
Q 3988 1794 4147 1466 
Q 4731 1991 5075 2484 
L 5453 2222 
Q 4731 1353 4372 1025 
Q 4753 456 5403 153 
Q 5494 378 5509 750 
L 5997 481 
z
M 5166 4544 
L 4831 4225 
Q 4478 4656 4019 4856 
L 4306 5178 
Q 4784 4956 5166 4544 
z
M 2578 872 
L 531 134 
Q 500 197 412 347 
Q 325 497 281 603 
L 2578 1369 
L 2578 872 
z
" transform="scale(0.015625)"/>
      <path id="ArialUnicodeMS-6279" d="M 2484 2203 
L 1791 1925 
L 1791 56 
Q 1791 -444 1166 -453 
L 756 -459 
L 556 56 
Q 969 31 1056 31 
Q 1288 31 1288 225 
L 1288 1753 
L 544 1447 
L 288 1888 
L 1288 2247 
L 1288 3553 
L 525 3553 
L 525 4019 
L 1288 4019 
L 1288 5269 
L 1791 5269 
L 1791 4019 
L 2456 4019 
L 2456 3553 
L 1791 3553 
L 1791 2425 
L 2484 2694 
L 2484 2203 
z
M 6150 966 
Q 6013 56 5806 -78 
Q 5600 -213 5363 -213 
L 4800 -213 
Q 4256 -213 4256 372 
L 4256 5147 
L 4744 5147 
L 4744 3194 
Q 5213 3391 5716 3916 
L 6053 3553 
Q 5563 2991 4744 2681 
L 4744 447 
Q 4744 256 4947 256 
L 5363 256 
Q 5484 256 5536 392 
Q 5588 528 5650 1184 
L 6150 966 
z
M 4056 184 
L 2234 -397 
L 1984 91 
L 2644 269 
L 2644 5147 
L 3128 5147 
L 3128 3463 
L 4031 3463 
L 4031 2994 
L 3128 2994 
L 3128 409 
L 4056 722 
L 4056 184 
z
" transform="scale(0.015625)"/>
      <path id="ArialUnicodeMS-91cf" d="M 5056 3378 
L 1313 3378 
L 1313 5050 
L 5056 5050 
L 5056 3378 
z
M 4569 4403 
L 4569 4609 
L 1797 4609 
L 1797 4403 
L 4569 4403 
z
M 4569 3794 
L 4569 4031 
L 1797 4031 
L 1797 3794 
L 4569 3794 
z
M 5797 2816 
L 581 2816 
L 581 3231 
L 5797 3231 
L 5797 2816 
z
M 6059 -191 
L 341 -191 
L 341 275 
L 2950 275 
L 2950 459 
L 897 459 
L 897 878 
L 2950 878 
L 2950 1044 
L 1125 1044 
L 1125 2669 
L 5269 2669 
L 5269 1044 
L 3438 1044 
L 3438 878 
L 5509 878 
L 5509 459 
L 3438 459 
L 3438 275 
L 6059 275 
L 6059 -191 
z
M 4781 2053 
L 4781 2253 
L 3438 2253 
L 3438 2053 
L 4781 2053 
z
M 2950 2053 
L 2950 2253 
L 1613 2253 
L 1613 2053 
L 2950 2053 
z
M 4781 1459 
L 4781 1697 
L 3438 1697 
L 3438 1459 
L 4781 1459 
z
M 2950 1459 
L 2950 1697 
L 1613 1697 
L 1613 1459 
L 2950 1459 
z
" transform="scale(0.015625)"/>
      <path id="ArialUnicodeMS-63d2" d="M 6016 3525 
L 4281 3525 
L 4281 481 
L 5141 481 
L 5141 1394 
L 4538 1394 
L 4538 1863 
L 5141 1863 
L 5141 2631 
L 4409 2631 
L 4409 3097 
L 5625 3097 
L 5625 -428 
L 5141 -428 
L 5141 13 
L 2963 13 
L 2963 -453 
L 2478 -453 
L 2478 2809 
Q 3172 3000 3500 3456 
L 3794 3109 
L 3794 3525 
L 2241 3525 
L 2241 3559 
L 1753 3559 
L 1753 2472 
Q 1947 2569 2303 2766 
L 2303 2247 
L 1753 1997 
L 1753 134 
Q 1753 -94 1631 -245 
Q 1509 -397 1356 -417 
Q 1203 -438 813 -447 
L 616 19 
Q 763 28 828 28 
L 997 22 
Q 1269 22 1269 191 
L 1269 1772 
L 641 1478 
L 306 1844 
Q 672 1988 1269 2266 
L 1269 3559 
L 416 3559 
L 416 4025 
L 1269 4025 
L 1269 5247 
L 1753 5247 
L 1753 4025 
L 2241 4025 
L 2241 3994 
L 3794 3994 
L 3794 4447 
Q 2869 4363 2375 4341 
L 2119 4831 
Q 4447 4850 5466 5350 
L 5797 4972 
Q 5222 4691 4281 4525 
L 4281 3994 
L 6016 3994 
L 6016 3525 
z
M 3794 481 
L 3794 3078 
L 3781 3078 
Q 3594 2756 2963 2497 
L 2963 1863 
L 3584 1863 
L 3584 1394 
L 2963 1394 
L 2963 481 
L 3794 481 
z
" transform="scale(0.015625)"/>
      <path id="ArialUnicodeMS-5165" d="M 5972 184 
L 5663 -238 
Q 3931 872 3406 2478 
Q 2675 722 844 -244 
L 544 178 
Q 1822 844 2483 1855 
Q 3144 2866 3144 3194 
L 3128 4453 
L 1991 4453 
L 1991 4922 
L 3609 4922 
L 3603 4575 
Q 3575 3106 4158 2050 
Q 4741 994 5972 184 
z
" transform="scale(0.015625)"/>
      <path id="ArialUnicodeMS-76" d="M 3122 3316 
L 1869 0 
L 1344 0 
L 84 3316 
L 678 3316 
L 1363 1397 
Q 1556 853 1594 659 
L 1606 659 
Q 1656 859 1778 1197 
L 2547 3316 
L 3122 3316 
z
" transform="scale(0.015625)"/>
     </defs>
     <use xlink:href="#ArialUnicodeMS-5728"/>
     <use xlink:href="#ArialUnicodeMS-7ebf" transform="translate(100 0)"/>
     <use xlink:href="#ArialUnicodeMS-6279" transform="translate(200 0)"/>
     <use xlink:href="#ArialUnicodeMS-91cf" transform="translate(300 0)"/>
     <use xlink:href="#ArialUnicodeMS-63d2" transform="translate(400 0)"/>
     <use xlink:href="#ArialUnicodeMS-5165" transform="translate(500 0)"/>
     <use xlink:href="#ArialUnicodeMS-65f6" transform="translate(600 0)"/>
     <use xlink:href="#ArialUnicodeMS-95f4" transform="translate(700 0)"/>
     <use xlink:href="#ArialUnicodeMS-20" transform="translate(800 0)"/>
     <use xlink:href="#ArialUnicodeMS-76" transform="translate(827.783203 0)"/>
     <use xlink:href="#ArialUnicodeMS-73" transform="translate(877.783203 0)"/>
     <use xlink:href="#ArialUnicodeMS-2e" transform="translate(927.783203 0)"/>
     <use xlink:href="#ArialUnicodeMS-20" transform="translate(955.566406 0)"/>
     <use xlink:href="#ArialUnicodeMS-62" transform="translate(983.349609 0)"/>
     <use xlink:href="#ArialUnicodeMS-61" transform="translate(1038.964844 0)"/>
     <use xlink:href="#ArialUnicodeMS-74" transform="translate(1094.580078 0)"/>
     <use xlink:href="#ArialUnicodeMS-63" transform="translate(1122.363281 0)"/>
     <use xlink:href="#ArialUnicodeMS-68" transform="translate(1172.363281 0)"/>
     <use xlink:href="#ArialUnicodeMS-20" transform="translate(1227.978516 0)"/>
     <use xlink:href="#ArialUnicodeMS-73" transform="translate(1255.761719 0)"/>
     <use xlink:href="#ArialUnicodeMS-69" transform="translate(1305.761719 0)"/>
     <use xlink:href="#ArialUnicodeMS-7a" transform="translate(1327.978516 0)"/>
     <use xlink:href="#ArialUnicodeMS-65" transform="translate(1377.978516 0)"/>
    </g>
   </g>
   <g id="legend_1">
    <g id="patch_5">
     <path d="M 53.545625 81.472031 
L 186.364531 81.472031 
Q 188.164531 81.472031 188.164531 79.672031 
L 188.164531 28.805156 
Q 188.164531 27.005156 186.364531 27.005156 
L 53.545625 27.005156 
Q 51.745625 27.005156 51.745625 28.805156 
L 51.745625 79.672031 
Q 51.745625 81.472031 53.545625 81.472031 
z
" style="fill: #ffffff; opacity: 0.92"/>
    </g>
    <g id="line2d_16">
     <path d="M 55.345625 34.006875 
L 64.345625 34.006875 
L 73.345625 34.006875 
" style="fill: none; stroke-dasharray: 2.2,2.2; stroke-dashoffset: 0; stroke: #8a8a8a; stroke-width: 2.2"/>
    </g>
    <g id="text_21">
     <!-- GraphRAG (Offline, CAM) -->
     <g style="fill: #262626" transform="translate(80.545625 37.156875) scale(0.09 -0.09)">
      <defs>
       <path id="ArialUnicodeMS-66" d="M 1991 4603 
L 1906 4109 
Q 1738 4141 1575 4141 
Q 1372 4141 1242 4055 
Q 1113 3969 1113 3628 
L 1113 3316 
L 1753 3316 
L 1753 2881 
L 1113 2881 
L 1113 0 
L 550 0 
L 550 2881 
L 50 2881 
L 50 3316 
L 550 3316 
L 550 3675 
Q 550 3925 597 4128 
Q 644 4331 845 4495 
Q 1047 4659 1466 4659 
Q 1716 4659 1991 4603 
z
" transform="scale(0.015625)"/>
       <path id="ArialUnicodeMS-2c" d="M 1216 0 
Q 1216 -397 1064 -606 
Q 913 -816 691 -903 
L 538 -666 
Q 888 -516 891 0 
L 575 0 
L 575 641 
L 1216 641 
L 1216 0 
z
" transform="scale(0.015625)"/>
      </defs>
      <use xlink:href="#ArialUnicodeMS-47"/>
      <use xlink:href="#ArialUnicodeMS-72" transform="translate(77.783203 0)"/>
      <use xlink:href="#ArialUnicodeMS-61" transform="translate(111.083984 0)"/>
      <use xlink:href="#ArialUnicodeMS-70" transform="translate(166.699219 0)"/>
      <use xlink:href="#ArialUnicodeMS-68" transform="translate(222.314453 0)"/>
      <use xlink:href="#ArialUnicodeMS-52" transform="translate(277.929688 0)"/>
      <use xlink:href="#ArialUnicodeMS-41" transform="translate(350.146484 0)"/>
      <use xlink:href="#ArialUnicodeMS-47" transform="translate(416.845703 0)"/>
      <use xlink:href="#ArialUnicodeMS-20" transform="translate(494.628906 0)"/>
      <use xlink:href="#ArialUnicodeMS-28" transform="translate(522.412109 0)"/>
      <use xlink:href="#ArialUnicodeMS-4f" transform="translate(555.712891 0)"/>
      <use xlink:href="#ArialUnicodeMS-66" transform="translate(633.496094 0)"/>
      <use xlink:href="#ArialUnicodeMS-66" transform="translate(661.279297 0)"/>
      <use xlink:href="#ArialUnicodeMS-6c" transform="translate(689.0625 0)"/>
      <use xlink:href="#ArialUnicodeMS-69" transform="translate(711.279297 0)"/>
      <use xlink:href="#ArialUnicodeMS-6e" transform="translate(733.496094 0)"/>
      <use xlink:href="#ArialUnicodeMS-65" transform="translate(789.111328 0)"/>
      <use xlink:href="#ArialUnicodeMS-2c" transform="translate(844.726562 0)"/>
      <use xlink:href="#ArialUnicodeMS-20" transform="translate(872.509766 0)"/>
      <use xlink:href="#ArialUnicodeMS-43" transform="translate(900.292969 0)"/>
      <use xlink:href="#ArialUnicodeMS-41" transform="translate(972.509766 0)"/>
      <use xlink:href="#ArialUnicodeMS-4d" transform="translate(1039.208984 0)"/>
      <use xlink:href="#ArialUnicodeMS-29" transform="translate(1122.509766 0)"/>
     </g>
    </g>
    <g id="line2d_17">
     <path d="M 55.345625 46.948594 
L 64.345625 46.948594 
L 73.345625 46.948594 
" style="fill: none; stroke-dasharray: 6.6,4.4; stroke-dashoffset: 0; stroke: #9a9a9a; stroke-width: 2.2"/>
    </g>
    <g id="text_22">
     <!-- RAPTOR (Offline, CAM) -->
     <g style="fill: #262626" transform="translate(80.545625 50.098594) scale(0.09 -0.09)">
      <use xlink:href="#ArialUnicodeMS-52"/>
      <use xlink:href="#ArialUnicodeMS-41" transform="translate(72.216797 0)"/>
      <use xlink:href="#ArialUnicodeMS-50" transform="translate(138.916016 0)"/>
      <use xlink:href="#ArialUnicodeMS-54" transform="translate(205.615234 0)"/>
      <use xlink:href="#ArialUnicodeMS-4f" transform="translate(266.699219 0)"/>
      <use xlink:href="#ArialUnicodeMS-52" transform="translate(344.482422 0)"/>
      <use xlink:href="#ArialUnicodeMS-20" transform="translate(416.699219 0)"/>
      <use xlink:href="#ArialUnicodeMS-28" transform="translate(444.482422 0)"/>
      <use xlink:href="#ArialUnicodeMS-4f" transform="translate(477.783203 0)"/>
      <use xlink:href="#ArialUnicodeMS-66" transform="translate(555.566406 0)"/>
      <use xlink:href="#ArialUnicodeMS-66" transform="translate(583.349609 0)"/>
      <use xlink:href="#ArialUnicodeMS-6c" transform="translate(611.132812 0)"/>
      <use xlink:href="#ArialUnicodeMS-69" transform="translate(633.349609 0)"/>
      <use xlink:href="#ArialUnicodeMS-6e" transform="translate(655.566406 0)"/>
      <use xlink:href="#ArialUnicodeMS-65" transform="translate(711.181641 0)"/>
      <use xlink:href="#ArialUnicodeMS-2c" transform="translate(766.796875 0)"/>
      <use xlink:href="#ArialUnicodeMS-20" transform="translate(794.580078 0)"/>
      <use xlink:href="#ArialUnicodeMS-43" transform="translate(822.363281 0)"/>
      <use xlink:href="#ArialUnicodeMS-41" transform="translate(894.580078 0)"/>
      <use xlink:href="#ArialUnicodeMS-4d" transform="translate(961.279297 0)"/>
      <use xlink:href="#ArialUnicodeMS-29" transform="translate(1044.580078 0)"/>
     </g>
    </g>
    <g id="line2d_18">
     <path d="M 55.345625 59.890312 
L 64.345625 59.890312 
L 73.345625 59.890312 
" style="fill: none; stroke: #1f77b4; stroke-width: 2.4; stroke-linecap: round"/>
     <g>
      <use xlink:href="#mabb6063a93" x="64.345625" y="59.890312" style="fill: #1f77b4; stroke: #1f77b4"/>
     </g>
    </g>
    <g id="text_23">
     <!-- MemTree (Online, CAM) -->
     <g style="fill: #262626" transform="translate(80.545625 63.040312) scale(0.09 -0.09)">
      <use xlink:href="#ArialUnicodeMS-4d"/>
      <use xlink:href="#ArialUnicodeMS-65" transform="translate(83.300781 0)"/>
      <use xlink:href="#ArialUnicodeMS-6d" transform="translate(138.916016 0)"/>
      <use xlink:href="#ArialUnicodeMS-54" transform="translate(222.216797 0)"/>
      <use xlink:href="#ArialUnicodeMS-72" transform="translate(283.300781 0)"/>
      <use xlink:href="#ArialUnicodeMS-65" transform="translate(316.601562 0)"/>
      <use xlink:href="#ArialUnicodeMS-65" transform="translate(372.216797 0)"/>
      <use xlink:href="#ArialUnicodeMS-20" transform="translate(427.832031 0)"/>
      <use xlink:href="#ArialUnicodeMS-28" transform="translate(455.615234 0)"/>
      <use xlink:href="#ArialUnicodeMS-4f" transform="translate(488.916016 0)"/>
      <use xlink:href="#ArialUnicodeMS-6e" transform="translate(566.699219 0)"/>
      <use xlink:href="#ArialUnicodeMS-6c" transform="translate(622.314453 0)"/>
      <use xlink:href="#ArialUnicodeMS-69" transform="translate(644.53125 0)"/>
      <use xlink:href="#ArialUnicodeMS-6e" transform="translate(666.748047 0)"/>
      <use xlink:href="#ArialUnicodeMS-65" transform="translate(722.363281 0)"/>
      <use xlink:href="#ArialUnicodeMS-2c" transform="translate(777.978516 0)"/>
      <use xlink:href="#ArialUnicodeMS-20" transform="translate(805.761719 0)"/>
      <use xlink:href="#ArialUnicodeMS-43" transform="translate(833.544922 0)"/>
      <use xlink:href="#ArialUnicodeMS-41" transform="translate(905.761719 0)"/>
      <use xlink:href="#ArialUnicodeMS-4d" transform="translate(972.460938 0)"/>
      <use xlink:href="#ArialUnicodeMS-29" transform="translate(1055.761719 0)"/>
     </g>
    </g>
    <g id="line2d_19">
     <path d="M 55.345625 72.832031 
L 64.345625 72.832031 
L 73.345625 72.832031 
" style="fill: none; stroke: #d66b2d; stroke-width: 2.4; stroke-linecap: round"/>
     <g>
      <use xlink:href="#m8ed45dcca5" x="64.345625" y="72.832031" style="fill: #d66b2d; stroke: #d66b2d; stroke-linejoin: miter"/>
     </g>
    </g>
    <g id="text_24">
     <!-- SAM (Online, measured) -->
     <g style="fill: #262626" transform="translate(80.545625 75.982031) scale(0.09 -0.09)">
      <defs>
       <path id="ArialUnicodeMS-64" d="M 3109 0 
L 2584 0 
L 2584 422 
L 2572 422 
Q 2269 -78 1656 -78 
Q 1047 -78 639 405 
Q 231 888 231 1656 
Q 231 2459 615 2925 
Q 1000 3391 1631 3391 
Q 2225 3391 2534 2938 
L 2547 2938 
L 2547 4581 
L 3109 4581 
L 3109 0 
z
M 1716 384 
Q 2084 384 2340 687 
Q 2597 991 2597 1606 
Q 2597 2213 2362 2572 
Q 2128 2931 1691 2931 
Q 1253 2931 1029 2579 
Q 806 2228 806 1656 
Q 806 1244 926 958 
Q 1047 672 1262 528 
Q 1478 384 1716 384 
z
" transform="scale(0.015625)"/>
      </defs>
      <use xlink:href="#ArialUnicodeMS-53"/>
      <use xlink:href="#ArialUnicodeMS-41" transform="translate(66.699219 0)"/>
      <use xlink:href="#ArialUnicodeMS-4d" transform="translate(133.398438 0)"/>
      <use xlink:href="#ArialUnicodeMS-20" transform="translate(216.699219 0)"/>
      <use xlink:href="#ArialUnicodeMS-28" transform="translate(244.482422 0)"/>
      <use xlink:href="#ArialUnicodeMS-4f" transform="translate(277.783203 0)"/>
      <use xlink:href="#ArialUnicodeMS-6e" transform="translate(355.566406 0)"/>
      <use xlink:href="#ArialUnicodeMS-6c" transform="translate(411.181641 0)"/>
      <use xlink:href="#ArialUnicodeMS-69" transform="translate(433.398438 0)"/>
      <use xlink:href="#ArialUnicodeMS-6e" transform="translate(455.615234 0)"/>
      <use xlink:href="#ArialUnicodeMS-65" transform="translate(511.230469 0)"/>
      <use xlink:href="#ArialUnicodeMS-2c" transform="translate(566.845703 0)"/>
      <use xlink:href="#ArialUnicodeMS-20" transform="translate(594.628906 0)"/>
      <use xlink:href="#ArialUnicodeMS-6d" transform="translate(622.412109 0)"/>
      <use xlink:href="#ArialUnicodeMS-65" transform="translate(705.712891 0)"/>
      <use xlink:href="#ArialUnicodeMS-61" transform="translate(761.328125 0)"/>
      <use xlink:href="#ArialUnicodeMS-73" transform="translate(816.943359 0)"/>
      <use xlink:href="#ArialUnicodeMS-75" transform="translate(866.943359 0)"/>
      <use xlink:href="#ArialUnicodeMS-72" transform="translate(922.558594 0)"/>
      <use xlink:href="#ArialUnicodeMS-65" transform="translate(955.859375 0)"/>
      <use xlink:href="#ArialUnicodeMS-64" transform="translate(1011.474609 0)"/>
      <use xlink:href="#ArialUnicodeMS-29" transform="translate(1067.089844 0)"/>
     </g>
    </g>
   </g>
  </g>
 </g>
 <defs>
  <clipPath id="pfb1adb18b7">
   <rect x="47.245625" y="22.505156" width="465.12" height="244.8"/>
  </clipPath>
 </defs>
</svg>
